<svg width="510" height="488" fill="none" xmlns="http://www.w3.org/2000/svg"><path fill="#E8F6FF" d="M0 0h488v488H0z"/><mask id="a" style="mask-type:alpha" maskUnits="userSpaceOnUse" x="0" y="0" width="488" height="488"><path fill="#fff" d="M0 0h488v488H0z"/></mask><g opacity=".5" mask="url(#a)"><g filter="url(#b)"><circle cx="24.5" cy="178.5" r="213.5" fill="#00CBA6"/></g><g filter="url(#c)"><circle cx="372" cy="94" r="204" fill="#237FD3"/></g><g filter="url(#d)"><circle cx="147.5" cy="550.5" r="198.5" fill="#D0D9EC"/></g></g><rect x="44" y="44" width="400" height="400" rx="13.115" fill="#fff"/><path d="M262.17 169.582a3.348 3.348 0 0 1-3.347 3.347h-40.164a3.348 3.348 0 0 1-3.347-3.347V116.03a3.347 3.347 0 0 1 3.347-3.347h30.123l13.388 10.878v46.021z" fill="#C2E9FF"/><path d="M248.782 123.561v-10.878l13.388 10.878h-13.388z" fill="#2550A6"/><path d="M275.558 166.235a6.694 6.694 0 0 1-6.694 6.694h-20.082a6.694 6.694 0 0 1-6.694-6.694v-20.082a6.694 6.694 0 0 1 6.694-6.694h20.201a6.574 6.574 0 0 1 6.575 6.574v20.202z" fill="#E8F6FF"/><path d="m251.687 154.398 6.574-6.573 6.574 6.574M258.253 164.739V149.14" stroke="#2550A6" stroke-width="3.347"/><path d="M192.065 216.655c-1.128 0-2.121-.229-2.98-.688a5.057 5.057 0 0 1-2.007-1.938c-.478-.833-.718-1.81-.718-2.931v-8.882l2.4-.02v8.843c0 .531.089 1.007.266 1.426.184.42.43.777.738 1.072.308.289.662.509 1.062.659.4.151.813.227 1.239.227a3.312 3.312 0 0 0 2.312-.895 3.18 3.18 0 0 0 .728-1.073c.177-.419.265-.891.265-1.416v-8.843h2.4v8.902c0 1.121-.242 2.098-.728 2.931a4.96 4.96 0 0 1-2.006 1.938c-.853.459-1.843.688-2.971.688zm13.559 0c-1.036 0-1.905-.245-2.607-.737-.701-.492-1.229-1.161-1.583-2.007-.354-.852-.531-1.806-.531-2.862 0-1.069.177-2.026.531-2.872.354-.846.872-1.512 1.554-1.997.688-.492 1.538-.738 2.547-.738 1.004 0 1.873.246 2.607.738.741.485 1.315 1.151 1.721 1.997.407.839.61 1.796.61 2.872 0 1.062-.2 2.016-.6 2.862-.4.846-.964 1.515-1.692 2.007-.728.492-1.58.737-2.557.737zm-5.125 4.427v-15.345h2.095v7.456h.295v7.889h-2.39zm4.761-6.551c.616 0 1.125-.154 1.525-.462.4-.309.695-.725.885-1.25a5.056 5.056 0 0 0 .295-1.77c0-.643-.098-1.226-.295-1.751-.197-.531-.502-.951-.915-1.259-.413-.315-.938-.472-1.574-.472-.603 0-1.095.147-1.475.443-.38.288-.662.695-.846 1.219-.177.518-.266 1.125-.266 1.82 0 .688.089 1.295.266 1.82.184.524.469.934.856 1.229.393.289.908.433 1.544.433zm7.578 1.829v-14.459h2.37v14.459h-2.37zm10.009.295c-1.063 0-1.991-.239-2.784-.718a4.923 4.923 0 0 1-1.849-1.977c-.433-.846-.649-1.816-.649-2.911 0-1.115.223-2.092.668-2.931a4.93 4.93 0 0 1 1.859-1.967c.794-.473 1.712-.709 2.755-.709 1.068 0 2 .24 2.793.718a4.918 4.918 0 0 1 1.849 1.987c.44.84.659 1.807.659 2.902 0 1.102-.223 2.075-.669 2.921a4.917 4.917 0 0 1-1.849 1.977c-.793.472-1.721.708-2.783.708zm0-2.223c.944 0 1.645-.314 2.104-.944.46-.629.689-1.442.689-2.439 0-1.03-.233-1.849-.698-2.459-.466-.617-1.164-.925-2.095-.925-.636 0-1.161.145-1.574.433-.407.282-.708.679-.905 1.19-.197.505-.295 1.092-.295 1.761 0 1.029.233 1.852.698 2.469.472.61 1.164.914 2.076.914zm10.439 2.223c-.767 0-1.417-.144-1.948-.432a3.069 3.069 0 0 1-1.21-1.171 3.261 3.261 0 0 1-.403-1.603c0-.512.085-.971.256-1.377.17-.413.433-.767.787-1.062.354-.302.813-.548 1.377-.738a13.06 13.06 0 0 1 1.495-.374c.577-.111 1.2-.213 1.869-.305.675-.098 1.38-.203 2.115-.315l-.846.482c.006-.734-.158-1.275-.492-1.623-.335-.347-.898-.521-1.692-.521-.479 0-.941.112-1.387.335-.446.222-.757.606-.934 1.15l-2.164-.678c.262-.899.76-1.62 1.495-2.164.741-.545 1.738-.817 2.99-.817.944 0 1.774.154 2.489.463a3.093 3.093 0 0 1 1.603 1.514c.19.374.305.758.344 1.151.039.387.059.81.059 1.269v6.521h-2.075v-2.301l.344.373c-.479.768-1.039 1.332-1.682 1.692-.636.354-1.433.531-2.39.531zm.472-1.888c.538 0 .997-.095 1.377-.285.38-.191.682-.423.905-.699.229-.275.384-.534.462-.777.125-.301.194-.646.207-1.033.019-.393.029-.711.029-.954l.728.217c-.715.111-1.328.21-1.839.295-.512.085-.951.167-1.318.246a8.346 8.346 0 0 0-.974.246 3.007 3.007 0 0 0-.698.344c-.19.131-.338.282-.443.452a1.186 1.186 0 0 0-.147.6c0 .263.065.495.196.699.131.196.322.354.571.472.255.118.57.177.944.177zm12.151 1.888c-.977 0-1.83-.245-2.557-.737-.728-.492-1.292-1.161-1.692-2.007-.4-.846-.6-1.8-.6-2.862 0-1.076.2-2.033.6-2.872.406-.846.98-1.512 1.721-1.997.741-.492 1.613-.738 2.616-.738 1.01 0 1.856.246 2.538.738.689.485 1.21 1.151 1.564 1.997.354.846.531 1.803.531 2.872 0 1.056-.177 2.01-.531 2.862-.354.846-.882 1.515-1.584 2.007-.701.492-1.57.737-2.606.737zm.364-2.124c.636 0 1.147-.144 1.534-.433.394-.295.679-.705.856-1.229.184-.525.275-1.132.275-1.82 0-.695-.091-1.302-.275-1.82-.177-.524-.456-.931-.836-1.219-.38-.296-.872-.443-1.475-.443-.637 0-1.161.157-1.574.472-.413.308-.718.728-.915 1.259a4.948 4.948 0 0 0-.295 1.751c0 .649.095 1.239.285 1.77.197.525.495.941.895 1.25.4.308.908.462 1.525.462zm2.665 1.829v-7.455h-.295v-6.709h2.391v14.164h-2.096zm11.762.295c-.767 0-1.416-.144-1.947-.432a3.055 3.055 0 0 1-1.21-1.171 3.251 3.251 0 0 1-.404-1.603c0-.512.086-.971.256-1.377a2.72 2.72 0 0 1 .787-1.062c.354-.302.813-.548 1.377-.738.426-.138.925-.262 1.495-.374.577-.111 1.2-.213 1.869-.305.675-.098 1.38-.203 2.115-.315l-.846.482c.006-.734-.158-1.275-.492-1.623-.334-.347-.898-.521-1.692-.521-.478 0-.941.112-1.387.335-.446.222-.757.606-.934 1.15l-2.164-.678a4.018 4.018 0 0 1 1.495-2.164c.741-.545 1.738-.817 2.99-.817.945 0 1.774.154 2.489.463a3.089 3.089 0 0 1 1.603 1.514c.19.374.305.758.344 1.151.04.387.059.81.059 1.269v6.521h-2.075v-2.301l.344.373c-.478.768-1.039 1.332-1.682 1.692-.636.354-1.433.531-2.39.531zm.472-1.888c.538 0 .997-.095 1.377-.285.381-.191.682-.423.905-.699.23-.275.384-.534.462-.777.125-.301.194-.646.207-1.033.02-.393.03-.711.03-.954l.727.217c-.714.111-1.327.21-1.839.295-.511.085-.951.167-1.318.246a8.346 8.346 0 0 0-.974.246 3.007 3.007 0 0 0-.698.344c-.19.131-.338.282-.443.452a1.186 1.186 0 0 0-.147.6c0 .263.065.495.196.699.132.196.322.354.571.472.256.118.57.177.944.177zm12.755 1.593v-10.79c0-.269.01-.564.029-.885.02-.328.076-.653.168-.974.091-.321.259-.613.501-.875.302-.335.627-.564.974-.689a3.368 3.368 0 0 1 1.043-.216c.341-.02.639-.03.895-.03h1.328v1.928h-1.23c-.452 0-.79.115-1.013.344-.216.223-.325.518-.325.886v11.301h-2.37zm-1.712-8.764v-1.859h6.65v1.859h-6.65zm8.715-3.472v-2.173h2.371v2.173h-2.371zm0 12.236v-10.623h2.371v10.623h-2.371zm5.525 0v-14.459h2.37v14.459h-2.37zm10.146.295c-1.075 0-2.02-.232-2.833-.698a4.972 4.972 0 0 1-1.908-1.938c-.452-.826-.679-1.777-.679-2.852 0-1.161.223-2.167.669-3.02a4.887 4.887 0 0 1 1.859-1.996c.794-.473 1.712-.709 2.754-.709 1.102 0 2.036.259 2.804.777.773.512 1.347 1.236 1.721 2.174.374.938.515 2.043.423 3.315h-2.351v-.866c-.006-1.154-.21-1.996-.61-2.528-.4-.531-1.029-.796-1.888-.796-.971 0-1.692.301-2.164.905-.472.596-.708 1.472-.708 2.626 0 1.075.236 1.908.708 2.498.472.59 1.16.885 2.065.885.584 0 1.086-.127 1.505-.383.427-.262.754-.639.984-1.131l2.341.708c-.407.957-1.036 1.702-1.889 2.233a5.166 5.166 0 0 1-2.803.796zm-3.659-4.947v-1.79h7.308v1.79h-7.308z" fill="#4F4F5F"/><rect x="71.869" y="252.197" width="343.443" height="145.902" rx="6.557" fill="#F1FAFF"/><path d="M172.111 304.422v-9.263h2.953c.077 0 .229.002.457.007.231.004.454.019.669.045.733.094 1.353.356 1.859.784.51.425.896.967 1.157 1.628.262.66.393 1.383.393 2.167 0 .785-.131 1.508-.393 2.168a4.024 4.024 0 0 1-1.157 1.634c-.506.425-1.126.684-1.859.778-.21.026-.431.041-.663.045a25.09 25.09 0 0 1-.463.007h-2.953zm1.576-1.46h1.377c.129 0 .292-.005.489-.013.201-.009.379-.028.534-.058a1.842 1.842 0 0 0 1.068-.585c.274-.309.476-.684.604-1.126.133-.442.2-.905.2-1.39 0-.501-.067-.973-.2-1.415a2.796 2.796 0 0 0-.617-1.112 1.856 1.856 0 0 0-1.055-.573 2.761 2.761 0 0 0-.534-.058c-.197-.008-.36-.013-.489-.013h-1.377v6.343zm7.432 1.46v-6.947h1.371v1.692l-.168-.219c.086-.232.2-.442.341-.631.146-.193.32-.351.521-.476.172-.115.36-.205.566-.27a2.58 2.58 0 0 1 .644-.122c.218-.017.431-.008.636.026v1.447a1.996 1.996 0 0 0-.714-.058 1.651 1.651 0 0 0-.72.225c-.214.116-.39.264-.528.444-.132.18-.231.386-.295.618a2.68 2.68 0 0 0-.097.739v3.532h-1.557zm6.918.193c-.502 0-.926-.094-1.273-.283a1.996 1.996 0 0 1-.792-.766 2.132 2.132 0 0 1-.263-1.048 2.3 2.3 0 0 1 .167-.901c.111-.27.283-.501.514-.694.232-.198.532-.358.901-.483a8.6 8.6 0 0 1 .978-.244c.377-.073.784-.14 1.222-.2.442-.064.903-.133 1.383-.206l-.553.316c.004-.481-.103-.834-.322-1.062-.219-.227-.587-.341-1.106-.341a2 2 0 0 0-.907.219c-.292.146-.496.397-.611.753l-1.416-.444a2.632 2.632 0 0 1 .978-1.415c.485-.356 1.137-.534 1.956-.534.617 0 1.16.101 1.627.302.472.202.821.532 1.049.991.124.244.199.495.225.752.025.253.038.53.038.83v4.265h-1.357v-1.505l.225.244c-.313.502-.679.871-1.1 1.106-.416.232-.937.348-1.563.348zm.309-1.235c.352 0 .652-.062.9-.187.249-.124.446-.276.592-.456.15-.181.251-.35.303-.509.081-.197.126-.422.135-.675.013-.257.019-.465.019-.624l.476.142c-.467.072-.868.137-1.203.193-.334.055-.622.109-.862.16-.24.048-.452.101-.637.161-.18.064-.332.14-.456.225a1.005 1.005 0 0 0-.29.296.776.776 0 0 0-.096.393c0 .171.043.323.128.456.086.129.21.232.373.309.168.077.373.116.618.116zm8.081 4.322a3.46 3.46 0 0 1-1.113-.18 3.117 3.117 0 0 1-.952-.521 2.747 2.747 0 0 1-.694-.81l1.428-.708c.133.253.319.44.559.56a1.7 1.7 0 0 0 .779.186c.321 0 .609-.057.862-.173a1.27 1.27 0 0 0 .585-.502c.142-.219.208-.493.199-.823v-1.975h.193v-5.281h1.358v7.281c0 .176-.009.343-.026.502a3.498 3.498 0 0 1-.071.476c-.103.45-.3.819-.592 1.106a2.677 2.677 0 0 1-1.087.65 4.526 4.526 0 0 1-1.428.212zm-.135-3.087c-.639 0-1.196-.161-1.672-.483a3.194 3.194 0 0 1-1.107-1.312c-.261-.553-.392-1.177-.392-1.872 0-.703.131-1.329.392-1.878a3.17 3.17 0 0 1 1.126-1.306c.485-.321 1.055-.482 1.711-.482.661 0 1.214.161 1.66.482.45.318.791.753 1.022 1.306.232.553.348 1.179.348 1.878 0 .691-.116 1.315-.348 1.872a2.944 2.944 0 0 1-1.035 1.312c-.459.322-1.027.483-1.705.483zm.238-1.39c.416 0 .751-.094 1.004-.283.257-.193.444-.461.559-.804.12-.343.18-.739.18-1.19 0-.454-.06-.851-.18-1.19a1.611 1.611 0 0 0-.546-.797c-.249-.193-.571-.29-.965-.29-.416 0-.759.103-1.03.309-.27.202-.469.476-.598.823a3.255 3.255 0 0 0-.193 1.145c0 .425.062.811.187 1.158.128.343.324.616.585.817.262.202.594.302.997.302zm9.423 1.39c-.502 0-.927-.094-1.274-.283a2 2 0 0 1-.791-.766 2.122 2.122 0 0 1-.264-1.048c0-.335.056-.635.167-.901.112-.27.283-.501.515-.694.231-.198.532-.358.9-.483a8.6 8.6 0 0 1 .978-.244c.378-.073.785-.14 1.222-.2.442-.064.903-.133 1.383-.206l-.553.316c.004-.481-.103-.834-.322-1.062-.218-.227-.587-.341-1.106-.341-.313 0-.615.073-.907.219-.291.146-.495.397-.611.753l-1.415-.444a2.621 2.621 0 0 1 .978-1.415c.484-.356 1.136-.534 1.955-.534.618 0 1.16.101 1.628.302.471.202.821.532 1.048.991.124.244.199.495.225.752.026.253.039.53.039.83v4.265h-1.358v-1.505l.226.244c-.313.502-.68.871-1.1 1.106-.416.232-.937.348-1.563.348zm.308-1.235c.352 0 .652-.062.901-.187.249-.124.446-.276.592-.456.15-.181.251-.35.302-.509.081-.197.127-.422.135-.675.013-.257.019-.465.019-.624l.476.142c-.467.072-.868.137-1.202.193-.335.055-.622.109-.862.16a5.605 5.605 0 0 0-.637.161c-.18.064-.333.14-.457.225a1 1 0 0 0-.289.296.766.766 0 0 0-.097.393c0 .171.043.323.129.456.086.129.21.232.373.309.167.077.373.116.617.116zm9.966 1.042v-3.345a6.53 6.53 0 0 0-.045-.727 2.49 2.49 0 0 0-.212-.765 1.442 1.442 0 0 0-.489-.611c-.214-.159-.506-.238-.875-.238-.197 0-.392.032-.585.096a1.331 1.331 0 0 0-.527.335c-.155.154-.279.368-.373.643-.095.27-.142.617-.142 1.042l-.92-.393c0-.591.114-1.127.341-1.608a2.74 2.74 0 0 1 1.016-1.145c.446-.287.995-.431 1.647-.431.515 0 .939.086 1.274.258.334.171.6.39.797.656.198.266.343.549.438.849.094.3.154.585.18.855.03.266.045.483.045.65v3.879h-1.57zm-4.817 0v-6.947h1.383v2.155h.186v4.792h-1.569zm10.738.193c-.639 0-1.197-.161-1.673-.483a3.185 3.185 0 0 1-1.106-1.312c-.262-.553-.392-1.177-.392-1.872 0-.703.13-1.329.392-1.878a3.163 3.163 0 0 1 1.126-1.306c.484-.321 1.055-.482 1.711-.482.66 0 1.213.161 1.659.482.45.318.791.753 1.023 1.306.232.553.347 1.179.347 1.878 0 .691-.115 1.315-.347 1.872a2.953 2.953 0 0 1-1.036 1.312c-.459.322-1.027.483-1.704.483zm.238-1.39c.416 0 .75-.094 1.003-.283.257-.193.444-.461.56-.804.12-.343.18-.739.18-1.19 0-.454-.06-.851-.18-1.19-.116-.343-.298-.609-.547-.797-.249-.193-.57-.29-.965-.29-.416 0-.759.103-1.029.309a1.76 1.76 0 0 0-.598.823 3.232 3.232 0 0 0-.193 1.145c0 .425.062.811.186 1.158a1.8 1.8 0 0 0 .586.817c.261.202.594.302.997.302zm1.743 1.197v-4.876h-.193v-4.387h1.563v9.263h-1.37zm8.534.193c-.639 0-1.196-.161-1.672-.483a3.194 3.194 0 0 1-1.107-1.312c-.261-.553-.392-1.177-.392-1.872 0-.703.131-1.329.392-1.878a3.17 3.17 0 0 1 1.126-1.306c.485-.321 1.055-.482 1.711-.482.661 0 1.214.161 1.66.482.45.318.791.753 1.023 1.306.231.553.347 1.179.347 1.878 0 .691-.116 1.315-.347 1.872a2.953 2.953 0 0 1-1.036 1.312c-.459.322-1.027.483-1.705.483zm.238-1.39c.416 0 .751-.094 1.004-.283.257-.193.444-.461.559-.804.12-.343.18-.739.18-1.19 0-.454-.06-.851-.18-1.19a1.611 1.611 0 0 0-.546-.797c-.249-.193-.571-.29-.965-.29-.416 0-.759.103-1.029.309-.271.202-.47.476-.599.823a3.255 3.255 0 0 0-.193 1.145c0 .425.063.811.187 1.158.129.343.324.616.585.817.262.202.594.302.997.302zm1.743 1.197v-4.876h-.192v-4.387h1.563v9.263h-1.371zm3.174 0v-6.947h1.37v1.692l-.167-.219c.086-.232.199-.442.341-.631.146-.193.319-.351.521-.476.171-.115.36-.205.566-.27.21-.068.425-.109.643-.122a2.64 2.64 0 0 1 .637.026v1.447a2 2 0 0 0-.714-.058 1.647 1.647 0 0 0-.72.225 1.617 1.617 0 0 0-.528.444c-.133.18-.231.386-.296.618a2.718 2.718 0 0 0-.096.739v3.532h-1.557zm8.081.193c-.695 0-1.301-.157-1.82-.47a3.22 3.22 0 0 1-1.209-1.293c-.284-.553-.425-1.188-.425-1.904 0-.729.146-1.368.437-1.917a3.234 3.234 0 0 1 1.216-1.286c.519-.309 1.119-.463 1.801-.463.699 0 1.308.156 1.827.469.519.313.922.747 1.209 1.3.288.549.431 1.181.431 1.897 0 .721-.145 1.358-.437 1.911-.287.549-.691.98-1.209 1.293-.519.308-1.126.463-1.821.463zm0-1.454c.618 0 1.077-.206 1.377-.617.3-.412.45-.944.45-1.596 0-.673-.152-1.209-.457-1.608-.304-.403-.761-.604-1.37-.604-.416 0-.759.094-1.029.283a1.626 1.626 0 0 0-.592.778c-.128.33-.193.714-.193 1.151 0 .674.152 1.212.457 1.615.309.399.761.598 1.357.598zm8.223 1.454c-.678 0-1.246-.161-1.705-.483a2.951 2.951 0 0 1-1.035-1.312c-.232-.557-.348-1.181-.348-1.872 0-.699.116-1.325.348-1.878.231-.553.57-.988 1.016-1.306.45-.321 1.006-.482 1.666-.482.656 0 1.224.161 1.705.482.484.318.86.753 1.125 1.306.266.549.399 1.175.399 1.878 0 .695-.131 1.319-.392 1.872a3.194 3.194 0 0 1-1.107 1.312c-.476.322-1.033.483-1.672.483zm-3.351 2.894v-10.034h1.37v4.876h.193v5.158h-1.563zm3.113-4.284c.403 0 .735-.1.997-.302.262-.201.455-.474.579-.817.129-.347.193-.733.193-1.158 0-.42-.064-.802-.193-1.145a1.767 1.767 0 0 0-.598-.823c-.27-.206-.613-.309-1.029-.309-.395 0-.717.097-.965.29-.249.188-.433.454-.554.797a3.709 3.709 0 0 0-.173 1.19c0 .451.058.847.173 1.19.121.343.307.611.56.804.257.189.594.283 1.01.283zm8.007 1.197v-7.057c0-.175.007-.368.02-.578a2.9 2.9 0 0 1 .109-.637c.06-.21.169-.401.328-.573.197-.218.409-.369.637-.45.231-.086.459-.133.682-.142.223-.012.418-.019.585-.019h.868v1.261h-.804c-.296 0-.516.075-.662.225-.142.146-.213.339-.213.579v7.391h-1.55zm-1.119-5.731v-1.216h4.348v1.216h-4.348zm5.699-2.271v-1.422h1.55v1.422h-1.55zm0 8.002v-6.947h1.55v6.947h-1.55zm3.613 0v-9.456h1.55v9.456h-1.55zm6.635.193c-.703 0-1.32-.152-1.852-.457a3.248 3.248 0 0 1-1.248-1.267c-.296-.54-.444-1.162-.444-1.865 0-.759.146-1.418.437-1.975a3.198 3.198 0 0 1 1.216-1.306c.519-.309 1.119-.463 1.801-.463.721 0 1.332.169 1.834.508.506.334.881.808 1.125 1.422.245.613.337 1.335.277 2.167h-1.538v-.566c-.004-.754-.137-1.306-.398-1.653-.262-.347-.674-.521-1.235-.521-.635 0-1.107.197-1.416.592-.308.39-.463.963-.463 1.717 0 .704.155 1.248.463 1.634.309.386.76.579 1.351.579.382 0 .71-.084.984-.251.279-.171.494-.418.644-.739l1.531.463a3.11 3.11 0 0 1-1.235 1.46 3.386 3.386 0 0 1-1.834.521zm-2.393-3.236v-1.17h4.78v1.17h-4.78zm14.355 3.043v-3.345a6.53 6.53 0 0 0-.045-.727 2.492 2.492 0 0 0-.213-.765 1.442 1.442 0 0 0-.489-.611c-.214-.159-.506-.238-.874-.238a1.85 1.85 0 0 0-.586.096 1.338 1.338 0 0 0-.527.335c-.155.154-.279.368-.373.643-.095.27-.142.617-.142 1.042l-.92-.393c0-.591.114-1.127.341-1.608.232-.48.571-.862 1.017-1.145.446-.287.995-.431 1.646-.431.515 0 .939.086 1.274.258.334.171.6.39.798.656.197.266.343.549.437.849.094.3.154.585.18.855.03.266.045.483.045.65v3.879h-1.569zm-4.818 0v-9.263h1.383v4.876h.186v4.387h-1.569zm11.224.193c-.703 0-1.321-.152-1.852-.457a3.248 3.248 0 0 1-1.248-1.267c-.296-.54-.444-1.162-.444-1.865 0-.759.146-1.418.437-1.975a3.198 3.198 0 0 1 1.216-1.306c.519-.309 1.119-.463 1.801-.463.72 0 1.332.169 1.833.508.506.334.882.808 1.126 1.422.244.613.337 1.335.277 2.167h-1.538v-.566c-.004-.754-.137-1.306-.399-1.653-.261-.347-.673-.521-1.235-.521-.634 0-1.106.197-1.415.592-.309.39-.463.963-.463 1.717 0 .704.154 1.248.463 1.634.309.386.759.579 1.351.579.382 0 .71-.084.984-.251a1.67 1.67 0 0 0 .643-.739l1.531.463a3.104 3.104 0 0 1-1.235 1.46 3.38 3.38 0 0 1-1.833.521zm-2.393-3.236v-1.17h4.78v1.17h-4.78zm6.974 3.043v-6.947h1.37v1.692l-.167-.219c.085-.232.199-.442.341-.631a1.89 1.89 0 0 1 .521-.476c.171-.115.36-.205.566-.27.21-.068.424-.109.643-.122a2.64 2.64 0 0 1 .637.026v1.447a2 2 0 0 0-.714-.058 1.655 1.655 0 0 0-.721.225c-.214.116-.39.264-.527.444-.133.18-.232.386-.296.618a2.718 2.718 0 0 0-.097.739v3.532h-1.556zm8.171.193c-.703 0-1.321-.152-1.853-.457a3.262 3.262 0 0 1-1.248-1.267c-.295-.54-.443-1.162-.443-1.865 0-.759.145-1.418.437-1.975a3.198 3.198 0 0 1 1.216-1.306c.519-.309 1.119-.463 1.801-.463.72 0 1.331.169 1.833.508.506.334.881.808 1.126 1.422.244.613.336 1.335.276 2.167h-1.537v-.566c-.004-.754-.137-1.306-.399-1.653-.261-.347-.673-.521-1.235-.521-.634 0-1.106.197-1.415.592-.309.39-.463.963-.463 1.717 0 .704.154 1.248.463 1.634.309.386.759.579 1.351.579.382 0 .71-.084.984-.251a1.67 1.67 0 0 0 .643-.739l1.531.463a3.104 3.104 0 0 1-1.235 1.46 3.38 3.38 0 0 1-1.833.521zm-2.393-3.236v-1.17h4.779v1.17h-4.779z" fill="#4F4F5F"/><path d="M238.68 329.893c-.695 0-1.302-.156-1.821-.469a3.22 3.22 0 0 1-1.209-1.293c-.283-.554-.424-1.188-.424-1.904 0-.729.145-1.368.437-1.917a3.23 3.23 0 0 1 1.216-1.287c.519-.308 1.119-.463 1.801-.463.699 0 1.308.157 1.827.47.518.313.922.746 1.209 1.299.287.549.431 1.182.431 1.898 0 .72-.146 1.357-.438 1.91a3.22 3.22 0 0 1-1.209 1.293c-.519.309-1.126.463-1.82.463zm0-1.454c.617 0 1.076-.205 1.376-.617.3-.412.451-.944.451-1.595 0-.674-.153-1.21-.457-1.608-.305-.404-.761-.605-1.37-.605-.416 0-.759.094-1.029.283a1.624 1.624 0 0 0-.592.778c-.129.33-.193.714-.193 1.152 0 .673.152 1.211.457 1.614.308.399.761.598 1.357.598zm4.884 1.261v-6.947h1.37v1.692l-.167-.219c.086-.231.199-.442.341-.63.146-.193.319-.352.521-.476.171-.116.36-.206.566-.27.21-.069.425-.11.643-.123a2.64 2.64 0 0 1 .637.026v1.447a1.979 1.979 0 0 0-.714-.057 1.621 1.621 0 0 0-.72.225 1.593 1.593 0 0 0-.528.444c-.133.18-.231.385-.296.617a2.72 2.72 0 0 0-.096.74v3.531h-1.557z" fill="#AAA9C4"/><rect x="204.963" y="339.388" width="73.497" height="22.076" rx="4.169" fill="#fff"/><path d="M214.272 353.427v-5.77h2.288c.39 0 .709.079.957.236.251.155.437.354.557.597.123.243.185.495.185.754 0 .318-.076.587-.229.809a1.096 1.096 0 0 1-.613.449v-.201c.363.083.639.256.826.517.189.262.284.56.284.894 0 .342-.065.641-.196.897a1.407 1.407 0 0 1-.585.601c-.257.145-.575.217-.954.217h-2.52zm.978-.91h1.422a.999.999 0 0 0 .453-.1.782.782 0 0 0 .428-.733.857.857 0 0 0-.1-.417.732.732 0 0 0-.292-.292.897.897 0 0 0-.461-.113h-1.45v1.655zm0-2.556h1.298a.84.84 0 0 0 .372-.08.616.616 0 0 0 .261-.237.72.72 0 0 0 .096-.384.694.694 0 0 0-.192-.501c-.129-.134-.308-.2-.537-.2h-1.298v1.402zm4.077 3.466v-5.77h2.384a4.067 4.067 0 0 1 .461.032c.334.051.609.162.826.333.219.171.38.387.484.649.107.259.161.547.161.865 0 .47-.119.875-.357 1.214-.238.337-.602.545-1.094.625l-.413.036h-1.486v2.016h-.966zm3.314 0-1.138-2.348.982-.217 1.25 2.565h-1.094zm-2.348-2.917h1.378c.054 0 .114-.003.181-.008.066-.006.128-.016.184-.032a.726.726 0 0 0 .377-.213.866.866 0 0 0 .196-.344c.04-.128.06-.254.06-.377s-.02-.248-.06-.376a.864.864 0 0 0-.196-.349.724.724 0 0 0-.377-.212.755.755 0 0 0-.184-.028 2.014 2.014 0 0 0-.181-.008h-1.378v1.947zm6.765 3.037c-.577 0-1.072-.126-1.483-.377a2.509 2.509 0 0 1-.949-1.057c-.22-.452-.329-.975-.329-1.571s.109-1.119.329-1.571c.221-.451.538-.802.949-1.054.411-.253.906-.38 1.483-.38.577 0 1.071.127 1.482.38.414.252.731.603.95 1.054.221.452.332.975.332 1.571s-.111 1.119-.332 1.571a2.479 2.479 0 0 1-.95 1.057c-.411.251-.905.377-1.482.377zm0-.91c.387.003.709-.082.965-.256.259-.174.453-.418.581-.733.131-.315.197-.684.197-1.106 0-.422-.066-.788-.197-1.098a1.562 1.562 0 0 0-.581-.729c-.256-.174-.578-.263-.965-.269-.388-.002-.71.083-.966.257a1.6 1.6 0 0 0-.581.733 2.927 2.927 0 0 0-.192 1.106c0 .422.064.789.192 1.102.128.31.321.551.577.725.259.174.582.263.97.268zm4.537.79-1.687-5.77h1.014l1.15 4.167 1.146-4.159 1.014-.008 1.15 4.167 1.146-4.167h1.013l-1.682 5.77h-.954l-1.182-4.103-1.174 4.103h-.954zm8.579.12c-.422 0-.802-.073-1.142-.22a2.165 2.165 0 0 1-.833-.629 2.076 2.076 0 0 1-.413-.978l1.002-.152c.085.342.26.606.525.793.267.187.574.28.921.28.206 0 .4-.032.581-.096.182-.064.329-.157.441-.28a.638.638 0 0 0 .172-.453.578.578 0 0 0-.16-.405.757.757 0 0 0-.2-.144 1.381 1.381 0 0 0-.281-.116l-1.49-.441a4.27 4.27 0 0 1-.417-.148 1.788 1.788 0 0 1-.421-.261 1.324 1.324 0 0 1-.324-.424 1.483 1.483 0 0 1-.124-.641c0-.372.093-.683.28-.934.19-.254.443-.443.761-.569a2.852 2.852 0 0 1 1.066-.184c.396.002.748.071 1.058.204.31.131.569.322.777.573.209.251.356.554.441.91l-1.038.18a1.12 1.12 0 0 0-.248-.517 1.154 1.154 0 0 0-.445-.328 1.507 1.507 0 0 0-1.094-.033.963.963 0 0 0-.396.257.575.575 0 0 0-.149.393c0 .141.043.257.129.348a.966.966 0 0 0 .316.213c.128.05.258.093.389.128l1.033.288c.142.038.301.088.477.152.177.065.346.154.509.269.163.115.297.266.401.453.107.187.16.424.16.713 0 .299-.063.562-.188.789-.123.225-.29.412-.501.561a2.29 2.29 0 0 1-.725.337 3.16 3.16 0 0 1-.85.112zm3.131-.12v-5.77h3.727v.906h-2.761v1.422h2.28v.905h-2.28v1.631h2.761v.906h-3.727zm6.292 0v-5.77h3.474v.966h-2.508v1.438h2.027v.962h-2.027v2.404h-.966zm4.275 0v-5.77h.966v5.77h-.966zm2.246 0v-5.77h.966v4.864h2.548v.906h-3.514zm4.193 0v-5.77h3.726v.906h-2.761v1.422h2.28v.905h-2.28v1.631h2.761v.906h-3.726zm6.768.12c-.422 0-.803-.073-1.142-.22a2.165 2.165 0 0 1-.833-.629 2.066 2.066 0 0 1-.413-.978l1.002-.152c.085.342.26.606.525.793.267.187.574.28.921.28.206 0 .4-.032.581-.096.182-.064.329-.157.441-.28a.638.638 0 0 0 .172-.453.578.578 0 0 0-.16-.405.774.774 0 0 0-.2-.144 1.381 1.381 0 0 0-.281-.116l-1.49-.441a4.179 4.179 0 0 1-.417-.148 1.788 1.788 0 0 1-.421-.261 1.324 1.324 0 0 1-.324-.424 1.483 1.483 0 0 1-.125-.641c0-.372.094-.683.281-.934.19-.254.443-.443.761-.569a2.852 2.852 0 0 1 1.066-.184c.395.002.748.071 1.058.204.31.131.569.322.777.573.209.251.355.554.441.91l-1.038.18a1.13 1.13 0 0 0-.248-.517 1.154 1.154 0 0 0-.445-.328 1.507 1.507 0 0 0-1.094-.033.974.974 0 0 0-.397.257.579.579 0 0 0-.148.393.49.49 0 0 0 .128.348.97.97 0 0 0 .317.213c.128.05.258.093.389.128l1.033.288c.142.038.301.088.477.152.176.065.346.154.509.269.163.115.297.266.401.453.107.187.16.424.16.713 0 .299-.063.562-.188.789-.123.225-.29.412-.501.561a2.29 2.29 0 0 1-.725.337 3.16 3.16 0 0 1-.85.112z" fill="#AAA9C4"/><rect x="204.963" y="339.388" width="73.497" height="22.076" rx="4.169" stroke="#00CBA6" stroke-width=".82"/><g filter="url(#e)"><rect x="223" y="330.594" width="230.328" height="57.377" rx="6.432" transform="rotate(-.147 223 330.594)" fill="#fff"/><rect x="223.403" y="330.995" width="229.524" height="56.573" rx="6.03" transform="rotate(-.147 223.403 330.995)" stroke="#F2F4F7" stroke-width=".804"/></g><path d="M261.508 371.768a1.608 1.608 0 0 1-1.604 1.612l-19.298.05a1.608 1.608 0 0 1-1.612-1.604l-.066-25.73a1.608 1.608 0 0 1 1.604-1.612l14.473-.037 6.446 5.209.057 22.112z" fill="#E8EDF8"/><path d="m255.018 349.672-.014-5.227 6.446 5.21-6.432.017zM244.302 367.866l-.011-4.117 1.313-.003.203.002c.103.002.202.008.297.02.326.041.602.156.827.346.227.188.4.429.517.722.117.293.176.614.176.963.001.349-.056.67-.171.964a1.806 1.806 0 0 1-.513.728c-.225.189-.5.305-.825.348a3.04 3.04 0 0 1-.295.02 7.91 7.91 0 0 1-.206.004l-1.312.003zm.699-.651.612-.001c.057 0 .129-.002.217-.006.089-.005.168-.013.237-.027a.82.82 0 0 0 .474-.261c.122-.138.211-.305.267-.501.059-.197.088-.403.087-.618 0-.223-.03-.433-.09-.629a1.23 1.23 0 0 0-.276-.494.823.823 0 0 0-.469-.253 1.258 1.258 0 0 0-.237-.025 6.785 6.785 0 0 0-.218-.005l-.611.002.007 2.818zm5.046.722c-.412.001-.765-.087-1.059-.266a1.79 1.79 0 0 1-.679-.753 2.54 2.54 0 0 1-.237-1.12 2.53 2.53 0 0 1 .231-1.121c.157-.323.383-.574.676-.754.293-.182.645-.273 1.057-.274.411-.001.764.088 1.058.269.296.178.523.428.68.75.159.322.239.695.24 1.12.001.425-.077.799-.234 1.121a1.775 1.775 0 0 1-.676.757c-.293.18-.645.27-1.057.271zm-.002-.649c.277.001.506-.06.689-.185a1.12 1.12 0 0 0 .413-.524c.093-.225.139-.488.138-.789a2.009 2.009 0 0 0-.142-.783 1.116 1.116 0 0 0-.416-.519c-.183-.124-.413-.187-.69-.19-.276-.001-.505.06-.688.185-.183.124-.32.299-.413.524a2.077 2.077 0 0 0-.135.789c0 .301.047.563.139.786.092.221.23.393.413.516.185.124.416.187.692.19zm4.285.638c-.412.001-.765-.088-1.059-.266a1.79 1.79 0 0 1-.679-.753 2.525 2.525 0 0 1-.238-1.12 2.53 2.53 0 0 1 .232-1.121c.157-.323.382-.574.675-.754.293-.182.646-.273 1.058-.274.474-.001.87.117 1.187.354.317.236.54.554.668.956l-.694.193a1.21 1.21 0 0 0-.41-.627c-.193-.152-.443-.228-.75-.227-.276 0-.507.063-.691.187a1.135 1.135 0 0 0-.413.525 2.09 2.09 0 0 0-.138.786c0 .301.047.564.139.789.094.223.233.396.419.519.185.123.416.185.692.184.307-.001.556-.078.748-.231.192-.152.328-.362.408-.63l.695.19a1.884 1.884 0 0 1-.664.963c-.316.237-.711.356-1.185.357z" fill="#237FD3"/><path d="m279.449 358.894-.01-3.795-3.166-5.459 1.808-.005 2.138 3.687 2.114-3.698 1.807-.005-3.131 5.476.009 3.795-1.569.004zm7.652.173c-.695.002-1.302-.153-1.822-.464a3.227 3.227 0 0 1-1.212-1.29c-.285-.553-.428-1.187-.43-1.903-.002-.729.142-1.368.433-1.918.29-.55.694-.98 1.212-1.29.518-.31 1.118-.466 1.8-.468.699-.001 1.308.154 1.828.465.52.312.924.744 1.213 1.297.288.548.434 1.18.435 1.896.002.72-.142 1.358-.432 1.912a3.235 3.235 0 0 1-1.206 1.296c-.518.31-1.124.466-1.819.467zm-.004-1.453c.618-.002 1.076-.209 1.375-.621.299-.413.448-.945.446-1.597-.002-.673-.155-1.209-.461-1.607-.305-.402-.762-.602-1.371-.601-.416.001-.759.097-1.029.286a1.632 1.632 0 0 0-.59.78c-.127.33-.191.714-.19 1.152.002.673.156 1.211.461 1.613.31.398.763.596 1.359.595zm7.493 1.441c-.514.001-.939-.084-1.274-.254a2.255 2.255 0 0 1-.799-.654 2.86 2.86 0 0 1-.44-.848 4.58 4.58 0 0 1-.189-.849 7.6 7.6 0 0 1-.04-.656l-.01-3.879 1.57-.004.008 3.345c.001.214.016.457.047.727.031.266.1.523.208.771.112.244.276.445.49.604.22.158.513.236.882.235.198 0 .393-.033.585-.098.193-.065.367-.174.521-.329.158-.159.284-.376.377-.651.094-.274.14-.622.139-1.042l.921.39a3.652 3.652 0 0 1-.343 1.609 2.74 2.74 0 0 1-1.007 1.154c-.445.284-.994.427-1.646.429zm2.27-.206-.005-2.154h-.187l-.012-4.792 1.557-.004.018 6.947-1.371.003zm3.178-.008-.018-6.947 1.37-.003.004 1.691-.167-.218c.085-.232.198-.442.339-.631.145-.194.318-.353.52-.478.171-.116.359-.206.565-.271.21-.069.424-.111.643-.124.219-.018.431-.01.637.024l.004 1.447a2.006 2.006 0 0 0-.715-.056 1.636 1.636 0 0 0-.719.227c-.215.117-.39.265-.527.446a1.88 1.88 0 0 0-.294.618 2.721 2.721 0 0 0-.095.74l.009 3.531-1.556.004zm4.242 1.559-.003-1.216 8.49-.022.004 1.216-8.491.022zm12.406-1.409c-.716.002-1.327-.155-1.834-.471a3.172 3.172 0 0 1-1.168-1.309c-.267-.553-.404-1.178-.41-1.877.003-.712.14-1.343.413-1.893a3.154 3.154 0 0 1 1.181-1.302c.509-.319 1.115-.479 1.819-.481.789-.002 1.456.196 2.002.593.55.393.909.933 1.078 1.619l-1.543.422c-.121-.373-.321-.662-.6-.867a1.536 1.536 0 0 0-.953-.313c-.403.001-.735.098-.996.292a1.65 1.65 0 0 0-.577.786 3.268 3.268 0 0 0-.184 1.139c.002.661.151 1.194.448 1.601.297.407.737.609 1.321.608.411-.001.735-.097.97-.286.24-.189.419-.462.538-.818l1.584.349c-.213.709-.587 1.254-1.122 1.637-.535.379-1.19.569-1.967.571zm7.263-.018c-.695.001-1.302-.154-1.821-.465a3.23 3.23 0 0 1-1.213-1.29c-.284-.553-.428-1.187-.429-1.903-.002-.729.142-1.368.432-1.918.29-.55.694-.979 1.212-1.29.519-.31 1.118-.466 1.8-.467.699-.002 1.309.153 1.828.465.52.311.924.743 1.213 1.296.289.548.434 1.18.436 1.896.002.721-.142 1.358-.433 1.912a3.235 3.235 0 0 1-1.206 1.296c-.518.31-1.124.466-1.819.468zm-.004-1.454c.618-.002 1.076-.209 1.375-.621.3-.413.448-.945.447-1.597-.002-.673-.156-1.208-.461-1.607-.306-.402-.763-.602-1.372-.601-.416.001-.759.097-1.028.286a1.626 1.626 0 0 0-.59.78c-.128.33-.191.714-.19 1.152.002.673.155 1.211.461 1.613.309.398.762.596 1.358.595zm9.693 1.236-.009-3.345c0-.219-.016-.461-.046-.727a2.524 2.524 0 0 0-.215-.765 1.455 1.455 0 0 0-.49-.61c-.215-.158-.507-.236-.876-.235-.197 0-.392.033-.585.098a1.335 1.335 0 0 0-.526.335c-.154.155-.278.37-.372.645-.093.27-.14.618-.139 1.042l-.92-.39a3.706 3.706 0 0 1 .336-1.609 2.75 2.75 0 0 1 1.014-1.148c.445-.288.994-.433 1.645-.435.515-.001.94.084 1.275.254.335.171.601.389.799.654.198.266.344.548.44.848.095.3.155.585.182.855.031.266.046.483.047.65l.01 3.879-1.57.004zm-4.818.012-.018-6.947 1.383-.003.006 2.154h.186l.013 4.792-1.57.004zm12.138-.031a6.383 6.383 0 0 1-1.351.113 3.105 3.105 0 0 1-1.177-.235 1.628 1.628 0 0 1-.793-.725c-.16-.3-.244-.606-.254-.919a40.927 40.927 0 0 1-.015-1.062l-.016-6.04 1.544-.004.015 5.95c.001.279.004.524.009.734.009.21.054.381.136.514.155.257.402.4.741.429a5 5 0 0 0 1.158-.054l.003 1.299zm-4.858-5.719-.004-1.216 4.844-.012.003 1.216-4.843.012zm6.352 5.715-.018-6.947 1.37-.004.004 1.692-.167-.218c.085-.232.198-.442.339-.631.145-.194.318-.353.52-.478.171-.116.359-.206.565-.271.21-.069.424-.111.643-.124.219-.018.431-.01.637.024l.003 1.447a2 2 0 0 0-.714-.056 1.644 1.644 0 0 0-.72.227 1.635 1.635 0 0 0-.526.445c-.132.181-.23.387-.294.619a2.721 2.721 0 0 0-.095.74l.009 3.531-1.556.004zm6.918.175c-.502.001-.927-.092-1.274-.28a2.001 2.001 0 0 1-.794-.763 2.134 2.134 0 0 1-.266-1.048 2.304 2.304 0 0 1 .165-.901c.111-.27.282-.502.513-.696.231-.198.531-.359.899-.485a8.55 8.55 0 0 1 .977-.246c.377-.074.785-.142 1.222-.203.441-.065.902-.135 1.382-.209l-.552.316c.003-.48-.105-.834-.325-1.06-.219-.227-.588-.34-1.107-.338-.313 0-.615.074-.906.221-.291.146-.494.398-.609.754l-1.417-.44c.17-.588.495-1.061.974-1.418.484-.357 1.135-.537 1.955-.539.617-.002 1.16.098 1.628.298.472.2.822.53 1.051.988.125.244.2.495.227.752.026.253.04.53.041.83l.011 4.264-1.358.004-.004-1.505.226.244c-.312.502-.677.872-1.097 1.109-.415.232-.936.35-1.562.351zm.305-1.236c.352-.001.652-.063.901-.188a1.75 1.75 0 0 0 .59-.459c.15-.18.25-.35.301-.509.081-.197.126-.422.134-.675.012-.258.018-.466.017-.624l.477.14c-.468.074-.868.139-1.203.196-.334.057-.621.111-.861.163-.24.048-.452.102-.637.162-.18.065-.332.141-.456.227-.124.086-.22.185-.289.296a.778.778 0 0 0-.095.393c0 .172.044.324.13.456a.894.894 0 0 0 .374.308c.167.077.373.115.617.114zm8.182 1.214c-.717.002-1.328-.155-1.835-.471a3.172 3.172 0 0 1-1.168-1.309c-.267-.553-.404-1.178-.41-1.877.003-.712.141-1.343.414-1.893.277-.553.67-.988 1.18-1.302.509-.319 1.116-.479 1.819-.481.789-.002 1.456.196 2.002.593.55.394.909.933 1.078 1.619l-1.542.422a1.685 1.685 0 0 0-.601-.867 1.536 1.536 0 0 0-.953-.313c-.403.001-.735.098-.996.292a1.65 1.65 0 0 0-.577.786 3.245 3.245 0 0 0-.183 1.139c.001.661.151 1.194.448 1.601.296.407.737.609 1.32.608.411-.001.735-.097.97-.286.24-.189.419-.462.539-.818l1.583.35c-.213.708-.587 1.253-1.122 1.636-.535.379-1.19.569-1.966.571zm8.454-.214a6.316 6.316 0 0 1-1.351.112 3.076 3.076 0 0 1-1.178-.235 1.634 1.634 0 0 1-.793-.724 2.09 2.09 0 0 1-.253-.92 40.845 40.845 0 0 1-.015-1.061l-.016-6.04 1.544-.004.015 5.95c.001.279.004.523.008.733.01.211.055.382.137.515.155.257.402.4.741.429.339.029.724.011 1.157-.055l.004 1.3zm-4.859-5.719-.003-1.216 4.844-.012.003 1.215-4.844.013zm6.61 5.714-.004-1.589 1.589-.004.004 1.589-1.589.004zm6.436.177c-.639.001-1.197-.158-1.674-.479a3.186 3.186 0 0 1-1.11-1.309c-.263-.552-.395-1.176-.397-1.871-.002-.703.127-1.33.387-1.879.265-.554.639-.99 1.123-1.309.484-.323 1.053-.485 1.71-.487.66-.001 1.214.158 1.66.479.451.316.794.75 1.027 1.303.232.552.35 1.178.352 1.877.001.691-.113 1.315-.343 1.873-.23.554-.574.992-1.032 1.315-.458.323-1.026.485-1.703.487zm.234-1.39c.416-.002.75-.097 1.003-.286a1.62 1.62 0 0 0 .557-.806c.119-.343.178-.74.177-1.19a3.56 3.56 0 0 0-.183-1.19c-.117-.342-.299-.608-.549-.796-.249-.192-.571-.288-.965-.287-.416.001-.759.105-1.029.312a1.765 1.765 0 0 0-.596.825 3.233 3.233 0 0 0-.19 1.145c.001.425.064.81.19 1.157.129.343.325.615.587.816.262.201.595.301.998.3zm1.746 1.191-.012-4.875h-.193l-.012-4.387 1.564-.004.023 9.263-1.37.003zm6.243.177c-.695.002-1.302-.153-1.822-.465a3.22 3.22 0 0 1-1.213-1.289c-.284-.553-.427-1.187-.429-1.903-.002-.729.142-1.369.432-1.918a3.23 3.23 0 0 1 1.213-1.29c.518-.31 1.118-.466 1.8-.468.699-.001 1.308.154 1.828.465.519.312.924.744 1.212 1.296.289.549.434 1.181.436 1.897.002.72-.142 1.358-.432 1.912a3.235 3.235 0 0 1-1.206 1.296c-.518.31-1.125.466-1.819.467zm-.004-1.453c.617-.002 1.076-.209 1.375-.621.299-.413.448-.945.446-1.597-.002-.673-.155-1.209-.461-1.607-.305-.402-.763-.602-1.372-.601-.415.001-.758.096-1.028.286a1.632 1.632 0 0 0-.59.78c-.128.33-.191.714-.19 1.152.002.673.156 1.211.461 1.613.31.398.763.596 1.359.595zm7.905 1.433c-.716.002-1.328-.155-1.835-.471a3.17 3.17 0 0 1-1.167-1.309c-.268-.553-.404-1.179-.41-1.878.002-.712.14-1.342.413-1.892a3.152 3.152 0 0 1 1.18-1.302c.51-.319 1.116-.479 1.819-.481.789-.002 1.457.196 2.002.593.55.393.91.933 1.079 1.618l-1.543.422c-.121-.372-.321-.661-.601-.866a1.533 1.533 0 0 0-.952-.313c-.403.001-.736.098-.997.292a1.646 1.646 0 0 0-.577.786 3.268 3.268 0 0 0-.183 1.139c.002.66.151 1.194.448 1.601.297.406.737.609 1.32.607.412-.001.735-.096.971-.285.239-.19.419-.462.538-.819l1.583.35c-.212.708-.586 1.254-1.121 1.637-.535.379-1.191.569-1.967.571z" fill="#4F4F5F"/><path d="M278.425 372.995a1.613 1.613 0 0 1-.833-.214 1.605 1.605 0 0 1-.585-.605 1.793 1.793 0 0 1-.219-.888l-.004-1.436a1.95 1.95 0 0 1 .211-.935c.144-.265.344-.47.602-.615.259-.145.561-.218.904-.218.238-.001.465.039.679.119.214.078.405.205.571.379l-.569.556a.875.875 0 0 0-.305-.232.85.85 0 0 0-.374-.085.895.895 0 0 0-.802.471.936.936 0 0 0-.11.45l.002.783-.145-.157c.135-.157.298-.28.487-.368.19-.09.389-.136.597-.136.297-.001.56.066.787.201.228.133.408.316.539.55.132.231.198.495.199.792.001.296-.074.564-.224.804-.148.239-.345.43-.592.572a1.617 1.617 0 0 1-.816.212zm-.002-.757a.838.838 0 0 0 .42-.109.85.85 0 0 0 .3-.299.784.784 0 0 0 .114-.42.82.82 0 0 0-.415-.721.777.777 0 0 0-.417-.113.84.84 0 0 0-.72.418.809.809 0 0 0-.11.42.825.825 0 0 0 .408.714c.127.074.267.11.42.11zm3.793.738a1.636 1.636 0 0 1-1.218-.525 1.526 1.526 0 0 1-.333-.596l.764-.208a.787.787 0 0 0 .299.435c.147.1.308.149.483.146a.794.794 0 0 0 .807-.818.814.814 0 0 0-.227-.587.772.772 0 0 0-.585-.234.772.772 0 0 0-.213.03.981.981 0 0 0-.196.082l-.362-.622 1.583-1.361.069.19-2.246.006-.001-.745 2.895-.007.002.747-1.273 1.23-.007-.233c.287.019.53.098.732.238.204.139.359.319.467.539.11.221.165.462.166.725 0 .297-.072.564-.218.8a1.577 1.577 0 0 1-.582.562 1.63 1.63 0 0 1-.806.206zm3.772-.099-.012-4.721.79-.002.005 2.19 1.88-2.195.971-.002-2.024 2.32 2.173 2.401-1.003.002-1.996-2.198.006 2.203-.79.002zm4.245-.01-.012-4.722 1.872-.005c.32 0 .581.063.784.192.206.126.359.289.457.487.102.199.152.404.153.616.001.26-.061.481-.185.663a.891.891 0 0 1-.501.368v-.163c.297.067.523.207.676.421.156.214.234.457.235.73 0 .28-.052.525-.159.735-.107.21-.266.375-.477.493-.21.119-.47.178-.78.179l-2.063.006zm.798-.747 1.164-.003a.813.813 0 0 0 .371-.083.64.64 0 0 0 .349-.601.696.696 0 0 0-.083-.34.6.6 0 0 0-.24-.239.739.739 0 0 0-.377-.091l-1.187.003.003 1.354zm-.005-2.092 1.062-.002a.694.694 0 0 0 .305-.067.5.5 0 0 0 .213-.194.593.593 0 0 0 .078-.315.57.57 0 0 0-.159-.409c-.105-.109-.252-.163-.44-.163l-1.062.003.003 1.147z" fill="#AAA9C4"/><path d="m416.663 387.699.143-.424c.672-1.993 3.568-1.743 3.887.337l-1.339-8.718a2.109 2.109 0 1 1 4.168-.641l.087.564.351 2.284a.369.369 0 1 0 .729-.112l-.669-4.352a2.69 2.69 0 0 1 5.315-.817l.655 4.258a.254.254 0 1 0 .502-.077l-.406-2.64a2.224 2.224 0 0 1 4.396-.676l.388 2.527a.369.369 0 1 0 .73-.112l-.052-.338a1.915 1.915 0 1 1 3.786-.582l1.798 11.698c.15.974.161 1.965.034 2.942a9.284 9.284 0 0 1-5.253 7.198l-.513.241a10.315 10.315 0 0 1-6.161.828l-1.264-.22a14.374 14.374 0 0 1-6.016-2.557l-2.257-1.65a6.691 6.691 0 0 1-2.666-4.388l-.492-3.198a2.93 2.93 0 0 1 .119-1.375z" fill="#237FD3"/><defs><filter id="b" x="-339" y="-185" width="727" height="727" filterUnits="userSpaceOnUse" color-interpolation-filters="sRGB"><feFlood flood-opacity="0" result="BackgroundImageFix"/><feBlend in="SourceGraphic" in2="BackgroundImageFix" result="shape"/><feGaussianBlur stdDeviation="75" result="effect1_foregroundBlur_9_35"/></filter><filter id="c" x="-82" y="-360" width="908" height="908" filterUnits="userSpaceOnUse" color-interpolation-filters="sRGB"><feFlood flood-opacity="0" result="BackgroundImageFix"/><feBlend in="SourceGraphic" in2="BackgroundImageFix" result="shape"/><feGaussianBlur stdDeviation="125" result="effect1_foregroundBlur_9_35"/></filter><filter id="d" x="-301" y="102" width="897" height="897" filterUnits="userSpaceOnUse" color-interpolation-filters="sRGB"><feFlood flood-opacity="0" result="BackgroundImageFix"/><feBlend in="SourceGraphic" in2="BackgroundImageFix" result="shape"/><feGaussianBlur stdDeviation="125" result="effect1_foregroundBlur_9_35"/></filter><filter id="e" x="205.327" y="314.74" width="304.415" height="131.91" filterUnits="userSpaceOnUse" color-interpolation-filters="sRGB"><feFlood flood-opacity="0" result="BackgroundImageFix"/><feColorMatrix in="SourceAlpha" values="0 0 0 0 0 0 0 0 0 0 0 0 0 0 0 0 0 0 127 0" result="hardAlpha"/><feOffset dx="19.297" dy="21.71"/><feGaussianBlur stdDeviation="18.493"/><feComposite in2="hardAlpha" operator="out"/><feColorMatrix values="0 0 0 0 0.145098 0 0 0 0 0.313726 0 0 0 0 0.65098 0 0 0 0.2 0"/><feBlend in2="BackgroundImageFix" result="effect1_dropShadow_9_35"/><feBlend in="SourceGraphic" in2="effect1_dropShadow_9_35" result="shape"/></filter></defs></svg>