<svg width="515" height="488" fill="none" xmlns="http://www.w3.org/2000/svg"><rect width="488" height="488" rx="16" fill="#ECF8FF"/><mask id="a" style="mask-type:alpha" maskUnits="userSpaceOnUse" x="0" y="0" width="488" height="488"><rect width="488" height="488" rx="16" fill="#fff"/></mask><g opacity=".5" mask="url(#a)"><g filter="url(#b)"><circle cx="24.5" cy="178.5" r="213.5" fill="#76CDFF"/></g><g filter="url(#c)"><circle cx="372" cy="94" r="204" fill="#237FD3"/></g><g filter="url(#d)"><circle cx="147.5" cy="550.5" r="198.5" fill="#C2E9FF"/></g></g><rect x="44" y="44" width="400" height="400" rx="7.562" fill="#fff"/><rect x="66.688" y="66.688" width="354.472" height="276.423" rx="7.167" fill="#fff"/><path d="M67.479 80.688v-8.14h2.594l.402.005c.203.004.4.017.588.04.644.083 1.188.313 1.633.69.449.373.788.85 1.018 1.43.23.58.344 1.215.344 1.905s-.115 1.324-.344 1.905a3.541 3.541 0 0 1-1.018 1.435c-.445.373-.989.601-1.633.684a5.64 5.64 0 0 1-.583.04c-.203.004-.339.005-.407.005H67.48zm1.385-1.284h1.21c.112 0 .256-.003.429-.01.177-.009.334-.025.47-.052a1.61 1.61 0 0 0 .938-.514c.24-.272.418-.601.53-.99.118-.387.176-.794.176-1.22 0-.441-.058-.856-.175-1.244a2.45 2.45 0 0 0-.543-.978 1.63 1.63 0 0 0-.927-.503 2.413 2.413 0 0 0-.469-.05 10.155 10.155 0 0 0-.43-.012h-1.21v5.573zm9.306 1.453c-.618 0-1.16-.134-1.628-.401a2.857 2.857 0 0 1-1.097-1.114c-.26-.475-.39-1.021-.39-1.64 0-.666.129-1.245.385-1.734a2.808 2.808 0 0 1 1.068-1.148c.456-.271.984-.407 1.583-.407.633 0 1.17.149 1.61.447.446.294.775.71.99 1.249.215.539.296 1.174.243 1.905h-1.35v-.498c-.005-.663-.121-1.147-.351-1.452-.23-.305-.592-.458-1.086-.458-.557 0-.972.173-1.243.52-.271.343-.407.846-.407 1.51 0 .617.136 1.096.407 1.435.271.339.667.509 1.187.509.335 0 .624-.074.865-.22a1.47 1.47 0 0 0 .565-.65l1.345.406c-.233.55-.595.978-1.085 1.283a2.968 2.968 0 0 1-1.61.458zm-2.103-2.843v-1.029h4.2v1.029h-4.2zm8.897 2.843c-.596 0-1.095-.141-1.498-.424a2.595 2.595 0 0 1-.91-1.153 4.25 4.25 0 0 1-.306-1.645c0-.614.102-1.164.305-1.65.204-.486.502-.869.894-1.148.395-.282.883-.424 1.464-.424.576 0 1.076.142 1.498.424.425.279.755.662.989 1.148.233.482.35 1.032.35 1.65 0 .61-.115 1.159-.345 1.645-.23.486-.554.87-.972 1.153-.418.283-.908.424-1.47.424zm-2.945 2.544v-8.818h1.203v4.284h.17v4.534h-1.373zm2.735-3.765c.355 0 .647-.088.876-.265.23-.178.4-.417.51-.718.112-.306.169-.645.169-1.018 0-.37-.057-.705-.17-1.006a1.548 1.548 0 0 0-.525-.724c-.238-.18-.54-.27-.905-.27-.347 0-.63.084-.848.253-.218.166-.38.4-.486.701a3.235 3.235 0 0 0-.153 1.046c0 .396.051.744.153 1.046.106.301.27.537.492.706.226.166.522.25.887.25zm5.95 1.221c-.442 0-.815-.083-1.12-.249a1.759 1.759 0 0 1-.695-.672 1.87 1.87 0 0 1-.232-.922c0-.294.049-.557.147-.791a1.56 1.56 0 0 1 .452-.61 2.38 2.38 0 0 1 .791-.424c.245-.08.532-.151.86-.215.331-.064.69-.123 1.074-.175.388-.057.793-.117 1.215-.181l-.486.277c.004-.422-.09-.733-.283-.933-.192-.2-.516-.3-.972-.3-.275 0-.54.064-.797.193-.256.128-.435.348-.537.66l-1.244-.39c.151-.515.438-.93.86-1.243.425-.313.998-.469 1.718-.469.543 0 1.02.089 1.43.266.415.177.722.467.921.87.11.215.176.436.198.662.023.222.034.465.034.729v3.748h-1.192v-1.323l.197.215c-.275.44-.597.765-.966.972-.366.203-.824.305-1.374.305zm.27-1.085c.31 0 .573-.055.792-.164.218-.11.392-.243.52-.401.132-.159.22-.308.266-.447.071-.173.11-.371.118-.594.012-.226.017-.408.017-.548l.419.125c-.411.064-.764.12-1.057.17-.294.048-.547.095-.758.14a4.841 4.841 0 0 0-.56.142 1.73 1.73 0 0 0-.4.198.875.875 0 0 0-.255.26.677.677 0 0 0-.085.344c0 .151.038.285.113.402a.786.786 0 0 0 .328.271c.147.068.328.102.543.102zm4.536.915v-6.104h1.204v1.486l-.147-.192a2.18 2.18 0 0 1 .3-.554c.127-.17.28-.309.457-.418a2.237 2.237 0 0 1 1.063-.345c.192-.015.379-.007.56.023v1.272c-.181-.053-.39-.07-.628-.051a1.438 1.438 0 0 0-.633.197 1.424 1.424 0 0 0-.464.39c-.116.159-.203.34-.26.543a2.38 2.38 0 0 0-.084.65v3.103H95.51zm8.093 0a5.563 5.563 0 0 1-1.187.097 2.718 2.718 0 0 1-1.034-.21 1.432 1.432 0 0 1-.695-.638 1.82 1.82 0 0 1-.221-.809 36.853 36.853 0 0 1-.011-.932v-5.308h1.356v5.229c0 .245.002.46.006.644a.93.93 0 0 0 .119.452c.135.226.352.352.65.379a4.36 4.36 0 0 0 1.017-.045v1.141zm-4.256-5.036v-1.068h4.256v1.068h-4.256zm12.9 5.037v-3.709c0-.418-.103-.744-.31-.978-.208-.237-.489-.356-.843-.356-.218 0-.414.051-.588.153-.173.098-.31.245-.412.44a1.453 1.453 0 0 0-.153.69l-.605-.356a2.094 2.094 0 0 1 .283-1.113c.196-.324.46-.577.791-.758.332-.18.701-.27 1.108-.27.675 0 1.191.203 1.549.61.362.403.543.934.543 1.594v4.052h-1.363zm-7.342 0v-6.105h1.204v1.893h.169v4.212h-1.373zm3.68 0v-3.692c0-.425-.104-.757-.311-.995-.208-.237-.49-.356-.848-.356-.347 0-.626.12-.837.356-.207.238-.311.547-.311.927l-.61-.406c0-.396.098-.752.294-1.069a2.09 2.09 0 0 1 .791-.746 2.29 2.29 0 0 1 1.125-.277c.456 0 .837.098 1.142.294.309.192.539.456.689.791.155.332.232.707.232 1.125v4.047h-1.356zm9.175.17c-.618 0-1.161-.135-1.628-.402a2.853 2.853 0 0 1-1.096-1.114c-.26-.475-.391-1.021-.391-1.64 0-.666.129-1.245.385-1.734a2.806 2.806 0 0 1 1.068-1.148c.456-.271.984-.407 1.583-.407.633 0 1.17.149 1.611.447.445.294.774.71.989 1.249.215.539.296 1.174.243 1.905h-1.351v-.498c-.004-.663-.12-1.147-.35-1.452-.23-.305-.592-.458-1.086-.458-.557 0-.972.173-1.243.52-.271.343-.407.846-.407 1.51 0 .617.136 1.096.407 1.435.271.339.667.509 1.187.509.335 0 .624-.074.865-.22a1.47 1.47 0 0 0 .565-.65l1.345.406c-.233.55-.595.978-1.085 1.283a2.968 2.968 0 0 1-1.611.458zm-2.103-2.844v-1.029h4.2v1.029h-4.2zm10.185 2.674v-2.94c0-.192-.013-.405-.039-.639a2.226 2.226 0 0 0-.187-.672 1.273 1.273 0 0 0-.429-.537c-.189-.14-.445-.21-.769-.21a1.62 1.62 0 0 0-.515.085 1.18 1.18 0 0 0-.463.294 1.45 1.45 0 0 0-.328.566c-.083.237-.124.542-.124.915l-.809-.344c0-.52.1-.992.3-1.414a2.4 2.4 0 0 1 .893-1.006c.392-.252.874-.379 1.447-.379.452 0 .825.076 1.119.227.294.15.528.343.701.576.174.234.302.483.385.746.083.264.135.515.158.752.026.234.039.424.039.571v3.409h-1.379zm-4.234 0v-6.105h1.216v1.893h.164v4.212h-1.38zm10.667 0a5.568 5.568 0 0 1-1.187.096 2.72 2.72 0 0 1-1.035-.21 1.432 1.432 0 0 1-.695-.638 1.82 1.82 0 0 1-.221-.809 36.853 36.853 0 0 1-.011-.932v-5.308h1.357v5.229c0 .245.002.46.005.644a.93.93 0 0 0 .119.452c.136.226.352.352.65.379a4.37 4.37 0 0 0 1.018-.045v1.141zm-4.257-5.037v-1.068h4.257v1.068h-4.257z" fill="#1E1E2C"/><path d="M77.44 110.541v-7.235h4.572v.849h-3.678v2.266h3.075v.849h-3.075v2.422h3.678v.849H77.44zm9.644 0v-2.718a3.84 3.84 0 0 0-.07-.744 1.867 1.867 0 0 0-.237-.638 1.215 1.215 0 0 0-.452-.452c-.188-.111-.425-.166-.713-.166-.225 0-.43.039-.613.116a1.19 1.19 0 0 0-.468.341c-.13.154-.233.349-.306.583-.07.231-.106.504-.106.819l-.588-.181c0-.526.094-.976.282-1.351.19-.379.457-.669.799-.87.345-.204.75-.306 1.216-.306.351 0 .651.055.899.166.248.11.454.258.618.442.164.181.293.385.387.613.094.224.159.454.196.688.04.231.06.451.06.658v3h-.904zm-3.87 0v-5.426h.805v1.452h.1v3.974h-.904zm9.11 0c-.321.064-.64.089-.954.075a2.115 2.115 0 0 1-.835-.186 1.199 1.199 0 0 1-.557-.542 1.611 1.611 0 0 1-.176-.648 24.99 24.99 0 0 1-.01-.749v-4.884h.894v4.844c0 .221.002.41.005.568a.904.904 0 0 0 .106.407c.12.214.311.34.573.376.264.037.582.027.954-.03v.769zm-3.632-4.688v-.738h3.632v.738h-3.632zm6.86 4.839c-.533 0-.999-.117-1.397-.352a2.466 2.466 0 0 1-.925-.99c-.22-.425-.331-.921-.331-1.487 0-.593.109-1.105.326-1.538.218-.435.521-.77.91-1.004.392-.238.85-.357 1.376-.357.547 0 1.01.125 1.392.377.385.251.673.609.864 1.075.195.466.279 1.02.252 1.663h-.905v-.322c-.01-.666-.145-1.164-.407-1.492-.261-.331-.65-.497-1.165-.497-.553 0-.974.177-1.261.532-.289.355-.433.865-.433 1.528 0 .64.144 1.135.433 1.487.287.352.698.528 1.23.528.359 0 .67-.082.935-.247.265-.164.472-.4.623-.708l.86.296c-.212.479-.53.851-.955 1.116a2.649 2.649 0 0 1-1.422.392zm-2.005-2.613v-.718h4.01v.718h-4.01zm5.59 2.462v-5.426h.8v1.311l-.131-.171a2.04 2.04 0 0 1 .246-.462 1.56 1.56 0 0 1 .346-.347c.141-.114.3-.201.478-.261.177-.06.358-.096.542-.106.185-.013.357-.001.518.036v.839a1.69 1.69 0 0 0-.618-.041 1.26 1.26 0 0 0-.623.247c-.174.124-.31.274-.407.452-.094.177-.159.37-.196.578a3.51 3.51 0 0 0-.055.628v2.723h-.9zm7.891.151c-.506 0-.939-.126-1.301-.377a2.498 2.498 0 0 1-.839-1.03 3.534 3.534 0 0 1-.292-1.462c0-.543.098-1.03.292-1.462.197-.432.477-.772.839-1.02.362-.252.794-.377 1.296-.377.513 0 .943.124 1.292.372.348.248.611.588.788 1.02.181.432.272.921.272 1.467 0 .539-.091 1.026-.272 1.462-.177.432-.44.775-.788 1.03-.349.251-.778.377-1.287.377zm.111-.819c.365 0 .665-.087.899-.262.235-.177.407-.42.518-.728.114-.312.171-.665.171-1.06 0-.402-.057-.756-.171-1.06a1.494 1.494 0 0 0-.513-.719c-.231-.174-.524-.261-.879-.261-.369 0-.673.09-.915.271a1.627 1.627 0 0 0-.532.734 2.964 2.964 0 0 0-.171 1.035c0 .385.059.733.176 1.045.117.308.293.553.527.733.238.181.535.272.89.272zm1.588.668v-3.994h-.101v-3.241h.899v7.235h-.798zm4.558.151c-.533 0-.999-.117-1.397-.352a2.468 2.468 0 0 1-.925-.99c-.221-.425-.331-.921-.331-1.487 0-.593.109-1.105.326-1.538.218-.435.521-.77.91-1.004.392-.238.851-.357 1.376-.357.546 0 1.01.125 1.392.377.385.251.673.609.864 1.075.195.466.278 1.02.252 1.663h-.905v-.322c-.01-.666-.145-1.164-.407-1.492-.261-.331-.65-.497-1.165-.497-.553 0-.974.177-1.262.532-.288.355-.432.865-.432 1.528 0 .64.144 1.135.432 1.487.288.352.699.528 1.231.528.359 0 .67-.082.935-.247.265-.164.472-.4.623-.708l.859.296a2.438 2.438 0 0 1-.954 1.116 2.654 2.654 0 0 1-1.422.392zm-2.005-2.613v-.718h4.009v.718h-4.009zm7.935 2.613c-.509 0-.938-.126-1.286-.377a2.39 2.39 0 0 1-.794-1.03 3.854 3.854 0 0 1-.266-1.462c0-.546.089-1.035.266-1.467a2.32 2.32 0 0 1 .794-1.02c.352-.248.782-.372 1.291-.372.503 0 .935.125 1.297.377.365.248.644.588.839 1.02.194.432.291.919.291 1.462 0 .542-.097 1.03-.291 1.462a2.46 2.46 0 0 1-.839 1.03c-.362.251-.796.377-1.302.377zm-2.497 2.261v-7.838h.799v3.994h.1v3.844h-.899zm2.387-3.08c.358 0 .655-.091.889-.272.234-.18.41-.425.528-.733.117-.312.175-.66.175-1.045 0-.382-.058-.727-.175-1.035a1.579 1.579 0 0 0-.533-.734c-.238-.181-.541-.271-.909-.271-.352 0-.644.087-.875.261a1.52 1.52 0 0 0-.517.719 3.014 3.014 0 0 0-.171 1.06c0 .395.055.748.166 1.06.114.308.288.551.522.728.235.175.535.262.9.262zm5.186.819c-.405 0-.745-.074-1.02-.221a1.585 1.585 0 0 1-.618-.593 1.62 1.62 0 0 1-.206-.804c0-.285.054-.531.161-.739a1.43 1.43 0 0 1 .462-.522c.198-.141.434-.252.709-.332.257-.07.546-.131.864-.181.321-.053.646-.102.975-.145l.919-.126-.322.186c.01-.483-.087-.839-.291-1.07-.201-.232-.549-.347-1.045-.347-.328 0-.616.075-.864.226-.245.147-.417.389-.518.724l-.849-.257c.131-.475.384-.849.759-1.12.375-.272.869-.407 1.482-.407.492 0 .914.089 1.266.266.355.174.61.439.764.794.077.167.125.35.146.548.02.194.03.398.03.613v3.356h-.794v-1.301l.186.12c-.205.439-.491.771-.859.995-.366.225-.811.337-1.337.337zm.136-.749c.321 0 .599-.057.834-.171a1.59 1.59 0 0 0 .573-.457c.144-.191.237-.399.281-.623.05-.167.077-.353.08-.558.007-.207.01-.367.01-.477l.312.136-.859.115c-.282.037-.548.077-.799.121-.251.04-.477.089-.678.145a2.265 2.265 0 0 0-.418.181.952.952 0 0 0-.311.287.746.746 0 0 0-.116.427c0 .147.037.288.111.422a.846.846 0 0 0 .352.326c.16.084.37.126.628.126zm3.974.598v-5.426h.799v1.311l-.131-.171c.064-.167.146-.321.247-.462a1.54 1.54 0 0 1 .346-.347c.141-.114.3-.201.478-.261.177-.06.358-.096.542-.106.184-.013.357-.001.518.036v.839a1.69 1.69 0 0 0-.618-.041 1.257 1.257 0 0 0-.623.247c-.174.124-.31.274-.407.452-.094.177-.159.37-.196.578a3.51 3.51 0 0 0-.056.628v2.723h-.899zm6.779 0c-.322.064-.64.089-.955.075a2.111 2.111 0 0 1-.834-.186 1.196 1.196 0 0 1-.558-.542 1.613 1.613 0 0 1-.176-.648c-.006-.221-.01-.471-.01-.749v-4.884h.895v4.844c0 .221.001.41.005.568a.903.903 0 0 0 .105.407c.121.214.312.34.573.376.265.037.583.027.955-.03v.769zm-3.633-4.688v-.738h3.633v.738h-3.633zm11.221 4.688.005-3.472c0-.405-.109-.722-.327-.95-.214-.231-.494-.346-.839-.346-.201 0-.392.047-.573.14-.18.091-.328.235-.442.433-.114.194-.17.443-.17.748l-.473-.191a1.944 1.944 0 0 1 .236-1.01c.168-.291.396-.517.684-.678.288-.161.613-.241.974-.241.567 0 1.012.172 1.337.517.325.342.487.803.487 1.382l-.005 3.668h-.894zm-6.492 0v-5.426h.799v1.452h.101v3.974h-.9zm3.251 0 .005-3.437c0-.415-.107-.74-.321-.974-.215-.238-.499-.357-.855-.357-.351 0-.636.12-.854.362-.217.241-.326.561-.326.959l-.473-.281a1.772 1.772 0 0 1 .935-1.598c.288-.161.615-.241.98-.241s.683.077.954.231c.272.154.481.375.628.663.148.285.222.625.222 1.02l-.006 3.653h-.889zm7.751.151c-.532 0-.998-.117-1.396-.352a2.461 2.461 0 0 1-.925-.99c-.221-.425-.331-.921-.331-1.487 0-.593.108-1.105.326-1.538.218-.435.521-.77.91-1.004.391-.238.85-.357 1.376-.357.546 0 1.01.125 1.392.377.385.251.673.609.864 1.075.195.466.278 1.02.251 1.663h-.904v-.322c-.01-.666-.146-1.164-.407-1.492-.261-.331-.65-.497-1.166-.497-.552 0-.973.177-1.261.532-.288.355-.432.865-.432 1.528 0 .64.144 1.135.432 1.487.288.352.699.528 1.231.528.359 0 .67-.082.935-.247.264-.164.472-.4.623-.708l.859.296a2.434 2.434 0 0 1-.955 1.116 2.649 2.649 0 0 1-1.422.392zm-2.004-2.613v-.718h4.009v.718h-4.009zm9.307 2.462v-2.718c0-.258-.024-.506-.071-.744a1.852 1.852 0 0 0-.236-.638 1.21 1.21 0 0 0-.452-.452c-.188-.111-.425-.166-.713-.166-.225 0-.429.039-.613.116a1.195 1.195 0 0 0-.468.341c-.13.154-.232.349-.306.583a2.802 2.802 0 0 0-.106.819l-.588-.181c0-.526.094-.976.282-1.351a2.05 2.05 0 0 1 .799-.87c.345-.204.75-.306 1.216-.306.351 0 .651.055.899.166.248.11.454.258.618.442.164.181.293.385.387.613.094.224.159.454.196.688.04.231.06.451.06.658v3h-.904zm-3.869 0v-5.426h.804v1.452h.1v3.974h-.904zm9.109 0c-.321.064-.64.089-.954.075a2.111 2.111 0 0 1-.834-.186 1.196 1.196 0 0 1-.558-.542 1.613 1.613 0 0 1-.176-.648c-.007-.221-.01-.471-.01-.749v-4.884h.894v4.844c0 .221.002.41.005.568a.904.904 0 0 0 .106.407c.12.214.311.34.573.376.264.037.582.027.954-.03v.769zm-3.632-4.688v-.738h3.632v.738h-3.632z" fill="#AAA9C4"/><rect x="67.001" y="92.282" width="167.693" height="29.519" rx="4.71" stroke="#F2F4F7" stroke-width=".628"/><path d="m250.936 80.688 2.566-8.14h1.995l2.566 8.14h-1.401l-2.329-7.304h.305l-2.301 7.303h-1.401zm1.43-1.764v-1.272h4.273v1.272h-4.273zm9.009 1.939c-.453 0-.826-.076-1.12-.226a1.978 1.978 0 0 1-.7-.577 2.5 2.5 0 0 1-.385-.746 4.037 4.037 0 0 1-.164-.746 6.592 6.592 0 0 1-.034-.577v-3.408h1.38v2.94c0 .188.013.4.039.638.027.233.087.46.181.678.098.215.241.392.43.532.192.139.45.209.774.209.173 0 .345-.029.514-.085.17-.057.323-.153.458-.288.14-.14.251-.33.334-.571.083-.242.124-.547.124-.916l.808.345c0 .52-.101.99-.305 1.413-.2.422-.495.76-.887 1.012-.392.248-.875.373-1.447.373zm1.995-.175v-1.894h-.164v-4.211h1.368v6.105h-1.204zm6.37 0a5.563 5.563 0 0 1-1.187.096 2.718 2.718 0 0 1-1.034-.21 1.432 1.432 0 0 1-.695-.638 1.82 1.82 0 0 1-.221-.809 36.853 36.853 0 0 1-.011-.932v-5.308h1.356v5.229c0 .245.002.46.006.644a.93.93 0 0 0 .119.452c.135.226.352.352.65.379.297.026.637.011 1.017-.045v1.141zm-4.256-5.037v-1.068h4.256v1.068h-4.256zm9.791 5.037v-2.94c0-.192-.013-.405-.039-.639a2.226 2.226 0 0 0-.187-.672 1.273 1.273 0 0 0-.429-.537c-.189-.14-.445-.21-.769-.21-.173 0-.345.029-.514.085-.17.057-.325.155-.464.294a1.45 1.45 0 0 0-.328.566c-.083.237-.124.542-.124.915l-.808-.344c0-.52.099-.992.299-1.414.204-.422.501-.757.893-1.006.392-.252.875-.379 1.447-.379.452 0 .826.076 1.12.227.293.15.527.343.7.576.174.234.302.483.385.746.083.264.135.515.158.752.026.234.04.424.04.571v3.409h-1.38zm-4.233 0v-8.14h1.215v4.284h.164v3.856h-1.379zm9.863.17c-.618 0-1.161-.135-1.628-.402a2.853 2.853 0 0 1-1.096-1.114c-.26-.475-.39-1.021-.39-1.64 0-.666.128-1.245.384-1.734a2.806 2.806 0 0 1 1.068-1.148c.456-.271.984-.407 1.583-.407.633 0 1.17.149 1.611.447.445.294.774.71.989 1.249.215.539.296 1.174.243 1.905h-1.351v-.498c-.004-.663-.12-1.147-.35-1.452-.23-.305-.592-.458-1.086-.458-.557 0-.972.173-1.243.52-.271.343-.407.846-.407 1.51 0 .617.136 1.096.407 1.435.271.339.667.509 1.187.509.335 0 .624-.074.865-.22a1.47 1.47 0 0 0 .565-.65l1.345.406c-.233.55-.595.978-1.085 1.283a2.968 2.968 0 0 1-1.611.458zm-2.103-2.844v-1.029h4.2v1.029h-4.2zm10.185 2.674v-2.94c0-.192-.013-.405-.039-.639a2.226 2.226 0 0 0-.187-.672 1.273 1.273 0 0 0-.429-.537c-.189-.14-.445-.21-.769-.21a1.62 1.62 0 0 0-.515.085 1.18 1.18 0 0 0-.463.294 1.45 1.45 0 0 0-.328.566c-.083.237-.124.542-.124.915l-.809-.344c0-.52.1-.992.3-1.414a2.4 2.4 0 0 1 .893-1.006c.392-.252.874-.379 1.447-.379.452 0 .825.076 1.119.227.294.15.528.343.701.576.174.234.302.483.385.746.083.264.135.515.158.752.026.234.04.424.04.571v3.409h-1.38zm-4.233 0v-6.105h1.215v1.893h.164v4.212h-1.379zm10.666 0a5.568 5.568 0 0 1-1.187.096 2.72 2.72 0 0 1-1.035-.21 1.432 1.432 0 0 1-.695-.638 1.82 1.82 0 0 1-.221-.809 36.853 36.853 0 0 1-.011-.932v-5.308h1.357v5.229c0 .245.002.46.005.644a.941.941 0 0 0 .119.452c.136.226.352.352.65.379a4.37 4.37 0 0 0 1.018-.045v1.141zm-4.257-5.037v-1.068h4.257v1.068h-4.257zm5.682-1.995v-1.25h1.363v1.25h-1.363zm0 7.031v-6.104h1.363v6.105h-1.363zm5.707.17c-.629 0-1.166-.14-1.611-.418a2.78 2.78 0 0 1-1.023-1.153c-.234-.487-.353-1.037-.356-1.65.003-.626.126-1.18.367-1.663a2.776 2.776 0 0 1 1.04-1.142c.449-.278.982-.418 1.6-.418.693 0 1.279.175 1.758.526.482.347.797.821.944 1.424l-1.357.368a1.477 1.477 0 0 0-.526-.763 1.35 1.35 0 0 0-.836-.277c-.354 0-.646.084-.876.254-.23.166-.4.396-.509.69a2.863 2.863 0 0 0-.164 1c0 .58.13 1.05.39 1.408.26.358.646.537 1.159.537.362 0 .646-.083.853-.25.211-.165.37-.404.475-.717l1.391.31c-.189.623-.518 1.101-.989 1.437-.471.331-1.048.497-1.73.497zm5.459 0c-.441 0-.814-.083-1.119-.249a1.758 1.758 0 0 1-.695-.672 1.864 1.864 0 0 1-.232-.922c0-.294.049-.557.147-.791.098-.237.249-.44.452-.61a2.38 2.38 0 0 1 .792-.424c.244-.08.531-.151.859-.215.331-.064.689-.123 1.074-.175.388-.057.793-.117 1.215-.181l-.486.277c.004-.422-.091-.733-.283-.933-.192-.2-.516-.3-.972-.3a1.76 1.76 0 0 0-.797.193c-.256.128-.435.348-.537.66l-1.244-.39c.151-.515.438-.93.86-1.243.425-.313.998-.469 1.718-.469.543 0 1.019.089 1.43.266.415.177.722.467.921.87.11.215.176.436.198.662.023.222.034.465.034.729v3.748h-1.192v-1.323l.197.215c-.275.44-.597.765-.966.972-.366.203-.824.305-1.374.305zm.272-1.085c.309 0 .572-.055.791-.164.218-.11.392-.243.52-.401.132-.159.22-.308.266-.447.071-.173.111-.371.118-.594.012-.226.017-.408.017-.548l.419.125c-.411.064-.764.12-1.057.17-.294.048-.547.095-.758.14a4.908 4.908 0 0 0-.56.142 1.726 1.726 0 0 0-.401.198.873.873 0 0 0-.254.26.673.673 0 0 0-.085.344c0 .151.038.285.113.402a.785.785 0 0 0 .328.271c.147.068.328.102.543.102zm8.113.915a5.563 5.563 0 0 1-1.187.097 2.727 2.727 0 0 1-1.035-.21 1.432 1.432 0 0 1-.695-.638 1.818 1.818 0 0 1-.22-.809 32.407 32.407 0 0 1-.012-.932v-5.308h1.357v5.229c0 .245.002.46.006.644a.93.93 0 0 0 .118.452c.136.226.353.352.65.379a4.37 4.37 0 0 0 1.018-.045v1.141zm-4.256-5.036v-1.068h4.256v1.068h-4.256zm5.682-1.995v-1.25h1.362v1.25h-1.362zm0 7.031v-6.104h1.362v6.105h-1.362zm5.751.17c-.61 0-1.143-.138-1.599-.413a2.839 2.839 0 0 1-1.063-1.136c-.249-.486-.373-1.044-.373-1.673 0-.64.128-1.202.384-1.684.257-.483.613-.86 1.069-1.13.456-.272.983-.408 1.582-.408.615 0 1.15.138 1.606.413.456.275.81.656 1.062 1.142.253.482.379 1.038.379 1.667 0 .633-.128 1.193-.384 1.679a2.838 2.838 0 0 1-1.063 1.136c-.456.271-.989.407-1.6.407zm0-1.277c.543 0 .946-.181 1.21-.543.264-.362.396-.83.396-1.402 0-.592-.134-1.063-.402-1.413-.267-.354-.668-.531-1.204-.531-.365 0-.667.082-.904.248-.234.162-.407.39-.52.684-.113.29-.17.628-.17 1.012 0 .592.134 1.065.402 1.419.271.35.669.526 1.192.526zm8.515 1.108v-2.94c0-.192-.013-.405-.04-.639a2.196 2.196 0 0 0-.186-.672 1.268 1.268 0 0 0-.43-.537c-.188-.14-.444-.21-.768-.21a1.62 1.62 0 0 0-.515.085 1.18 1.18 0 0 0-.463.294 1.45 1.45 0 0 0-.328.566c-.083.237-.124.542-.124.915l-.809-.344c0-.52.1-.992.3-1.414a2.4 2.4 0 0 1 .893-1.006c.392-.252.874-.379 1.447-.379.452 0 .825.076 1.119.227.294.15.528.343.701.576.173.234.302.483.384.746.083.264.136.515.159.752.026.234.039.424.039.571v3.409h-1.379zm-4.234 0v-6.105h1.216v1.893h.164v4.212h-1.38zM70.921 154.348c-.814 0-1.51-.177-2.091-.531a3.548 3.548 0 0 1-1.34-1.492c-.309-.637-.463-1.376-.463-2.216 0-.84.154-1.579.463-2.216a3.517 3.517 0 0 1 1.34-1.487c.58-.358 1.277-.537 2.091-.537.939 0 1.72.236 2.346.707.626.467 1.065 1.098 1.317 1.894l-1.373.378c-.159-.531-.428-.946-.809-1.243-.38-.302-.874-.452-1.48-.452-.547 0-1.003.122-1.369.367a2.26 2.26 0 0 0-.82 1.034c-.18.441-.273.959-.276 1.555 0 .595.09 1.115.271 1.56.185.441.46.784.825 1.029.366.245.822.367 1.368.367.607 0 1.1-.151 1.481-.452.38-.302.65-.716.809-1.244l1.373.379c-.252.795-.691 1.428-1.317 1.899-.626.468-1.407.701-2.346.701zm9.127-.169v-2.94a5.71 5.71 0 0 0-.04-.638 2.209 2.209 0 0 0-.186-.673 1.27 1.27 0 0 0-.43-.537c-.188-.139-.445-.209-.769-.209-.173 0-.345.028-.514.085a1.17 1.17 0 0 0-.464.294 1.45 1.45 0 0 0-.328.565c-.082.237-.124.542-.124.916l-.808-.345c0-.52.1-.991.3-1.413a2.41 2.41 0 0 1 .892-1.007c.392-.252.875-.378 1.448-.378.452 0 .825.075 1.119.226.294.151.527.343.7.576.174.234.302.483.385.747.083.263.136.514.158.751.027.234.04.424.04.571v3.409h-1.38zm-4.234 0v-8.14h1.215v4.285h.164v3.855h-1.38zm9.784.169c-.61 0-1.144-.137-1.6-.412a2.832 2.832 0 0 1-1.062-1.137c-.249-.486-.373-1.043-.373-1.673 0-.64.128-1.202.384-1.684a2.842 2.842 0 0 1 1.069-1.131c.456-.271.983-.407 1.582-.407.615 0 1.15.138 1.606.413.456.275.81.656 1.062 1.142.253.482.379 1.038.379 1.667 0 .633-.128 1.193-.384 1.679a2.835 2.835 0 0 1-1.063 1.136c-.456.272-.99.407-1.6.407zm0-1.277c.543 0 .946-.181 1.21-.543.264-.362.396-.829.396-1.402 0-.591-.134-1.062-.402-1.413-.267-.354-.669-.531-1.204-.531-.365 0-.667.083-.904.249-.234.162-.407.39-.52.684-.113.29-.17.627-.17 1.011 0 .592.134 1.065.401 1.419.272.351.67.526 1.193.526zm6.989 1.277c-.61 0-1.144-.137-1.6-.412a2.832 2.832 0 0 1-1.063-1.137c-.248-.486-.373-1.043-.373-1.673 0-.64.128-1.202.385-1.684a2.842 2.842 0 0 1 1.068-1.131c.456-.271.983-.407 1.583-.407.614 0 1.149.138 1.605.413.456.275.81.656 1.063 1.142.252.482.378 1.038.378 1.667 0 .633-.128 1.193-.384 1.679a2.835 2.835 0 0 1-1.063 1.136c-.456.272-.989.407-1.6.407zm0-1.277c.542 0 .945-.181 1.21-.543.263-.362.395-.829.395-1.402 0-.591-.134-1.062-.401-1.413-.268-.354-.67-.531-1.204-.531-.366 0-.667.083-.905.249-.233.162-.407.39-.52.684-.113.29-.17.627-.17 1.011 0 .592.134 1.065.402 1.419.271.351.669.526 1.193.526zm6.505 1.277c-.753 0-1.366-.169-1.837-.508-.47-.34-.757-.816-.859-1.431l1.39-.214c.072.301.23.539.475.712.245.173.554.26.928.26.327 0 .58-.064.757-.192a.63.63 0 0 0 .271-.537.51.51 0 0 0-.102-.334c-.064-.086-.207-.169-.43-.248-.221-.08-.563-.179-1.022-.3-.513-.136-.92-.281-1.221-.435-.302-.159-.518-.345-.65-.56a1.464 1.464 0 0 1-.198-.78c0-.381.1-.712.3-.995.2-.282.478-.499.836-.65.358-.154.78-.232 1.266-.232.475 0 .895.074 1.261.221.369.147.667.356.893.627.226.272.365.59.418.956l-1.39.248a.877.877 0 0 0-.356-.616c-.2-.151-.468-.235-.803-.254-.32-.019-.579.03-.775.147-.195.113-.293.273-.293.48 0 .117.04.217.118.3.08.083.238.166.475.248.241.083.6.185 1.074.306.486.124.874.267 1.165.429.293.159.504.349.633.571.131.223.197.492.197.809 0 .614-.224 1.096-.672 1.447-.445.35-1.061.525-1.849.525zm6.535 0c-.618 0-1.161-.133-1.628-.401a2.865 2.865 0 0 1-1.097-1.114c-.26-.474-.39-1.021-.39-1.639 0-.667.128-1.245.385-1.735a2.809 2.809 0 0 1 1.068-1.148c.456-.271.984-.407 1.583-.407.633 0 1.17.149 1.611.447.444.294.774.71.989 1.249.215.539.296 1.174.243 1.905h-1.351v-.497c-.004-.664-.121-1.148-.35-1.453-.23-.305-.592-.458-1.086-.458-.557 0-.972.173-1.243.52-.272.343-.407.846-.407 1.509 0 .618.135 1.097.407 1.436.271.339.667.509 1.187.509.335 0 .623-.074.865-.221.245-.15.433-.367.565-.65l1.345.407c-.233.55-.595.978-1.085 1.283a2.962 2.962 0 0 1-1.611.458zm-2.103-2.843v-1.029h4.2v1.029h-4.2zm10.099 2.843c-.441 0-.814-.083-1.12-.248a1.76 1.76 0 0 1-.695-.673 1.875 1.875 0 0 1-.232-.921c0-.294.049-.558.147-.792.098-.237.249-.441.452-.61.204-.174.468-.315.792-.424.245-.079.531-.151.859-.215.332-.064.69-.122 1.074-.175a262.7 262.7 0 0 0 1.215-.181l-.486.277c.004-.422-.09-.733-.282-.933-.193-.2-.517-.299-.973-.299-.275 0-.54.064-.797.192-.256.128-.435.348-.537.661l-1.243-.39c.151-.516.437-.931.859-1.243.426-.313.999-.47 1.718-.47.543 0 1.02.089 1.43.266.415.177.722.467.922.871.109.214.175.435.198.661.022.222.034.465.034.729v3.748h-1.193v-1.323l.198.215c-.275.441-.598.765-.967.972-.365.204-.823.305-1.373.305zm.271-1.085c.309 0 .573-.055.791-.164.219-.109.392-.243.52-.401.132-.159.221-.307.266-.447.072-.173.111-.371.119-.593.011-.226.017-.409.017-.549l.418.125c-.411.064-.763.12-1.057.169-.294.049-.547.096-.758.142a4.68 4.68 0 0 0-.559.141 1.711 1.711 0 0 0-.402.198.87.87 0 0 0-.254.26.684.684 0 0 0-.085.345c0 .15.038.284.113.401a.793.793 0 0 0 .328.271c.147.068.328.102.543.102zm7.186 1.085c-.629 0-1.166-.139-1.611-.418a2.796 2.796 0 0 1-1.023-1.153c-.234-.486-.352-1.036-.356-1.651.004-.625.126-1.179.367-1.662a2.77 2.77 0 0 1 1.041-1.141c.448-.279.981-.419 1.599-.419.694 0 1.28.176 1.758.526.482.347.797.822.944 1.425l-1.357.367a1.475 1.475 0 0 0-.525-.763 1.352 1.352 0 0 0-.837-.277c-.354 0-.646.085-.876.254-.23.166-.399.396-.509.69a2.861 2.861 0 0 0-.164 1c0 .581.13 1.05.39 1.408.26.358.647.537 1.159.537.362 0 .646-.083.854-.249.211-.166.369-.405.475-.718l1.39.311c-.188.622-.518 1.1-.989 1.436-.471.331-1.048.497-1.73.497zm7.43-.169a5.608 5.608 0 0 1-1.187.096 2.731 2.731 0 0 1-1.035-.209 1.436 1.436 0 0 1-.695-.639 1.818 1.818 0 0 1-.22-.808 32.409 32.409 0 0 1-.012-.933v-5.308h1.357v5.229c0 .245.002.46.006.644a.926.926 0 0 0 .118.452c.136.226.353.353.65.379a4.42 4.42 0 0 0 1.018-.045v1.142zm-4.256-5.037v-1.068h4.256v1.068h-4.256zm5.682-1.995v-1.249h1.362v1.249h-1.362zm0 7.032v-6.105h1.362v6.105h-1.362zm5.751.169c-.61 0-1.143-.137-1.599-.412a2.836 2.836 0 0 1-1.063-1.137c-.249-.486-.373-1.043-.373-1.673 0-.64.128-1.202.384-1.684a2.849 2.849 0 0 1 1.069-1.131c.456-.271.983-.407 1.582-.407.615 0 1.15.138 1.606.413.456.275.81.656 1.062 1.142.253.482.379 1.038.379 1.667 0 .633-.128 1.193-.384 1.679a2.84 2.84 0 0 1-1.063 1.136c-.456.272-.989.407-1.6.407zm0-1.277c.543 0 .946-.181 1.21-.543.264-.362.396-.829.396-1.402 0-.591-.134-1.062-.402-1.413-.267-.354-.668-.531-1.204-.531-.365 0-.667.083-.904.249-.234.162-.407.39-.52.684-.113.29-.17.627-.17 1.011 0 .592.134 1.065.402 1.419.271.351.669.526 1.192.526zm8.515 1.108v-2.94c0-.192-.013-.405-.04-.638a2.196 2.196 0 0 0-.186-.673 1.263 1.263 0 0 0-.43-.537c-.188-.139-.444-.209-.768-.209-.174 0-.345.028-.515.085a1.168 1.168 0 0 0-.463.294 1.447 1.447 0 0 0-.328.565c-.083.237-.125.542-.125.916l-.808-.345c0-.52.1-.991.3-1.413.203-.422.501-.758.893-1.007.392-.252.874-.378 1.447-.378.452 0 .825.075 1.119.226.294.151.528.343.701.576.173.234.301.483.384.747.083.263.136.514.159.751.026.234.039.424.039.571v3.409h-1.379zm-4.234 0v-6.105h1.216v1.894h.163v4.211h-1.379z" fill="#1E1E2C"/><path d="m79.208 184.032-2.421-7.235h.93l2.104 6.286 2.126-6.286h.93l-2.422 7.235h-1.247zm4.328-6.386v-.924h.895v.924h-.895zm0 6.386v-5.426h.895v5.426h-.895zm4.754.151c-.533 0-.999-.117-1.397-.352a2.465 2.465 0 0 1-.925-.99c-.22-.425-.331-.921-.331-1.487 0-.593.109-1.105.326-1.537.218-.436.521-.771.91-1.005.392-.238.85-.357 1.376-.357.547 0 1.01.126 1.392.377.385.251.674.61.864 1.075.195.466.279 1.02.252 1.663h-.905v-.321c-.01-.667-.145-1.164-.407-1.493-.261-.331-.65-.497-1.165-.497-.553 0-.973.177-1.261.533-.289.355-.433.864-.433 1.527 0 .64.144 1.136.433 1.487.288.352.698.528 1.23.528.359 0 .67-.082.935-.246.265-.165.472-.401.623-.709l.86.297c-.212.479-.53.85-.955 1.115a2.649 2.649 0 0 1-1.422.392zm-2.005-2.613v-.718h4.01v.718h-4.01zm6.55 2.462-1.658-5.431.889.005 1.21 3.969 1.222-3.969h.789l1.216 3.969 1.216-3.969h.884l-1.658 5.426H96.2l-1.311-4.125-1.312 4.125h-.743z" fill="#AAA9C4"/><path d="m223.076 179.59-3.141 3.14-3.14-3.14" stroke="#AAA9C4" stroke-width="1.256"/><rect x="67.001" y="165.773" width="167.693" height="29.519" rx="4.71" stroke="#F2F4F7" stroke-width=".628"/><path d="M71.234 227.677c-.814 0-1.511-.177-2.092-.531a3.548 3.548 0 0 1-1.34-1.492c-.308-.637-.463-1.376-.463-2.216 0-.84.155-1.579.464-2.216a3.509 3.509 0 0 1 1.34-1.486c.58-.358 1.277-.537 2.09-.537.94 0 1.721.235 2.347.706.625.467 1.064 1.099 1.317 1.894l-1.374.378c-.158-.531-.428-.945-.808-1.243-.38-.302-.874-.452-1.481-.452-.547 0-1.003.122-1.368.367-.362.245-.635.59-.82 1.035-.18.44-.273.959-.277 1.554 0 .595.09 1.115.272 1.56.184.441.46.784.825 1.029.365.245.821.367 1.368.367.607 0 1.1-.15 1.48-.452.381-.301.65-.716.81-1.244l1.373.379c-.253.795-.692 1.428-1.317 1.899-.626.468-1.408.701-2.346.701zm5.706 2.544 1.176-3.228.023.95-2.663-6.54h1.42l1.887 4.839h-.362l1.837-4.839h1.363l-3.403 8.818H76.94zm7.954-2.544c-.63 0-1.166-.139-1.611-.418a2.787 2.787 0 0 1-1.023-1.153c-.234-.486-.353-1.036-.356-1.651.004-.625.126-1.179.367-1.661a2.767 2.767 0 0 1 1.04-1.142c.449-.279.982-.419 1.6-.419.693 0 1.28.176 1.758.526.482.347.797.822.944 1.425l-1.357.367a1.48 1.48 0 0 0-.525-.763 1.352 1.352 0 0 0-.837-.277c-.354 0-.646.085-.876.254-.23.166-.4.396-.509.69-.11.294-.164.627-.164 1 0 .581.13 1.05.39 1.408.26.358.647.537 1.159.537.362 0 .646-.083.853-.249.212-.166.37-.405.475-.718l1.39.311c-.188.622-.517 1.101-.988 1.436-.471.332-1.048.497-1.73.497zm3.799-.169v-8.309h1.362v8.309h-1.362zm5.83.169c-.617 0-1.16-.133-1.627-.401a2.858 2.858 0 0 1-1.097-1.113c-.26-.475-.39-1.022-.39-1.64 0-.667.128-1.245.385-1.735a2.812 2.812 0 0 1 1.068-1.148c.456-.271.984-.407 1.583-.407.633 0 1.17.149 1.61.447.445.294.775.71.99 1.249.215.539.296 1.174.243 1.905h-1.351v-.497c-.004-.664-.12-1.148-.35-1.453-.23-.305-.592-.458-1.086-.458-.557 0-.972.174-1.243.52-.272.343-.407.846-.407 1.509 0 .618.135 1.097.407 1.436.271.339.667.509 1.187.509.335 0 .623-.074.865-.221.245-.15.433-.367.565-.65l1.345.407a2.729 2.729 0 0 1-1.085 1.284 2.97 2.97 0 0 1-1.611.457zm-2.102-2.843v-1.029h4.2v1.029h-4.2zm11.088 2.843c-.611 0-1.144-.137-1.6-.412a2.84 2.84 0 0 1-1.063-1.136c-.248-.487-.373-1.044-.373-1.674 0-.64.128-1.202.385-1.684a2.84 2.84 0 0 1 1.068-1.131c.456-.271.984-.407 1.583-.407.614 0 1.149.138 1.605.413.456.275.81.656 1.063 1.142.252.482.378 1.038.378 1.667 0 .634-.128 1.193-.384 1.679a2.826 2.826 0 0 1-1.063 1.136c-.456.272-.989.407-1.599.407zm0-1.277c.542 0 .946-.181 1.209-.543.264-.361.396-.829.396-1.402 0-.591-.134-1.062-.401-1.413-.268-.354-.669-.531-1.204-.531-.366 0-.667.083-.905.249-.233.162-.407.39-.52.684-.113.29-.169.627-.169 1.011 0 .592.133 1.065.401 1.419.271.351.669.526 1.193.526zm4.292 1.108v-6.105h1.204v1.487l-.147-.193c.075-.203.175-.388.299-.553a1.69 1.69 0 0 1 .458-.419c.151-.102.317-.181.498-.237.184-.06.373-.096.565-.108.192-.015.379-.007.56.023v1.272a1.74 1.74 0 0 0-.628-.051 1.445 1.445 0 0 0-.633.198 1.426 1.426 0 0 0-.463.39 1.627 1.627 0 0 0-.26.543 2.355 2.355 0 0 0-.085.65v3.103h-1.368zm6.852.169c-.561 0-1.051-.141-1.469-.424a2.798 2.798 0 0 1-.972-1.153c-.23-.486-.345-1.034-.345-1.645 0-.618.115-1.168.345-1.65.233-.486.563-.869.989-1.148.426-.282.927-.424 1.503-.424.581 0 1.067.142 1.459.424.395.279.695.662.898 1.148.204.486.306 1.036.306 1.65 0 .607-.102 1.155-.306 1.645a2.583 2.583 0 0 1-.91 1.153c-.403.283-.902.424-1.498.424zm.21-1.221c.365 0 .659-.082.881-.248.227-.17.39-.405.492-.707.106-.301.158-.65.158-1.046 0-.399-.052-.748-.158-1.045a1.424 1.424 0 0 0-.48-.701c-.219-.17-.501-.255-.848-.255-.366 0-.667.091-.905.272a1.548 1.548 0 0 0-.525.723 2.85 2.85 0 0 0-.17 1.006c0 .373.055.713.164 1.018.113.301.285.541.514.718.23.177.522.265.877.265zm1.531 1.052v-4.285h-.169v-3.855h1.373v8.14h-1.204zm5.565.169c-.618 0-1.161-.133-1.628-.401a2.856 2.856 0 0 1-1.097-1.113c-.26-.475-.39-1.022-.39-1.64 0-.667.128-1.245.385-1.735a2.809 2.809 0 0 1 1.068-1.148c.456-.271.983-.407 1.583-.407.633 0 1.17.149 1.611.447.444.294.774.71.989 1.249.215.539.296 1.174.243 1.905h-1.351v-.497c-.004-.664-.121-1.148-.351-1.453-.23-.305-.591-.458-1.085-.458-.558 0-.972.174-1.243.52-.272.343-.407.846-.407 1.509 0 .618.135 1.097.407 1.436.271.339.667.509 1.187.509.335 0 .623-.074.864-.221.245-.15.434-.367.566-.65l1.345.407a2.73 2.73 0 0 1-1.085 1.284 2.97 2.97 0 0 1-1.611.457zm-2.103-2.843v-1.029h4.2v1.029h-4.2zm6.128 2.674v-6.105h1.204v1.487l-.147-.193c.075-.203.175-.388.3-.553.128-.17.28-.309.457-.419.151-.102.317-.181.498-.237.185-.06.373-.096.565-.108.192-.015.379-.007.56.023v1.272a1.74 1.74 0 0 0-.628-.051 1.445 1.445 0 0 0-.633.198 1.426 1.426 0 0 0-.463.39 1.627 1.627 0 0 0-.26.543 2.355 2.355 0 0 0-.085.65v3.103h-1.368z" fill="#1E1E2C"/><path d="M79.013 257.361v-6.245l-1.361.824v-1l1.361-.814h.91v7.235h-.91z" fill="#AAA9C4"/><path d="m223.388 252.919-3.14 3.141-3.141-3.141" stroke="#AAA9C4" stroke-width="1.256"/><rect x="67.314" y="239.102" width="167.693" height="29.519" rx="4.71" stroke="#F2F4F7" stroke-width=".628"/><path d="M67.479 300.508v-8.14h2.594c.068 0 .202.002.402.006.203.004.4.017.588.039.644.083 1.188.313 1.633.69.449.373.788.85 1.018 1.43.23.58.344 1.215.344 1.905s-.115 1.325-.344 1.905a3.546 3.546 0 0 1-1.018 1.436c-.445.373-.989.601-1.633.684a5.907 5.907 0 0 1-.583.039c-.203.004-.339.006-.407.006H67.48zm1.385-1.283h1.21c.112 0 .256-.004.429-.012.177-.007.334-.024.47-.05.383-.072.696-.244.938-.515.24-.271.418-.601.53-.989.118-.388.176-.795.176-1.221 0-.441-.058-.855-.175-1.244a2.441 2.441 0 0 0-.543-.977 1.633 1.633 0 0 0-.927-.504 2.371 2.371 0 0 0-.469-.05 9.649 9.649 0 0 0-.43-.012h-1.21v5.574zm9.306 1.452c-.618 0-1.16-.133-1.628-.401a2.858 2.858 0 0 1-1.097-1.113c-.26-.475-.39-1.022-.39-1.64 0-.667.129-1.245.385-1.735a2.81 2.81 0 0 1 1.068-1.148c.456-.271.984-.407 1.583-.407.633 0 1.17.149 1.61.447.446.294.775.71.99 1.249.215.539.296 1.174.243 1.905h-1.35v-.497c-.005-.664-.121-1.148-.351-1.453-.23-.305-.592-.458-1.086-.458-.557 0-.972.174-1.243.52-.271.343-.407.846-.407 1.509 0 .618.136 1.097.407 1.436.271.339.667.509 1.187.509.335 0 .624-.074.865-.221.245-.15.433-.367.565-.65l1.345.407a2.728 2.728 0 0 1-1.085 1.284 2.97 2.97 0 0 1-1.61.457zm-2.103-2.843v-1.029h4.2v1.029h-4.2zm7.725 2.843c-.44 0-.814-.083-1.12-.248a1.762 1.762 0 0 1-.694-.673 1.87 1.87 0 0 1-.232-.921c0-.294.049-.558.147-.792.098-.237.248-.441.452-.61.204-.174.467-.315.791-.424.245-.079.532-.151.86-.215.331-.064.69-.122 1.074-.175.388-.057.793-.117 1.215-.181l-.486.277c.003-.422-.09-.733-.283-.933-.192-.199-.516-.299-.972-.299-.275 0-.54.064-.797.192-.256.128-.435.348-.537.661l-1.244-.39c.151-.516.437-.931.86-1.243.425-.313.998-.47 1.718-.47.543 0 1.02.089 1.43.266.414.177.722.467.921.871.11.214.175.435.198.661.023.222.034.465.034.729v3.748h-1.193v-1.323l.198.215c-.275.441-.597.765-.966.972-.366.204-.824.305-1.374.305zm.271-1.085c.31 0 .573-.055.792-.164.218-.109.392-.243.52-.401.132-.158.22-.307.265-.447.072-.173.112-.371.12-.593.01-.226.016-.409.016-.549l.418.125c-.41.064-.763.12-1.057.169-.294.049-.546.096-.757.142a4.696 4.696 0 0 0-.56.141 1.765 1.765 0 0 0-.401.198.871.871 0 0 0-.254.26.679.679 0 0 0-.085.345c0 .15.038.284.113.401a.78.78 0 0 0 .328.271c.147.068.328.102.542.102zm6.983 1.085c-.561 0-1.051-.141-1.47-.424a2.803 2.803 0 0 1-.972-1.153c-.23-.486-.344-1.034-.344-1.645 0-.618.114-1.168.344-1.65a2.78 2.78 0 0 1 .99-1.148c.425-.282.927-.424 1.503-.424.58 0 1.067.142 1.459.424.395.279.695.662.898 1.148.204.486.306 1.036.306 1.65a4.25 4.25 0 0 1-.306 1.645 2.592 2.592 0 0 1-.91 1.153c-.403.283-.902.424-1.498.424zm.21-1.221c.365 0 .659-.082.881-.248.226-.17.39-.405.492-.707.105-.301.158-.65.158-1.046 0-.399-.053-.748-.158-1.045a1.42 1.42 0 0 0-.48-.701c-.22-.17-.502-.255-.848-.255-.366 0-.667.091-.905.272a1.547 1.547 0 0 0-.525.723c-.114.302-.17.637-.17 1.006 0 .373.055.713.164 1.018.113.301.284.541.514.718.23.177.522.265.876.265zm1.531 1.052v-4.285h-.17v-3.855h1.374v8.14h-1.204zm2.902 0v-8.309h1.362v8.309H95.69zm3.169-7.032v-1.249h1.362v1.249h-1.362zm0 7.032v-6.105h1.362v6.105h-1.362zm7.278 0v-2.94c0-.192-.014-.405-.04-.638a2.198 2.198 0 0 0-.187-.673 1.28 1.28 0 0 0-.429-.537c-.189-.139-.445-.209-.769-.209a1.6 1.6 0 0 0-.514.085c-.17.056-.324.154-.464.294a1.46 1.46 0 0 0-.328.565c-.083.237-.124.543-.124.916l-.808-.345c0-.52.1-.991.299-1.413.204-.422.501-.758.893-1.006.392-.253.875-.379 1.447-.379.453 0 .826.075 1.12.226.294.151.527.343.701.576.173.234.301.483.384.747.083.263.136.514.158.751.027.234.04.424.04.571v3.409h-1.379zm-4.234 0v-6.105h1.215v1.894h.164v4.211h-1.379zm9.764.169c-.618 0-1.161-.133-1.628-.401a2.863 2.863 0 0 1-1.097-1.113c-.26-.475-.39-1.022-.39-1.64 0-.667.128-1.245.385-1.735a2.809 2.809 0 0 1 1.068-1.148c.456-.271.984-.407 1.583-.407.633 0 1.17.149 1.611.447.444.294.774.71.989 1.249.215.539.296 1.174.243 1.905h-1.351v-.497c-.004-.664-.121-1.148-.35-1.453-.23-.305-.592-.458-1.086-.458-.557 0-.972.174-1.243.52-.272.343-.407.846-.407 1.509 0 .618.135 1.097.407 1.436.271.339.667.509 1.187.509.335 0 .623-.074.865-.221.245-.15.433-.367.565-.65l1.345.407a2.724 2.724 0 0 1-1.085 1.284 2.97 2.97 0 0 1-1.611.457zm-2.103-2.843v-1.029h4.2v1.029h-4.2z" fill="#1E1E2C"/><path d="m77.239 330.356.005-.804 3.21-2.889c.268-.241.448-.469.538-.683.094-.218.14-.441.14-.668a1.5 1.5 0 0 0-.19-.754 1.43 1.43 0 0 0-1.266-.729 1.495 1.495 0 0 0-1.301.744c-.128.225-.19.469-.187.734h-.914c0-.456.105-.858.317-1.206.21-.352.497-.627.859-.824a2.53 2.53 0 0 1 1.24-.302c.45 0 .852.104 1.207.312.355.204.634.484.839.839.207.352.311.75.311 1.196 0 .315-.04.588-.12.819a1.987 1.987 0 0 1-.362.643c-.164.194-.37.402-.618.623l-2.668 2.397-.116-.302h3.884v.854H77.24zm6.392.005 2.603-6.376h-3.286v-.859h4.246v.859l-2.598 6.376h-.965zm4.43 0v-.984h.985v.984h-.984zm4.99.151c-.469 0-.887-.105-1.256-.316a2.41 2.41 0 0 1-.869-.87 2.48 2.48 0 0 1-.317-1.256v-2.653c0-.469.106-.887.317-1.256.214-.368.504-.658.87-.869a2.483 2.483 0 0 1 1.255-.317c.47 0 .888.106 1.257.317.368.211.658.501.869.869.21.369.316.787.316 1.256v2.653c0 .469-.105.888-.316 1.256a2.36 2.36 0 0 1-.87.87 2.482 2.482 0 0 1-1.256.316zm0-.859c.285 0 .543-.069.774-.206a1.56 1.56 0 0 0 .553-.553c.137-.234.206-.492.206-.774v-2.758c0-.285-.069-.543-.206-.774a1.567 1.567 0 0 0-.553-.553 1.489 1.489 0 0 0-.774-.206c-.281 0-.539.069-.773.206a1.567 1.567 0 0 0-.553.553 1.485 1.485 0 0 0-.206.774v2.758c0 .282.069.54.206.774.137.231.321.416.553.553.234.137.492.206.773.206zm6.316.859a2.41 2.41 0 0 1-1.251-.332 2.473 2.473 0 0 1-.89-.904 2.596 2.596 0 0 1-.326-1.301v-2.407c0-.506.109-.953.326-1.342.222-.391.523-.696.905-.914a2.598 2.598 0 0 1 1.316-.332c.399 0 .769.082 1.111.247.345.16.634.393.869.698l-.668.593a1.57 1.57 0 0 0-.563-.503 1.56 1.56 0 0 0-.749-.186c-.318 0-.601.078-.849.232-.244.15-.437.351-.578.603-.14.247-.21.515-.21.803v1.453l-.197-.222c.211-.301.48-.542.804-.723a2.132 2.132 0 0 1 1.055-.271 2.313 2.313 0 0 1 2.05 1.175c.208.359.312.762.312 1.211 0 .449-.112.856-.337 1.221a2.519 2.519 0 0 1-.899.874 2.39 2.39 0 0 1-1.231.327zm0-.864c.288 0 .55-.069.789-.206a1.556 1.556 0 0 0 .774-1.352 1.52 1.52 0 0 0-.212-.789 1.508 1.508 0 0 0-.562-.562 1.493 1.493 0 0 0-.784-.211 1.564 1.564 0 0 0-1.352.773c-.14.238-.21.501-.21.789 0 .285.068.546.205.784.141.235.329.422.563.563.238.141.5.211.789.211zm3.935.713v-.984h.985v.984h-.985zm2.347-.005.005-.804 3.21-2.889c.268-.241.448-.469.538-.683.094-.218.141-.441.141-.668 0-.278-.064-.53-.191-.754a1.43 1.43 0 0 0-1.266-.729 1.494 1.494 0 0 0-1.302.744 1.432 1.432 0 0 0-.186.734h-.914c0-.456.105-.858.316-1.206.212-.352.498-.627.86-.824a2.528 2.528 0 0 1 1.241-.302c.449 0 .851.104 1.206.312a2.313 2.313 0 0 1 1.15 2.035c0 .315-.04.588-.12.819a1.99 1.99 0 0 1-.362.643c-.164.194-.37.402-.618.623l-2.668 2.397-.116-.302h3.884v.854h-4.808zm8.452.156c-.469 0-.887-.105-1.256-.316a2.408 2.408 0 0 1-.869-.87 2.48 2.48 0 0 1-.317-1.256v-2.653c0-.469.106-.887.317-1.256.214-.368.504-.658.869-.869a2.483 2.483 0 0 1 1.256-.317c.469 0 .888.106 1.256.317.369.211.659.501.87.869.211.369.316.787.316 1.256v2.653c0 .469-.105.888-.316 1.256a2.358 2.358 0 0 1-.87.87 2.48 2.48 0 0 1-1.256.316zm0-.859c.285 0 .543-.069.774-.206.231-.137.415-.322.553-.553.137-.234.206-.492.206-.774v-2.758c0-.285-.069-.543-.206-.774a1.575 1.575 0 0 0-.553-.553 1.489 1.489 0 0 0-.774-.206 1.51 1.51 0 0 0-.774.206 1.564 1.564 0 0 0-.552.553 1.48 1.48 0 0 0-.206.774v2.758c0 .282.068.54.206.774.137.231.321.416.552.553.235.137.493.206.774.206zm3.648.703.005-.804 3.21-2.889c.268-.241.448-.469.538-.683.094-.218.141-.441.141-.668 0-.278-.064-.53-.191-.754a1.43 1.43 0 0 0-1.266-.729 1.494 1.494 0 0 0-1.302.744 1.432 1.432 0 0 0-.186.734h-.914c0-.456.105-.858.316-1.206.212-.352.498-.627.86-.824a2.528 2.528 0 0 1 1.241-.302c.449 0 .851.104 1.206.312a2.313 2.313 0 0 1 1.15 2.035c0 .315-.04.588-.12.819a1.99 1.99 0 0 1-.362.643c-.164.194-.37.402-.618.623l-2.668 2.397-.116-.302h3.884v.854h-4.808zm5.809 0 .005-.804 3.211-2.889c.268-.241.447-.469.538-.683a1.69 1.69 0 0 0 .14-.668c0-.278-.063-.53-.191-.754a1.428 1.428 0 0 0-1.266-.729c-.288 0-.544.069-.769.206a1.432 1.432 0 0 0-.718 1.272h-.914c0-.456.105-.858.316-1.206.211-.352.497-.627.859-.824a2.53 2.53 0 0 1 1.241-.302c.449 0 .851.104 1.206.312.355.204.635.484.839.839.208.352.312.75.312 1.196 0 .315-.04.588-.121.819a1.971 1.971 0 0 1-.362.643c-.164.194-.37.402-.618.623l-2.668 2.397-.115-.302h3.884v.854h-4.809z" fill="#AAA9C4"/><g clip-path="url(#e)" stroke="#AAA9C3"><rect x="215.538" y="323.302" width="8.793" height="7.118" rx="1.884" stroke-width="1.256"/><rect x="217.265" y="322.308" width=".942" height="2.198" rx=".471" stroke-width=".942"/><rect x="221.661" y="322.308" width=".942" height="2.198" rx=".471" stroke-width=".942"/></g><rect x="67.001" y="312.102" width="167.693" height="29.519" rx="4.71" stroke="#F2F4F7" stroke-width=".628"/><g filter="url(#f)"><rect x="190" y="91.508" width="229" height="196.286" rx="6.849" fill="#fff" shape-rendering="crispEdges"/><path d="M204.656 119.412v-9.862h1.233l5.143 7.705v-7.705h1.233v9.862h-1.233l-5.143-7.712v7.712h-1.233zm12.675.206c-.735 0-1.37-.167-1.904-.5a3.319 3.319 0 0 1-1.226-1.384c-.288-.589-.432-1.265-.432-2.027 0-.776.146-1.457.439-2.041a3.255 3.255 0 0 1 1.239-1.363c.535-.329 1.162-.493 1.884-.493.739 0 1.376.167 1.911.5.534.329.942.787 1.226 1.376.287.585.431 1.258.431 2.021 0 .772-.144 1.452-.431 2.041a3.31 3.31 0 0 1-1.233 1.376c-.534.329-1.169.494-1.904.494zm0-1.158c.767 0 1.338-.256 1.712-.767.374-.511.562-1.173.562-1.986 0-.836-.19-1.5-.569-1.993-.379-.498-.947-.747-1.705-.747-.516 0-.941.117-1.274.35a2.092 2.092 0 0 0-.747.965c-.164.411-.246.886-.246 1.425 0 .831.192 1.497.575 2 .384.502.948.753 1.692.753zm10.343.952v-3.705c0-.352-.032-.69-.096-1.014a2.544 2.544 0 0 0-.322-.87 1.67 1.67 0 0 0-.616-.616c-.256-.151-.58-.226-.973-.226a2.15 2.15 0 0 0-.836.158c-.246.1-.458.255-.636.465-.179.21-.318.475-.418.795a3.847 3.847 0 0 0-.144 1.116l-.801-.246c0-.717.127-1.331.383-1.843.26-.516.623-.911 1.089-1.185.47-.278 1.023-.417 1.658-.417.479 0 .888.075 1.225.226.338.15.619.351.843.602.224.247.399.525.527.836.128.306.217.619.267.938.055.315.083.614.083.897v4.089h-1.233zm-5.274 0v-7.397h1.096v1.98h.137v5.417H222.4zm11.426.206c-.726 0-1.361-.16-1.904-.48a3.363 3.363 0 0 1-1.261-1.349c-.301-.58-.452-1.256-.452-2.027 0-.809.149-1.507.446-2.096.296-.594.71-1.05 1.239-1.37.534-.324 1.16-.486 1.877-.486.744 0 1.376.171 1.897.514.525.342.918.831 1.178 1.465.265.635.379 1.391.342 2.267h-1.232v-.438c-.014-.909-.199-1.587-.555-2.034-.356-.452-.886-.678-1.589-.678-.754 0-1.327.242-1.719.726-.393.484-.589 1.178-.589 2.082 0 .872.196 1.548.589 2.027.392.479.952.719 1.678.719.488 0 .913-.112 1.274-.335.36-.224.643-.546.849-.966l1.171.404a3.313 3.313 0 0 1-1.301 1.52 3.604 3.604 0 0 1-1.938.535zm-2.733-3.562v-.979h5.465v.979h-5.465z" fill="#AAA9C4"/><path d="m394.172 110.545 4.281-4.28 4.28 4.28" stroke="#AAA9C4" stroke-width="1.712"/><path d="M205.953 163.031v-9.862h3.897c.096 0 .21.004.342.014.133.004.261.018.384.041.534.082.982.264 1.342.548.366.283.64.641.822 1.075.183.429.274.906.274 1.431 0 .521-.093.998-.281 1.432a2.677 2.677 0 0 1-.822 1.075c-.36.283-.805.466-1.335.548a5.162 5.162 0 0 1-.726.055h-2.678v3.643h-1.219zm1.219-4.801h2.637a3.22 3.22 0 0 0 .616-.061c.315-.074.571-.206.767-.398.201-.196.347-.424.439-.685.091-.264.137-.534.137-.808s-.046-.541-.137-.801a1.767 1.767 0 0 0-.439-.692 1.506 1.506 0 0 0-.767-.397 1.477 1.477 0 0 0-.322-.048 3.625 3.625 0 0 0-.294-.014h-2.637v3.904zm9.03 5.007c-.552 0-1.016-.101-1.39-.302a2.14 2.14 0 0 1-.843-.808 2.2 2.2 0 0 1-.281-1.096c0-.388.074-.723.22-1.006.15-.288.36-.525.63-.713.269-.191.591-.342.965-.452.352-.096.745-.178 1.178-.246.439-.073.882-.14 1.329-.199.448-.059.865-.116 1.253-.171l-.438.253c.014-.657-.119-1.143-.397-1.459-.274-.315-.749-.472-1.425-.472-.447 0-.84.103-1.178.308-.333.201-.568.53-.705.986l-1.158-.349c.178-.648.523-1.157 1.035-1.527.511-.37 1.184-.555 2.02-.555.671 0 1.247.121 1.726.363.484.237.831.598 1.041 1.082.105.228.171.477.199.747.027.264.041.543.041.835v4.575h-1.082v-1.774l.253.165c-.279.598-.669 1.05-1.171 1.356-.498.306-1.105.459-1.822.459zm.185-1.021c.438 0 .817-.077 1.137-.233.324-.159.584-.367.781-.623.196-.26.324-.543.383-.849.069-.228.105-.482.11-.76.009-.283.013-.5.013-.651l.425.185c-.397.055-.788.107-1.171.157-.384.051-.747.105-1.089.165a8.282 8.282 0 0 0-.925.198c-.201.064-.39.147-.568.247-.174.1-.315.231-.425.39a1.02 1.02 0 0 0-.157.583c0 .2.05.392.15.575.105.182.265.331.48.445.219.114.504.171.856.171zm8.212 1.014c-.882 0-1.605-.192-2.171-.575-.562-.389-.907-.93-1.035-1.624l1.247-.198c.1.402.331.721.692.959.36.232.808.349 1.342.349.507 0 .904-.105 1.192-.315.287-.21.431-.496.431-.856 0-.21-.048-.379-.144-.507-.095-.132-.294-.256-.595-.37a14.333 14.333 0 0 0-1.35-.411c-.653-.173-1.166-.354-1.541-.541-.374-.187-.641-.404-.801-.651-.16-.246-.24-.545-.24-.897 0-.434.119-.812.356-1.137.238-.328.569-.582.994-.76.429-.178.926-.267 1.493-.267.561 0 1.063.089 1.506.267.443.178.799.432 1.069.76.274.325.436.703.486 1.137l-1.246.226a1.347 1.347 0 0 0-.576-.938c-.319-.228-.733-.349-1.239-.363-.48-.018-.87.066-1.172.253-.296.188-.445.441-.445.761 0 .178.055.331.165.458.114.128.322.249.623.363.306.115.749.245 1.329.391.652.164 1.166.345 1.541.541.379.192.648.42.808.685.16.26.239.582.239.965 0 .713-.262 1.274-.787 1.685-.525.407-1.249.61-2.171.61zm7.263 0c-.881 0-1.605-.192-2.171-.575-.561-.389-.906-.93-1.034-1.624l1.246-.198c.101.402.332.721.692.959.361.232.808.349 1.343.349.506 0 .904-.105 1.191-.315.288-.21.432-.496.432-.856 0-.21-.048-.379-.144-.507-.096-.132-.295-.256-.596-.37a14.293 14.293 0 0 0-1.349-.411c-.653-.173-1.167-.354-1.541-.541-.375-.187-.642-.404-.801-.651-.16-.246-.24-.545-.24-.897 0-.434.119-.812.356-1.137.237-.328.568-.582.993-.76.429-.178.927-.267 1.493-.267.562 0 1.064.089 1.507.267.443.178.799.432 1.068.76.274.325.436.703.487 1.137l-1.247.226a1.343 1.343 0 0 0-.575-.938c-.32-.228-.733-.349-1.24-.363-.479-.018-.87.066-1.171.253-.297.188-.445.441-.445.761a.68.68 0 0 0 .164.458c.114.128.322.249.623.363.306.115.749.245 1.329.391.653.164 1.167.345 1.541.541.379.192.648.42.808.685.16.26.24.582.24.965 0 .713-.263 1.274-.788 1.685-.525.407-1.248.61-2.171.61zm7.586.007c-.749 0-1.386-.167-1.911-.5a3.253 3.253 0 0 1-1.192-1.391c-.274-.589-.415-1.26-.424-2.013.009-.772.152-1.45.431-2.034a3.24 3.24 0 0 1 1.212-1.377c.525-.329 1.158-.493 1.897-.493.781 0 1.452.192 2.014.575.566.384.945.909 1.137 1.576l-1.206.363a1.972 1.972 0 0 0-.76-1 2.066 2.066 0 0 0-1.198-.357c-.507 0-.925.119-1.254.357a2.058 2.058 0 0 0-.732.972c-.16.411-.242.884-.247 1.418.009.822.199 1.486.568 1.993.375.502.93.753 1.665.753.484 0 .885-.109 1.205-.328.32-.224.562-.546.726-.966l1.233.322c-.256.689-.655 1.217-1.199 1.582-.543.365-1.198.548-1.965.548zm7.512 0c-.736 0-1.37-.167-1.904-.5a3.312 3.312 0 0 1-1.226-1.384c-.288-.589-.432-1.264-.432-2.027 0-.776.146-1.457.438-2.041a3.27 3.27 0 0 1 1.24-1.363c.534-.329 1.162-.493 1.884-.493.739 0 1.376.167 1.91.5.535.329.943.788 1.226 1.377.288.584.432 1.258.432 2.02 0 .772-.144 1.452-.432 2.041a3.305 3.305 0 0 1-1.233 1.377c-.534.328-1.168.493-1.903.493zm0-1.158c.767 0 1.337-.255 1.712-.767.374-.511.561-1.173.561-1.986 0-.836-.189-1.5-.568-1.993-.379-.498-.948-.747-1.705-.747-.516 0-.941.117-1.274.35a2.09 2.09 0 0 0-.747.965c-.164.411-.246.886-.246 1.425 0 .831.191 1.498.575 2 .383.502.947.753 1.692.753zm7.98 1.158c-.69 0-1.281-.172-1.774-.514a3.408 3.408 0 0 1-1.144-1.404c-.265-.589-.397-1.253-.397-1.993 0-.74.132-1.404.397-1.993a3.31 3.31 0 0 1 1.144-1.39c.493-.343 1.082-.514 1.767-.514.698 0 1.285.169 1.76.507.475.338.833.801 1.075 1.39.247.589.37 1.256.37 2 0 .735-.123 1.399-.37 1.993a3.2 3.2 0 0 1-1.075 1.404c-.475.342-1.059.514-1.753.514zm.15-1.117c.498 0 .907-.118 1.226-.356.32-.242.555-.573.706-.993.155-.425.233-.906.233-1.445 0-.548-.078-1.03-.233-1.445-.151-.42-.384-.747-.699-.979-.315-.238-.714-.357-1.198-.357-.503 0-.918.124-1.247.37-.324.247-.566.58-.726 1a4.05 4.05 0 0 0-.233 1.411c0 .525.08 1 .24 1.425.16.42.399.753.719 1 .324.246.728.369 1.212.369zm2.165.911v-5.445h-.137v-4.417h1.225v9.862h-1.088zm6.213.206c-.726 0-1.361-.16-1.904-.48a3.363 3.363 0 0 1-1.261-1.349c-.301-.58-.452-1.256-.452-2.027 0-.808.149-1.507.446-2.096.296-.594.71-1.05 1.239-1.37.534-.324 1.16-.486 1.877-.486.744 0 1.376.171 1.897.514.525.342.918.831 1.178 1.465.265.635.379 1.391.342 2.267h-1.232v-.438c-.014-.909-.199-1.587-.555-2.034-.356-.452-.886-.678-1.589-.678-.753 0-1.326.242-1.719.726s-.589 1.178-.589 2.082c0 .872.196 1.548.589 2.027.393.48.952.719 1.678.719.488 0 .913-.112 1.274-.335.36-.224.644-.546.849-.966l1.171.404a3.32 3.32 0 0 1-1.301 1.521 3.61 3.61 0 0 1-1.938.534zm-2.733-3.562v-.979h5.465v.979h-5.465zm14.417 3.562c-.982 0-1.815-.217-2.5-.651a4.175 4.175 0 0 1-1.568-1.808c-.356-.772-.534-1.664-.534-2.678s.178-1.906.534-2.678a4.18 4.18 0 0 1 1.568-1.808c.685-.434 1.518-.651 2.5-.651.986 0 1.822.217 2.507.651a4.14 4.14 0 0 1 1.561 1.808c.356.772.534 1.664.534 2.678s-.178 1.906-.534 2.678a4.135 4.135 0 0 1-1.561 1.808c-.685.434-1.521.651-2.507.651zm0-1.165c.735.005 1.347-.159 1.836-.493.493-.338.86-.806 1.102-1.404.247-.598.37-1.29.37-2.075 0-.79-.123-1.482-.37-2.075-.242-.594-.609-1.057-1.102-1.39-.489-.334-1.101-.503-1.836-.507-.735-.005-1.347.16-1.835.493-.484.333-.85.799-1.096 1.397-.247.598-.372 1.292-.377 2.082-.005.785.116 1.475.363 2.068.247.594.614 1.06 1.103 1.398.493.333 1.107.502 1.842.506zm8.251.959v-8.705h-3.362v-1.157h7.944v1.157h-3.363v8.705h-1.219zm5.673 0v-9.862h3.897c.096 0 .21.004.342.014.133.004.26.018.384.041.534.082.981.264 1.342.548.365.283.639.641.822 1.075.183.429.274.906.274 1.431 0 .521-.094.998-.281 1.432a2.677 2.677 0 0 1-.822 1.075c-.36.283-.806.466-1.335.548a5.02 5.02 0 0 1-.726.055h-2.678v3.643h-1.219zm1.219-4.801h2.637a3.237 3.237 0 0 0 .616-.061c.315-.074.571-.206.767-.398a1.75 1.75 0 0 0 .438-.685 2.44 2.44 0 0 0 0-1.609 1.753 1.753 0 0 0-.438-.692 1.506 1.506 0 0 0-.767-.397 1.487 1.487 0 0 0-.322-.048 3.646 3.646 0 0 0-.294-.014h-2.637v3.904z" fill="#1E1E2C"/><path fill="#E8F6FF" d="M191.363 182.835H419v50.262H191.363z"/><path d="M209.316 213.671c-.749 0-1.407-.162-1.973-.486a3.458 3.458 0 0 1-1.328-1.349c-.315-.576-.473-1.238-.473-1.986 0-.809.155-1.509.466-2.103a3.396 3.396 0 0 1 1.294-1.39c.553-.329 1.192-.493 1.918-.493.767 0 1.418.18 1.952.541.539.356.938.86 1.198 1.513.261.653.359 1.423.295 2.308h-1.637v-.602c-.005-.804-.146-1.391-.425-1.761-.278-.369-.716-.554-1.315-.554-.675 0-1.178.21-1.506.63-.329.415-.493 1.025-.493 1.828 0 .749.164 1.329.493 1.74.328.411.808.616 1.438.616.406 0 .756-.089 1.048-.267a1.78 1.78 0 0 0 .685-.787l1.63.493a3.311 3.311 0 0 1-1.315 1.555 3.605 3.605 0 0 1-1.952.554zm-2.548-3.445v-1.246h5.089v1.246h-5.089zm7.425 3.24v-9.863h1.651v4.575l3.938-4.575h2.027l-4.239 4.836 4.527 5.027h-2.096l-4.157-4.603v4.603h-1.651zm11.266 0v-4.041l-3.356-5.822h1.924l2.267 3.932 2.261-3.932h1.924l-3.349 5.822v4.041h-1.671zm9.599.205c-.986 0-1.831-.214-2.534-.644a4.296 4.296 0 0 1-1.623-1.808c-.375-.771-.562-1.666-.562-2.684 0-1.019.187-1.913.562-2.685a4.254 4.254 0 0 1 1.623-1.801c.703-.434 1.548-.651 2.534-.651 1.137 0 2.084.285 2.842.856.758.566 1.29 1.331 1.596 2.294l-1.664.459c-.192-.643-.518-1.146-.979-1.506-.462-.366-1.06-.548-1.795-.548-.662 0-1.214.148-1.657.445-.439.297-.77.714-.993 1.253-.22.534-.331 1.162-.336 1.884 0 .721.11 1.351.329 1.89.223.534.557.95 1 1.246.443.297.995.446 1.657.446.735 0 1.333-.183 1.795-.548.461-.366.787-.868.979-1.507l1.664.459c-.306.963-.838 1.73-1.596 2.301-.758.566-1.705.849-2.842.849z" fill="#237FD3"/><path d="m381.93 228.855-12.03-25.603 25.602 12.03a15.455 15.455 0 0 0-13.572 13.573z" fill="#AAA9C4"/><path d="M209.158 264.106c-.726 0-1.36-.16-1.904-.48a3.348 3.348 0 0 1-1.26-1.349c-.301-.58-.452-1.255-.452-2.027 0-.808.148-1.507.445-2.096.297-.593.71-1.05 1.24-1.37.534-.324 1.16-.486 1.876-.486.745 0 1.377.171 1.898.514.525.342.917.831 1.178 1.465.264.635.379 1.391.342 2.267h-1.233v-.438c-.013-.908-.198-1.587-.555-2.034-.356-.452-.885-.678-1.588-.678-.754 0-1.327.242-1.72.726-.392.484-.589 1.178-.589 2.082 0 .872.197 1.548.589 2.027.393.48.952.719 1.678.719.489 0 .914-.111 1.274-.335a2.29 2.29 0 0 0 .85-.966l1.171.404a3.322 3.322 0 0 1-1.302 1.521 3.607 3.607 0 0 1-1.938.534zm-2.732-3.562v-.979h5.465v.979h-5.465zm7.62 3.356v-9.862h1.219v4.63l4.315-4.63h1.534l-4.479 4.787 4.828 5.075h-1.575l-4.623-4.821v4.821h-1.219zm10.737 0v-4.102l-3.322-5.76h1.418l2.52 4.363 2.513-4.363h1.418l-3.315 5.76v4.102h-1.232zm9.008.206c-.981 0-1.815-.217-2.5-.651a4.188 4.188 0 0 1-1.568-1.808c-.356-.772-.534-1.664-.534-2.678 0-1.013.178-1.906.534-2.678a4.194 4.194 0 0 1 1.568-1.808c.685-.434 1.519-.65 2.5-.65 1.142 0 2.08.289 2.815.869.74.58 1.249 1.361 1.527 2.343l-1.239.328c-.201-.735-.56-1.315-1.075-1.739-.516-.425-1.192-.637-2.028-.637-.735 0-1.347.167-1.835.5-.489.333-.856.799-1.103 1.397-.246.594-.372 1.285-.377 2.075-.004.786.117 1.477.363 2.075.247.594.617 1.06 1.11 1.398.493.333 1.107.5 1.842.5.836 0 1.512-.213 2.028-.637.515-.43.874-1.009 1.075-1.74l1.239.329c-.278.977-.787 1.758-1.527 2.342-.735.58-1.673.87-2.815.87zm8.324-2.021v-2.616h-2.616v-1.007h2.616v-2.609h1.007v2.609h2.609v1.007h-2.609v2.616h-1.007zm5.536 1.815v-9.862h1.219v9.862h-1.219zm3.274 0v-9.862h3.041c.101 0 .277.002.528.007.251.004.491.023.719.055.762.1 1.399.379 1.911.835.516.452.904 1.028 1.164 1.726.26.699.39 1.468.39 2.308 0 .84-.13 1.61-.39 2.308a4.245 4.245 0 0 1-1.164 1.733c-.512.452-1.149.728-1.911.829a9.264 9.264 0 0 1-1.247.061h-3.041zm1.254-1.164h1.787c.174 0 .368-.004.582-.014.215-.013.402-.034.562-.061.539-.101.975-.327 1.308-.678.334-.352.578-.79.733-1.315a5.979 5.979 0 0 0 .233-1.699c0-.621-.08-1.194-.24-1.719-.155-.525-.399-.961-.733-1.308-.333-.347-.767-.568-1.301-.664a3.704 3.704 0 0 0-.568-.062c-.22-.009-.411-.014-.576-.014h-1.787v7.534z" fill="#1E1E2C"/><rect x="190.428" y="91.936" width="228.144" height="195.43" rx="6.421" stroke="#F2F4F7" stroke-width=".856" shape-rendering="crispEdges"/></g><rect x="66.688" y="362.017" width="353" height="20" rx="10" fill="#F2F4F7"/><rect x="66.688" y="399.603" width="48" height="7" rx="3.5" fill="#F2F4F7"/><defs><filter id="b" x="-339" y="-185" width="727" height="727" filterUnits="userSpaceOnUse" color-interpolation-filters="sRGB"><feFlood flood-opacity="0" result="BackgroundImageFix"/><feBlend in="SourceGraphic" in2="BackgroundImageFix" result="shape"/><feGaussianBlur stdDeviation="75" result="effect1_foregroundBlur_10_149"/></filter><filter id="c" x="-82" y="-360" width="908" height="908" filterUnits="userSpaceOnUse" color-interpolation-filters="sRGB"><feFlood flood-opacity="0" result="BackgroundImageFix"/><feBlend in="SourceGraphic" in2="BackgroundImageFix" result="shape"/><feGaussianBlur stdDeviation="125" result="effect1_foregroundBlur_10_149"/></filter><filter id="d" x="-301" y="102" width="897" height="897" filterUnits="userSpaceOnUse" color-interpolation-filters="sRGB"><feFlood flood-opacity="0" result="BackgroundImageFix"/><feBlend in="SourceGraphic" in2="BackgroundImageFix" result="shape"/><feGaussianBlur stdDeviation="125" result="effect1_foregroundBlur_10_149"/></filter><filter id="f" x="160.012" y="65.609" width="354.405" height="321.691" filterUnits="userSpaceOnUse" color-interpolation-filters="sRGB"><feFlood flood-opacity="0" result="BackgroundImageFix"/><feColorMatrix in="SourceAlpha" values="0 0 0 0 0 0 0 0 0 0 0 0 0 0 0 0 0 0 127 0" result="hardAlpha"/><feOffset dx="32.714" dy="36.804"/><feGaussianBlur stdDeviation="31.351"/><feComposite in2="hardAlpha" operator="out"/><feColorMatrix values="0 0 0 0 0.145098 0 0 0 0 0.313726 0 0 0 0 0.65098 0 0 0 0.2 0"/><feBlend in2="BackgroundImageFix" result="effect1_dropShadow_10_149"/><feBlend in="SourceGraphic" in2="effect1_dropShadow_10_149" result="shape"/></filter><clipPath id="e"><path fill="#fff" transform="rotate(-90 273.398 58.488)" d="M0 0h10.049v10.049H0z"/></clipPath></defs></svg>