<svg width="490" height="488" fill="none" xmlns="http://www.w3.org/2000/svg"><path fill="#E8F6FF" d="M0 0h488v488H0z"/><mask id="a" style="mask-type:alpha" maskUnits="userSpaceOnUse" x="0" y="0" width="488" height="488"><path fill="#fff" d="M0 0h488v488H0z"/></mask><g opacity=".5" mask="url(#a)"><g filter="url(#b)"><circle cx="24.5" cy="178.5" r="213.5" fill="#00CBA6"/></g><g filter="url(#c)"><circle cx="372" cy="94" r="204" fill="#237FD3"/></g><g filter="url(#d)"><circle cx="147.5" cy="550.5" r="198.5" fill="#D0D9EC"/></g></g><rect x="44" y="208" width="400" height="224" rx="7.562" fill="#fff"/><path d="M72.766 250.011c-.951 0-1.81-.165-2.574-.497a4.853 4.853 0 0 1-1.879-1.418c-.487-.62-.798-1.354-.93-2.203l2.258-.344c.193.771.587 1.367 1.183 1.789.602.421 1.295.632 2.077.632.464 0 .9-.072 1.31-.217.41-.144.74-.355.993-.632.26-.277.389-.617.389-1.021 0-.18-.03-.346-.09-.496a1.185 1.185 0 0 0-.271-.416 1.678 1.678 0 0 0-.452-.325 3.078 3.078 0 0 0-.632-.262l-3.36-.993a9.538 9.538 0 0 1-.94-.335 4.029 4.029 0 0 1-.948-.587 3.024 3.024 0 0 1-.731-.957c-.187-.391-.28-.873-.28-1.445 0-.837.21-1.539.632-2.105.427-.572 1-.999 1.716-1.282.723-.283 1.523-.422 2.403-.415.89.006 1.685.159 2.384.46a4.53 4.53 0 0 1 1.752 1.292c.47.566.8 1.249.994 2.05l-2.34.406a2.541 2.541 0 0 0-.56-1.165 2.607 2.607 0 0 0-1.002-.74 3.365 3.365 0 0 0-2.466-.073 2.188 2.188 0 0 0-.894.578 1.298 1.298 0 0 0-.334.886c0 .319.096.581.289.785.193.199.43.359.713.479.29.114.581.211.876.289l2.33.65c.32.085.678.199 1.075.343.398.145.78.347 1.148.606.367.259.668.599.903 1.02.24.422.36.958.36 1.608 0 .674-.14 1.267-.424 1.779A3.733 3.733 0 0 1 76.315 249c-.475.337-1.02.59-1.634.758a7.12 7.12 0 0 1-1.915.253zm11.492 0c-.987 0-1.854-.214-2.6-.641a4.574 4.574 0 0 1-1.753-1.779c-.415-.759-.623-1.632-.623-2.62 0-1.065.205-1.99.614-2.772a4.49 4.49 0 0 1 1.707-1.834c.729-.433 1.572-.65 2.53-.65 1.01 0 1.869.238 2.573.713.71.47 1.237 1.135 1.58 1.996.344.861.473 1.876.39 3.044h-2.16v-.795c-.006-1.059-.192-1.833-.56-2.321-.367-.488-.945-.731-1.734-.731-.89 0-1.553.277-1.987.831-.433.547-.65 1.351-.65 2.411 0 .988.217 1.752.65 2.294.434.542 1.066.813 1.897.813.536 0 .997-.117 1.382-.352a2.35 2.35 0 0 0 .903-1.039l2.15.65a4.36 4.36 0 0 1-1.734 2.051 4.75 4.75 0 0 1-2.575.731zm-3.36-4.543v-1.644h6.711v1.644H80.9zm15.51 4.272a8.86 8.86 0 0 1-1.897.154 4.361 4.361 0 0 1-1.653-.334 2.29 2.29 0 0 1-1.111-1.021 2.907 2.907 0 0 1-.352-1.292 54.661 54.661 0 0 1-.018-1.49v-8.481h2.167v8.355c0 .391.003.734.01 1.029.011.295.075.536.19.723.216.361.562.563 1.038.605a7.001 7.001 0 0 0 1.626-.072v1.824zm-6.802-8.047v-1.707h6.802v1.707h-6.802zm12.515 8.047v-9.754h1.924v2.375l-.235-.307c.121-.325.28-.62.479-.885.205-.271.448-.494.731-.668.241-.163.506-.289.795-.38.295-.096.596-.153.903-.171.308-.024.606-.012.895.036v2.032a2.805 2.805 0 0 0-1.003-.081c-.373.03-.71.135-1.012.316-.301.162-.547.37-.74.623a2.64 2.64 0 0 0-.416.867c-.09.319-.135.665-.135 1.039v4.958h-2.186zm11.473.271c-.987 0-1.854-.214-2.601-.641a4.574 4.574 0 0 1-1.752-1.779c-.415-.759-.623-1.632-.623-2.62 0-1.065.205-1.99.614-2.772.409-.789.978-1.4 1.707-1.834.729-.433 1.572-.65 2.529-.65 1.011 0 1.869.238 2.574.713.71.47 1.237 1.135 1.581 1.996.343.861.472 1.876.388 3.044h-2.159v-.795c-.006-1.059-.192-1.833-.56-2.321-.367-.488-.945-.731-1.734-.731-.891 0-1.553.277-1.987.831-.433.547-.65 1.351-.65 2.411 0 .988.217 1.752.65 2.294.434.542 1.066.813 1.897.813.536 0 .996-.117 1.382-.352.391-.241.692-.587.903-1.039l2.15.65c-.374.879-.952 1.563-1.735 2.051a4.746 4.746 0 0 1-2.574.731zm-3.36-4.543v-1.644h6.711v1.644h-6.711zm14.028 4.543c-1.005 0-1.864-.223-2.574-.668a4.454 4.454 0 0 1-1.635-1.843c-.373-.776-.563-1.655-.569-2.637.006-.999.202-1.885.587-2.655a4.441 4.441 0 0 1 1.662-1.825c.717-.445 1.569-.668 2.556-.668 1.108 0 2.044.28 2.809.84.771.554 1.274 1.312 1.508 2.276l-2.167.587c-.169-.524-.449-.93-.84-1.219a2.165 2.165 0 0 0-1.337-.443c-.566 0-1.033.136-1.4.407-.367.264-.638.632-.813 1.101a4.583 4.583 0 0 0-.262 1.599c0 .927.208 1.677.624 2.249.415.572 1.032.858 1.851.858.578 0 1.033-.132 1.364-.397.337-.265.59-.648.759-1.147l2.221.496c-.301.994-.828 1.758-1.58 2.294-.753.53-1.674.795-2.764.795zm6.07-11.506v-1.996h2.177v1.996h-2.177zm0 11.235v-9.754h2.177v9.754h-2.177zm9.57.271c-.951 0-1.749-.226-2.393-.677-.645-.452-1.129-1.066-1.455-1.843-.325-.782-.487-1.659-.487-2.628 0-.981.162-1.861.487-2.637.326-.777.801-1.388 1.427-1.834.633-.451 1.412-.677 2.34-.677.921 0 1.719.226 2.393.677.68.446 1.207 1.057 1.581 1.834.373.77.56 1.65.56 2.637 0 .975-.184 1.852-.551 2.628-.368.777-.885 1.391-1.554 1.843-.668.451-1.451.677-2.348.677zm-4.706 4.065v-14.09h1.924v6.846h.271v7.244h-2.195zm4.372-6.016c.566 0 1.032-.141 1.4-.424a2.48 2.48 0 0 0 .813-1.147c.18-.488.271-1.03.271-1.626 0-.59-.091-1.126-.271-1.608a2.481 2.481 0 0 0-.84-1.156c-.38-.289-.861-.433-1.445-.433-.554 0-1.006.135-1.355.406-.349.265-.608.638-.777 1.12-.163.476-.244 1.033-.244 1.671 0 .632.081 1.189.244 1.671.169.482.431.858.786 1.129.361.265.834.397 1.418.397zm6.958-9.555v-1.996h2.177v1.996h-2.177zm0 11.235v-9.754h2.177v9.754h-2.177zm9.317.271c-.988 0-1.855-.214-2.601-.641a4.567 4.567 0 0 1-1.752-1.779c-.416-.759-.624-1.632-.624-2.62 0-1.065.205-1.99.614-2.772.41-.789.979-1.4 1.707-1.834.729-.433 1.572-.65 2.529-.65 1.012 0 1.87.238 2.574.713.711.47 1.238 1.135 1.581 1.996.343.861.473 1.876.388 3.044h-2.158v-.795c-.006-1.059-.193-1.833-.56-2.321-.367-.488-.945-.731-1.734-.731-.891 0-1.554.277-1.987.831-.434.547-.651 1.351-.651 2.411 0 .988.217 1.752.651 2.294.433.542 1.065.813 1.896.813.536 0 .997-.117 1.382-.352.392-.241.693-.587.903-1.039l2.15.65a4.357 4.357 0 0 1-1.734 2.051 4.75 4.75 0 0 1-2.574.731zm-3.36-4.543v-1.644h6.711v1.644h-6.711zm16.274 4.272v-4.696c0-.307-.021-.648-.063-1.021a3.578 3.578 0 0 0-.298-1.075 2.046 2.046 0 0 0-.687-.858c-.301-.223-.71-.334-1.228-.334-.277 0-.551.045-.822.136-.271.09-.518.246-.741.469-.216.217-.391.518-.524.903-.132.38-.198.867-.198 1.464l-1.292-.551c0-.831.16-1.584.479-2.258a3.838 3.838 0 0 1 1.427-1.608c.626-.403 1.397-.605 2.312-.605.723 0 1.319.12 1.788.361.47.241.843.548 1.12.921.277.374.482.771.614 1.193.133.421.217.821.253 1.201.043.373.064.677.064.912v5.446h-2.204zm-6.765 0v-9.754h1.942v3.026h.262v6.728h-2.204zm17.043 0a8.868 8.868 0 0 1-1.897.154 4.363 4.363 0 0 1-1.653-.334 2.29 2.29 0 0 1-1.111-1.021 2.904 2.904 0 0 1-.352-1.292 55.1 55.1 0 0 1-.018-1.49v-8.481h2.168v8.355c0 .391.003.734.009 1.029.012.295.075.536.189.723.217.361.563.563 1.039.605a7.004 7.004 0 0 0 1.626-.072v1.824zm-6.801-8.047v-1.707h6.801v1.707h-6.801zm12.664 8.318c-1.204 0-2.182-.271-2.935-.813-.753-.542-1.21-1.303-1.373-2.285l2.222-.343c.114.482.367.861.759 1.138.391.277.885.416 1.481.416.524 0 .927-.103 1.21-.308.289-.21.434-.496.434-.858 0-.222-.054-.4-.163-.532-.102-.139-.331-.271-.686-.398-.356-.126-.9-.286-1.635-.479-.819-.216-1.469-.448-1.951-.695-.482-.253-.828-.551-1.039-.894-.21-.343-.316-.759-.316-1.247 0-.608.16-1.138.479-1.589.319-.452.765-.798 1.337-1.039.572-.247 1.246-.37 2.023-.37.759 0 1.43.117 2.014.352.59.235 1.066.569 1.427 1.003.361.433.584.942.668 1.526l-2.221.397a1.4 1.4 0 0 0-.57-.984c-.319-.241-.746-.376-1.282-.406-.512-.031-.924.048-1.237.234-.313.181-.47.437-.47.768 0 .187.063.346.19.479.126.132.379.265.758.397a23.5 23.5 0 0 0 1.716.488c.777.199 1.397.427 1.861.686.47.253.807.557 1.011.913.211.355.317.785.317 1.291 0 .982-.359 1.752-1.075 2.312-.711.56-1.695.84-2.954.84z" fill="#1E1E2C"/><path d="m66.89 272.256 2.307-7.316h1.794l2.306 7.316h-1.26l-2.093-6.564h.274l-2.067 6.564h-1.26zm1.286-1.585v-1.143h3.84v1.143h-3.84zm8.24 1.737c-.505 0-.945-.127-1.322-.381a2.52 2.52 0 0 1-.873-1.036 3.419 3.419 0 0 1-.31-1.479c0-.555.103-1.05.31-1.483a2.49 2.49 0 0 1 .889-1.031c.383-.254.833-.381 1.351-.381.522 0 .959.127 1.31.381.356.25.626.594.809 1.031.183.437.274.931.274 1.483a3.82 3.82 0 0 1-.274 1.479 2.33 2.33 0 0 1-.818 1.036c-.363.254-.811.381-1.347.381zm.187-1.097c.329 0 .593-.075.793-.224.203-.152.35-.364.442-.635.095-.271.142-.584.142-.94 0-.359-.047-.672-.142-.939a1.277 1.277 0 0 0-.432-.63c-.196-.153-.45-.229-.762-.229-.329 0-.6.081-.813.244a1.39 1.39 0 0 0-.472.65 2.56 2.56 0 0 0-.153.904c0 .336.05.641.148.915.101.271.255.486.462.645.207.159.47.239.787.239zm1.377.945v-3.851h-.152v-3.465h1.234v7.316H77.98zm4.707.152c-.505 0-.945-.127-1.321-.381a2.52 2.52 0 0 1-.874-1.036 3.419 3.419 0 0 1-.31-1.479c0-.555.103-1.05.31-1.483a2.49 2.49 0 0 1 .889-1.031c.383-.254.833-.381 1.351-.381.522 0 .959.127 1.311.381.356.25.625.594.808 1.031.183.437.274.931.274 1.483a3.82 3.82 0 0 1-.274 1.479 2.33 2.33 0 0 1-.818 1.036c-.362.254-.811.381-1.346.381zm.188-1.097c.328 0 .592-.075.792-.224.203-.152.35-.364.442-.635.095-.271.142-.584.142-.94 0-.359-.047-.672-.142-.939a1.278 1.278 0 0 0-.432-.63c-.196-.153-.45-.229-.762-.229-.328 0-.6.081-.813.244-.213.159-.37.376-.472.65a2.558 2.558 0 0 0-.153.904c0 .336.05.641.148.915.101.271.255.486.462.645.207.159.47.239.788.239zm1.376.945v-3.851H84.1v-3.465h1.234v7.316h-1.082zm6.74.152c-.504 0-.944-.127-1.32-.381a2.52 2.52 0 0 1-.874-1.036 3.419 3.419 0 0 1-.31-1.479c0-.555.104-1.05.31-1.483a2.49 2.49 0 0 1 .89-1.031c.382-.254.832-.381 1.35-.381.522 0 .96.127 1.311.381.356.25.625.594.808 1.031.183.437.274.931.274 1.483a3.82 3.82 0 0 1-.274 1.479 2.33 2.33 0 0 1-.818 1.036c-.362.254-.811.381-1.346.381zm.189-1.097c.328 0 .592-.075.792-.224.204-.152.35-.364.442-.635.095-.271.143-.584.143-.94 0-.359-.048-.672-.143-.939a1.277 1.277 0 0 0-.431-.63c-.197-.153-.45-.229-.763-.229-.328 0-.599.081-.812.244a1.39 1.39 0 0 0-.473.65 2.56 2.56 0 0 0-.152.904c0 .336.049.641.147.915.102.271.256.486.462.645.207.159.47.239.788.239zm1.377.945v-3.851h-.153v-3.465h1.235v7.316h-1.082zm5 .152c-.555 0-1.043-.12-1.463-.36a2.578 2.578 0 0 1-.985-1.001c-.234-.427-.35-.918-.35-1.474 0-.599.115-1.119.345-1.559.23-.444.55-.788.96-1.032.41-.243.884-.365 1.423-.365.569 0 1.051.133 1.447.401.4.264.696.638.89 1.123.193.484.265 1.055.218 1.712h-1.214v-.447c-.004-.596-.109-1.032-.315-1.306-.207-.274-.532-.411-.976-.411-.5 0-.874.155-1.117.467-.244.308-.366.76-.366 1.356 0 .556.122.986.366 1.291.243.305.6.457 1.067.457.301 0 .56-.066.777-.198.22-.136.39-.33.508-.584l1.209.366c-.21.494-.535.878-.975 1.153-.437.274-.92.411-1.448.411zm-1.89-2.555v-.925h3.775v.925h-3.774zm8.724 2.403a4.99 4.99 0 0 1-1.066.086 2.439 2.439 0 0 1-.93-.188 1.284 1.284 0 0 1-.625-.574 1.642 1.642 0 0 1-.198-.726c-.007-.248-.01-.527-.01-.839v-4.77h1.219v4.699c0 .22.002.413.005.579a.833.833 0 0 0 .107.407c.122.203.316.317.584.34.268.024.572.01.914-.04v1.026zm-3.825-4.527v-.96h3.825v.96h-3.825zm6.54 4.679c-.397 0-.732-.074-1.006-.223a1.578 1.578 0 0 1-.625-.605 1.678 1.678 0 0 1-.209-.828c0-.264.044-.501.133-.711a1.4 1.4 0 0 1 .406-.549c.183-.156.42-.283.711-.381.22-.071.478-.135.772-.193.298-.058.62-.11.966-.157.349-.051.713-.105 1.092-.163l-.437.249c.003-.379-.081-.659-.254-.838-.173-.18-.464-.27-.874-.27-.247 0-.486.058-.716.173-.23.115-.391.313-.483.595l-1.117-.351a2.07 2.07 0 0 1 .772-1.118c.383-.281.897-.421 1.544-.421.488 0 .916.079 1.286.238.372.16.648.42.828.783.098.193.157.391.178.594.02.2.03.418.03.656v3.368h-1.072v-1.189l.178.193c-.247.396-.537.688-.869.874-.328.183-.74.274-1.234.274zm.243-.975c.278 0 .515-.049.712-.147.196-.099.352-.219.467-.361a1.24 1.24 0 0 0 .239-.402c.064-.155.1-.333.107-.533.01-.203.015-.367.015-.493l.376.112c-.369.058-.686.108-.95.152a16.5 16.5 0 0 0-.681.127 4.59 4.59 0 0 0-.503.127c-.142.051-.263.11-.361.178a.79.79 0 0 0-.228.234.607.607 0 0 0-.077.31.65.65 0 0 0 .102.361.71.71 0 0 0 .295.243c.132.061.294.092.487.092zm4.178-5.497v-1.123h1.225v1.123h-1.225zm0 6.32v-5.487h1.225v5.487h-1.225zm2.848 0v-7.468h1.224v7.468h-1.224zm4.865.152c-.678 0-1.228-.152-1.651-.457-.424-.305-.681-.733-.773-1.285l1.25-.193c.065.271.207.484.427.64.22.156.498.233.833.233.295 0 .522-.057.681-.172a.567.567 0 0 0 .244-.483.461.461 0 0 0-.092-.3c-.057-.078-.186-.152-.386-.223-.2-.071-.506-.161-.919-.269-.461-.122-.827-.253-1.098-.392-.271-.142-.465-.31-.584-.503a1.318 1.318 0 0 1-.178-.701c0-.342.09-.64.27-.894.179-.254.43-.449.751-.584.322-.139.702-.208 1.138-.208.427 0 .805.066 1.133.198.332.132.6.32.803.564.203.244.329.53.376.858l-1.25.224a.786.786 0 0 0-.32-.554c-.179-.135-.42-.212-.721-.229-.288-.017-.52.028-.696.133-.176.101-.264.245-.264.431 0 .105.035.195.106.27.071.074.214.149.427.223.217.075.539.166.965.274.437.112.786.241 1.047.387.264.142.454.313.569.513.118.2.178.442.178.726 0 .552-.202.986-.605 1.301-.4.315-.953.472-1.661.472zm8.049 0c-.535 0-.984-.127-1.346-.381a2.334 2.334 0 0 1-.818-1.036 3.818 3.818 0 0 1-.274-1.479c0-.552.091-1.046.274-1.483.183-.437.451-.781.803-1.031.355-.254.794-.381 1.316-.381.518 0 .967.127 1.346.381.383.25.679.594.889 1.031.21.433.315.928.315 1.483 0 .549-.103 1.042-.31 1.479a2.523 2.523 0 0 1-.874 1.036c-.376.254-.816.381-1.321.381zm-2.647-.152v-7.316h1.235v3.465h-.152v3.851h-1.083zm2.459-.945c.319 0 .581-.08.788-.239a1.39 1.39 0 0 0 .457-.645c.102-.274.152-.579.152-.915 0-.331-.05-.633-.152-.904a1.395 1.395 0 0 0-.472-.65c-.214-.163-.485-.244-.813-.244-.312 0-.566.076-.762.229a1.305 1.305 0 0 0-.437.63c-.092.267-.137.58-.137.939 0 .356.045.669.137.94.095.271.242.483.442.635.203.149.469.224.797.224zm6.307 1.097c-.555 0-1.043-.12-1.463-.36a2.585 2.585 0 0 1-.986-1.001c-.233-.427-.35-.918-.35-1.474 0-.599.115-1.119.345-1.559a2.53 2.53 0 0 1 .961-1.032c.409-.243.884-.365 1.422-.365.569 0 1.052.133 1.448.401.4.264.696.638.889 1.123.193.484.266 1.055.219 1.712h-1.215v-.447c-.003-.596-.108-1.032-.315-1.306-.206-.274-.531-.411-.975-.411-.501 0-.874.155-1.118.467-.244.308-.366.76-.366 1.356 0 .556.122.986.366 1.291.244.305.6.457 1.067.457.302 0 .561-.066.777-.198.221-.136.39-.33.508-.584l1.21.366c-.21.494-.536.878-.976 1.153a2.67 2.67 0 0 1-1.448.411zm-1.89-2.555v-.925h3.775v.925h-3.775zm5.61 2.403v-7.468h1.224v7.468h-1.224zm5.169.152c-.548 0-1.028-.123-1.437-.371a2.544 2.544 0 0 1-.956-1.021c-.223-.437-.335-.938-.335-1.504 0-.575.115-1.08.346-1.514.23-.433.55-.772.96-1.016.41-.243.884-.365 1.422-.365.552 0 1.033.123 1.443.37.41.248.728.59.955 1.027.227.433.341.933.341 1.498 0 .569-.116 1.072-.346 1.509a2.541 2.541 0 0 1-.955 1.021c-.41.244-.889.366-1.438.366zm0-1.148c.488 0 .85-.162 1.088-.488.237-.325.355-.745.355-1.26 0-.531-.12-.955-.361-1.27-.24-.318-.601-.477-1.082-.477-.328 0-.599.074-.813.223-.21.146-.365.351-.467.615a2.488 2.488 0 0 0-.152.909c0 .532.12.957.36 1.276.244.315.602.472 1.072.472zm4.828.996-1.677-5.497 1.199.01 1.072 3.521 1.088-3.521h1.031l1.082 3.521 1.077-3.521h1.199l-1.676 5.487h-.956l-1.244-3.775-1.24 3.775h-.955zm11.445.152c-.548 0-1.027-.123-1.437-.371a2.541 2.541 0 0 1-.955-1.021c-.224-.437-.336-.938-.336-1.504 0-.575.115-1.08.346-1.514.23-.433.55-.772.96-1.016.41-.243.884-.365 1.422-.365.553 0 1.033.123 1.443.37.41.248.728.59.955 1.027.227.433.341.933.341 1.498 0 .569-.115 1.072-.346 1.509a2.541 2.541 0 0 1-.955 1.021c-.41.244-.889.366-1.438.366zm0-1.148c.488 0 .851-.162 1.088-.488.237-.325.355-.745.355-1.26 0-.531-.12-.955-.36-1.27-.241-.318-.602-.477-1.083-.477-.328 0-.599.074-.812.223-.21.146-.366.351-.468.615a2.51 2.51 0 0 0-.152.909c0 .532.12.957.361 1.276.243.315.601.472 1.071.472zm3.858.996v-5.487h1.082v1.336l-.132-.173c.068-.182.158-.348.269-.497.116-.153.253-.278.412-.376.135-.092.284-.163.447-.214.166-.054.335-.086.508-.096a2.05 2.05 0 0 1 .503.02v1.143a1.578 1.578 0 0 0-.564-.046 1.3 1.3 0 0 0-.569.178 1.275 1.275 0 0 0-.416.351 1.486 1.486 0 0 0-.234.487 2.14 2.14 0 0 0-.076.585v2.789h-1.23zm6.194-6.32v-1.123h1.225v1.123h-1.225zm0 6.32v-5.487h1.225v5.487h-1.225zm9.336 0v-3.333c0-.376-.093-.669-.28-.879-.186-.213-.438-.32-.757-.32-.196 0-.372.046-.528.137a.935.935 0 0 0-.371.397 1.31 1.31 0 0 0-.137.619l-.544-.32a1.886 1.886 0 0 1 .254-1.001 1.86 1.86 0 0 1 .712-.68 2.04 2.04 0 0 1 .995-.244c.607 0 1.071.183 1.392.549.326.362.488.839.488 1.432v3.643h-1.224zm-6.6 0v-5.487h1.082v1.702h.153v3.785h-1.235zm3.308 0v-3.318c0-.382-.093-.68-.28-.894-.186-.213-.44-.32-.762-.32a.96.96 0 0 0-.752.32c-.186.214-.279.491-.279.833l-.549-.365c0-.356.088-.676.264-.961a1.88 1.88 0 0 1 .712-.67 2.058 2.058 0 0 1 1.011-.249c.409 0 .752.088 1.026.264.278.173.484.41.62.711.139.298.208.635.208 1.011v3.638h-1.219zm8.478.152c-.535 0-.984-.127-1.346-.381a2.328 2.328 0 0 1-.818-1.036 3.818 3.818 0 0 1-.275-1.479c0-.552.092-1.046.275-1.483.183-.437.45-.781.802-1.031.356-.254.795-.381 1.316-.381.518 0 .967.127 1.347.381.382.25.679.594.889 1.031.21.433.315.928.315 1.483 0 .549-.104 1.042-.31 1.479a2.523 2.523 0 0 1-.874 1.036c-.376.254-.816.381-1.321.381zm-2.647 2.286v-7.925h1.082v3.851h.153v4.074h-1.235zm2.459-3.383c.318 0 .581-.08.787-.239.207-.159.36-.374.458-.645a2.63 2.63 0 0 0 .152-.915c0-.331-.051-.633-.152-.904a1.39 1.39 0 0 0-.473-.65c-.213-.163-.484-.244-.813-.244-.311 0-.565.076-.762.229a1.311 1.311 0 0 0-.437.63c-.091.267-.137.58-.137.939 0 .356.046.669.137.94.095.271.243.483.442.635.204.149.47.224.798.224zm6.236 1.097c-.549 0-1.028-.123-1.438-.371a2.541 2.541 0 0 1-.955-1.021c-.224-.437-.335-.938-.335-1.504 0-.575.115-1.08.345-1.514.23-.433.55-.772.96-1.016.41-.243.884-.365 1.423-.365.552 0 1.033.123 1.443.37.409.248.728.59.955 1.027.227.433.34.933.34 1.498 0 .569-.115 1.072-.345 1.509a2.548 2.548 0 0 1-.955 1.021c-.41.244-.889.366-1.438.366zm0-1.148c.488 0 .85-.162 1.087-.488.237-.325.356-.745.356-1.26 0-.531-.121-.955-.361-1.27-.241-.318-.601-.477-1.082-.477-.329 0-.6.074-.813.223-.21.146-.366.351-.467.615a2.488 2.488 0 0 0-.153.909c0 .532.12.957.361 1.276.244.315.601.472 1.072.472zm3.858.996v-5.487h1.082v1.336l-.132-.173c.067-.182.157-.348.269-.497.115-.153.252-.278.411-.376.136-.092.285-.163.447-.214.166-.054.336-.086.508-.096.173-.014.341-.007.503.02v1.143a1.576 1.576 0 0 0-.564-.046 1.307 1.307 0 0 0-.569.178 1.275 1.275 0 0 0-.416.351 1.486 1.486 0 0 0-.234.487 2.14 2.14 0 0 0-.076.585v2.789h-1.229zm7.274 0a4.998 4.998 0 0 1-1.067.086 2.443 2.443 0 0 1-.93-.188 1.293 1.293 0 0 1-.625-.574 1.642 1.642 0 0 1-.198-.726c-.007-.248-.01-.527-.01-.839v-4.77h1.219v4.699c0 .22.002.413.005.579a.844.844 0 0 0 .107.407c.122.203.317.317.584.34.268.024.573.01.915-.04v1.026zm-3.826-4.527v-.96h3.826v.96h-3.826zm9.423 4.679c-.566 0-1.049-.125-1.448-.376a2.497 2.497 0 0 1-.92-1.036 3.426 3.426 0 0 1-.32-1.484c.003-.562.113-1.06.33-1.493a2.49 2.49 0 0 1 .935-1.026c.403-.251.882-.376 1.438-.376.623 0 1.15.157 1.58.472.433.312.716.738.848 1.28l-1.219.331a1.323 1.323 0 0 0-.473-.686 1.214 1.214 0 0 0-.751-.249c-.319 0-.581.076-.788.228a1.296 1.296 0 0 0-.457.62 2.572 2.572 0 0 0-.148.899c0 .522.117.944.351 1.265.234.322.581.483 1.042.483.325 0 .58-.074.767-.223.189-.149.332-.365.426-.646l1.25.28c-.169.559-.466.989-.889 1.29-.423.298-.941.447-1.554.447zm5.736 0c-.549 0-1.028-.123-1.438-.371a2.541 2.541 0 0 1-.955-1.021c-.224-.437-.335-.938-.335-1.504 0-.575.115-1.08.345-1.514.23-.433.55-.772.96-1.016.41-.243.884-.365 1.423-.365.552 0 1.033.123 1.443.37.409.248.728.59.955 1.027.227.433.34.933.34 1.498 0 .569-.115 1.072-.345 1.509a2.548 2.548 0 0 1-.955 1.021c-.41.244-.89.366-1.438.366zm0-1.148c.487 0 .85-.162 1.087-.488.237-.325.356-.745.356-1.26 0-.531-.121-.955-.361-1.27-.241-.318-.601-.477-1.082-.477-.329 0-.6.074-.813.223-.21.146-.366.351-.467.615a2.488 2.488 0 0 0-.153.909c0 .532.12.957.361 1.276.244.315.601.472 1.072.472zm7.653.996v-2.642c0-.173-.012-.364-.036-.574a1.997 1.997 0 0 0-.168-.605 1.138 1.138 0 0 0-.386-.482c-.169-.126-.399-.188-.691-.188-.156 0-.31.025-.462.076a1.076 1.076 0 0 0-.417.264c-.122.122-.22.291-.294.508-.075.214-.112.488-.112.823l-.727-.31c0-.467.09-.89.27-1.27a2.16 2.16 0 0 1 .802-.904c.353-.227.786-.34 1.301-.34.406 0 .742.067 1.006.203.264.135.474.308.63.518.156.21.271.433.345.671.075.237.122.462.143.675.023.21.035.381.035.513v3.064h-1.239zm-3.806 0v-5.487h1.093v1.702h.147v3.785h-1.24zm9.587 0a4.998 4.998 0 0 1-1.067.086 2.443 2.443 0 0 1-.93-.188 1.293 1.293 0 0 1-.625-.574 1.642 1.642 0 0 1-.198-.726c-.007-.248-.01-.527-.01-.839v-4.77h1.219v4.699c0 .22.002.413.005.579a.844.844 0 0 0 .107.407c.122.203.317.317.584.34.268.024.573.01.915-.04v1.026zm-3.826-4.527v-.96h3.826v.96h-3.826zm6.54 4.679c-.396 0-.732-.074-1.006-.223a1.584 1.584 0 0 1-.625-.605 1.677 1.677 0 0 1-.208-.828c0-.264.044-.501.132-.711a1.4 1.4 0 0 1 .406-.549 2.13 2.13 0 0 1 .712-.381 6.83 6.83 0 0 1 .772-.193c.298-.058.62-.11.965-.157.349-.051.713-.105 1.092-.163l-.437.249c.004-.379-.081-.659-.254-.838-.172-.18-.464-.27-.873-.27-.248 0-.486.058-.717.173-.23.115-.391.313-.482.595l-1.118-.351c.135-.464.393-.837.772-1.118.383-.281.898-.421 1.545-.421.487 0 .916.079 1.285.238.373.16.649.42.828.783.098.193.158.391.178.594.02.2.03.418.03.656v3.368h-1.072v-1.189l.178.193c-.247.396-.537.688-.869.874-.328.183-.74.274-1.234.274zm.244-.975c.278 0 .515-.049.711-.147.196-.099.352-.219.467-.361.119-.142.199-.276.239-.402.065-.155.1-.333.107-.533.01-.203.015-.367.015-.493l.376.112c-.369.058-.686.108-.95.152a16.5 16.5 0 0 0-.681.127c-.189.038-.357.08-.503.127-.142.051-.262.11-.36.178a.782.782 0 0 0-.229.234.606.606 0 0 0-.076.31c0 .135.034.256.101.361a.71.71 0 0 0 .295.243c.132.061.295.092.488.092zm6.459.975c-.566 0-1.049-.125-1.448-.376a2.504 2.504 0 0 1-.92-1.036 3.44 3.44 0 0 1-.32-1.484c.004-.562.114-1.06.33-1.493.221-.437.532-.779.935-1.026.403-.251.882-.376 1.438-.376.623 0 1.15.157 1.58.472.433.312.716.738.848 1.28l-1.219.331a1.328 1.328 0 0 0-.472-.686 1.219 1.219 0 0 0-.752-.249c-.319 0-.581.076-.788.228a1.303 1.303 0 0 0-.457.62 2.572 2.572 0 0 0-.147.899c0 .522.117.944.35 1.265.234.322.581.483 1.042.483.325 0 .581-.074.767-.223.19-.149.332-.365.427-.646l1.249.28c-.169.559-.465.989-.889 1.29-.423.298-.941.447-1.554.447zm6.677-.152a4.993 4.993 0 0 1-1.067.086 2.438 2.438 0 0 1-.929-.188 1.284 1.284 0 0 1-.625-.574 1.642 1.642 0 0 1-.198-.726c-.007-.248-.01-.527-.01-.839v-4.77h1.219v4.699c0 .22.002.413.005.579a.833.833 0 0 0 .107.407c.122.203.316.317.584.34.267.024.572.01.914-.04v1.026zm-3.825-4.527v-.96h3.825v.96h-3.825zm7.124 4.679c-.678 0-1.228-.152-1.651-.457-.424-.305-.681-.733-.773-1.285l1.25-.193c.065.271.207.484.427.64.22.156.498.233.833.233.295 0 .522-.057.681-.172a.57.57 0 0 0 .244-.483.461.461 0 0 0-.092-.3c-.057-.078-.186-.152-.386-.223-.2-.071-.506-.161-.919-.269-.461-.122-.827-.253-1.098-.392-.271-.142-.465-.31-.584-.503a1.309 1.309 0 0 1-.178-.701c0-.342.09-.64.269-.894.18-.254.431-.449.752-.584.322-.139.701-.208 1.138-.208.427 0 .805.066 1.133.198.332.132.6.32.803.564.203.244.329.53.376.858l-1.25.224a.786.786 0 0 0-.32-.554c-.179-.135-.42-.212-.721-.229-.288-.017-.52.028-.696.133-.176.101-.265.245-.265.431a.38.38 0 0 0 .107.27c.071.074.214.149.427.223.217.075.538.166.965.274.437.112.786.241 1.047.387.264.142.454.313.569.513.118.2.178.442.178.726 0 .552-.202.986-.605 1.301-.4.315-.953.472-1.661.472z" fill="#AAA9C4"/><mask id="e" fill="#fff"><path fill-rule="evenodd" clip-rule="evenodd" d="M399 243h-2v7h-7v2h7v7h2v-7h7v-2h-7v-7z"/></mask><path fill-rule="evenodd" clip-rule="evenodd" d="M399 243h-2v7h-7v2h7v7h2v-7h7v-2h-7v-7z" fill="#2550A6"/><path d="M397 243v-1h-1v1h1zm2 0h1v-1h-1v1zm-2 7v1h1v-1h-1zm-7 0v-1h-1v1h1zm0 2h-1v1h1v-1zm7 0h1v-1h-1v1zm0 7h-1v1h1v-1zm2 0v1h1v-1h-1zm0-7v-1h-1v1h1zm7 0v1h1v-1h-1zm0-2h1v-1h-1v1zm-7 0h-1v1h1v-1zm-2-6h2v-2h-2v2zm1 6v-7h-2v7h2zm-8 1h7v-2h-7v2zm1 1v-2h-2v2h2zm6-1h-7v2h7v-2zm1 8v-7h-2v7h2zm1-1h-2v2h2v-2zm-1-6v7h2v-7h-2zm8-1h-7v2h7v-2zm-1-1v2h2v-2h-2zm-6 1h7v-2h-7v2zm-1-8v7h2v-7h-2z" fill="#237FD3" mask="url(#e)"/><rect x="66.688" y="296.215" width="354" height="107" rx="7.167" fill="#fff"/><rect x="66.688" y="296.215" width="48" height="7" rx="3.5" fill="#F2F4F7"/><rect x="66.688" y="320.801" width="353" height="20" rx="10" fill="#F2F4F7"/><rect x="66.688" y="358.864" width="48" height="7" rx="3.5" fill="#F2F4F7"/><rect x="66.688" y="383.45" width="355" height="20" rx="10" fill="#F2F4F7"/><g filter="url(#f)"><rect x="111" y="284.371" width="310" height="70" rx="7.848" fill="#fff"/><rect x="111.49" y="284.862" width="309.019" height="69.019" rx="7.357" stroke="#F2F4F7" stroke-width=".981"/></g><path d="M132.962 332.467a1.962 1.962 0 0 1-1.962-1.962v-23.543c0-1.083.878-1.962 1.962-1.962h31.39c1.084 0 1.962.879 1.962 1.962v23.505a2 2 0 0 1-2 2h-31.352z" fill="#D0D9EC"/><path d="M142 317.467a3 3 0 1 0 0-6 3 3 0 0 0 0 6zM156 320.771a2 2 0 1 0 .001-3.999 2 2 0 0 0-.001 3.999z" fill="#fff"/><path d="M136 322.985c0-2.219 2.686-4.018 6-4.018s6 1.799 6 4.018v3.482h-12v-3.482z" fill="#237FD3"/><path d="M152 324.45c0-1.479 1.791-2.679 4-2.679s4 1.2 4 2.679v2.321h-8v-2.321z" fill="#00CBA6"/><path d="m185.866 325.814 3.563-11.3h2.77l3.563 11.3h-1.946l-3.233-10.139h.423l-3.194 10.139h-1.946zm1.986-2.448V321.6h5.932v1.766h-5.932zm12.727 2.684c-.78 0-1.46-.196-2.041-.589a3.896 3.896 0 0 1-1.349-1.601c-.319-.674-.479-1.436-.479-2.283 0-.858.16-1.622.479-2.292a3.85 3.85 0 0 1 1.373-1.593c.591-.392 1.287-.588 2.087-.588.806 0 1.481.196 2.025.588.549.387.965.918 1.248 1.593.282.675.424 1.439.424 2.292 0 .842-.142 1.603-.424 2.283-.283.675-.704 1.209-1.264 1.601-.559.393-1.253.589-2.079.589zm.29-1.695c.508 0 .916-.115 1.224-.345.314-.236.542-.563.683-.981.147-.419.22-.903.22-1.452 0-.555-.073-1.039-.22-1.452-.141-.419-.363-.743-.667-.973-.303-.236-.696-.353-1.177-.353-.508 0-.926.125-1.256.376a2.146 2.146 0 0 0-.729 1.005 3.948 3.948 0 0 0-.236 1.397c0 .518.076.989.228 1.412.157.419.395.751.714.997.319.246.724.369 1.216.369zm2.127 1.459v-5.948h-.236v-5.352h1.907v11.3h-1.671zm7.27.236c-.78 0-1.46-.196-2.041-.589a3.896 3.896 0 0 1-1.349-1.601c-.32-.674-.479-1.436-.479-2.283 0-.858.159-1.622.479-2.292a3.85 3.85 0 0 1 1.373-1.593c.591-.392 1.287-.588 2.087-.588.806 0 1.481.196 2.025.588.549.387.965.918 1.248 1.593.282.675.424 1.439.424 2.292 0 .842-.142 1.603-.424 2.283-.283.675-.704 1.209-1.264 1.601-.559.393-1.253.589-2.079.589zm.29-1.695c.508 0 .916-.115 1.224-.345.314-.236.542-.563.683-.981.147-.419.22-.903.22-1.452 0-.555-.073-1.039-.22-1.452-.141-.419-.364-.743-.667-.973-.303-.236-.696-.353-1.177-.353-.508 0-.926.125-1.256.376a2.154 2.154 0 0 0-.73 1.005 3.949 3.949 0 0 0-.235 1.397c0 .518.076.989.228 1.412.157.419.395.751.714.997.319.246.724.369 1.216.369zm2.127 1.459v-5.948h-.236v-5.352h1.907v11.3h-1.671zm7.751 0v-8.608c0-.215.008-.45.024-.707.016-.261.06-.52.133-.777.074-.256.207-.489.401-.698.24-.267.499-.45.776-.549.283-.105.56-.163.832-.173.272-.016.51-.024.714-.024h1.06v1.539h-.981c-.361 0-.631.091-.808.274-.173.178-.259.414-.259.707v9.016h-1.892zm-1.365-6.992v-1.483h5.305v1.483h-5.305zm6.559 6.992v-8.475h1.672v2.064l-.204-.267a3.03 3.03 0 0 1 .416-.769 2.34 2.34 0 0 1 .635-.581c.21-.141.44-.251.691-.329a3.06 3.06 0 0 1 .785-.149c.267-.021.526-.011.777.031v1.766a2.435 2.435 0 0 0-.871-.071 1.988 1.988 0 0 0-.879.275 1.984 1.984 0 0 0-.644.541 2.3 2.3 0 0 0-.361.754 3.32 3.32 0 0 0-.117.902v4.308h-1.9zm9.859.236c-.847 0-1.588-.191-2.221-.573a3.941 3.941 0 0 1-1.475-1.577c-.345-.675-.518-1.45-.518-2.323 0-.89.178-1.669.534-2.339.356-.67.85-1.193 1.483-1.569.633-.377 1.365-.565 2.197-.565.853 0 1.596.191 2.229.572a3.92 3.92 0 0 1 1.475 1.586c.351.669.526 1.441.526 2.315 0 .879-.178 1.656-.533 2.33a3.94 3.94 0 0 1-1.476 1.578c-.633.377-1.373.565-2.221.565zm0-1.774c.754 0 1.313-.251 1.68-.753.366-.502.549-1.151.549-1.946 0-.822-.186-1.476-.557-1.962-.372-.492-.929-.738-1.672-.738-.507 0-.926.115-1.255.345a1.986 1.986 0 0 0-.722.95c-.157.403-.236.871-.236 1.405 0 .821.186 1.478.557 1.969.377.487.929.73 1.656.73zm16.138 1.538v-5.148c0-.58-.144-1.033-.432-1.357-.288-.33-.678-.495-1.169-.495a1.58 1.58 0 0 0-.816.212c-.241.136-.432.34-.573.612-.142.267-.212.586-.212.958l-.84-.495c-.005-.586.126-1.101.392-1.546.272-.45.639-.8 1.099-1.051.46-.251.973-.377 1.538-.377.937 0 1.653.283 2.15.848.503.559.754 1.297.754 2.213v5.626h-1.891zm-10.194 0v-8.475h1.671v2.629h.235v5.846h-1.906zm5.108 0v-5.124c0-.591-.144-1.052-.431-1.381-.288-.33-.68-.495-1.177-.495-.482 0-.869.165-1.162.495-.288.329-.432.758-.432 1.287l-.847-.565c0-.55.136-1.044.408-1.483.272-.44.638-.785 1.099-1.036a3.174 3.174 0 0 1 1.561-.385c.633 0 1.162.136 1.586.408.429.267.748.633.957 1.099.214.46.322.981.322 1.562v5.618h-1.884zm15.846.236c-.873 0-1.619-.194-2.236-.581a3.863 3.863 0 0 1-1.421-1.601c-.324-.675-.489-1.438-.494-2.291.005-.869.175-1.638.51-2.307a3.848 3.848 0 0 1 1.444-1.586c.623-.387 1.363-.58 2.221-.58.963 0 1.776.243 2.44.729.67.482 1.107 1.141 1.311 1.978l-1.883.51c-.147-.455-.39-.808-.73-1.059a1.875 1.875 0 0 0-1.162-.385c-.491 0-.897.118-1.216.353-.319.231-.555.55-.706.958a3.96 3.96 0 0 0-.228 1.389c0 .805.181 1.457.542 1.954.361.497.897.745 1.608.745.503 0 .898-.115 1.185-.345.293-.23.513-.562.66-.997l1.93.432c-.262.863-.719 1.528-1.373 1.993-.654.461-1.455.691-2.402.691zm8.861 0c-.848 0-1.588-.191-2.221-.573a3.935 3.935 0 0 1-1.475-1.577c-.345-.675-.518-1.45-.518-2.323 0-.89.178-1.669.534-2.339.355-.67.85-1.193 1.483-1.569.633-.377 1.365-.565 2.197-.565.853 0 1.596.191 2.229.572a3.92 3.92 0 0 1 1.475 1.586c.351.669.526 1.441.526 2.315 0 .879-.178 1.656-.534 2.33a3.93 3.93 0 0 1-1.475 1.578c-.633.377-1.373.565-2.221.565zm0-1.774c.753 0 1.313-.251 1.679-.753.367-.502.55-1.151.55-1.946 0-.822-.186-1.476-.557-1.962-.372-.492-.929-.738-1.672-.738-.507 0-.926.115-1.256.345a1.992 1.992 0 0 0-.722.95c-.157.403-.235.871-.235 1.405 0 .821.186 1.478.557 1.969.377.487.929.73 1.656.73zm11.821 1.538v-4.08c0-.267-.018-.563-.055-.887a3.05 3.05 0 0 0-.259-.934 1.767 1.767 0 0 0-.596-.745c-.262-.194-.618-.291-1.067-.291-.241 0-.479.039-.715.118-.235.078-.45.214-.643.408-.188.188-.34.45-.455.785-.115.329-.173.753-.173 1.271l-1.122-.479c0-.722.138-1.376.416-1.962a3.332 3.332 0 0 1 1.24-1.396c.544-.351 1.213-.526 2.009-.526.627 0 1.145.104 1.554.314.408.209.732.476.973.8.24.324.418.67.533 1.036.115.366.189.714.22 1.044.037.324.055.588.055.792v4.732h-1.915zm-5.878 0v-8.475h1.687v2.629h.228v5.846h-1.915zm14.808 0a7.68 7.68 0 0 1-1.648.134 3.792 3.792 0 0 1-1.436-.29 1.993 1.993 0 0 1-.965-.887 2.52 2.52 0 0 1-.306-1.122 45.596 45.596 0 0 1-.016-1.295v-7.369h1.884v7.259c0 .34.002.638.007.894.011.257.066.466.165.628.189.314.489.489.903.526.413.037.884.016 1.412-.063v1.585zm-5.909-6.992v-1.483h5.909v1.483h-5.909zm10.102 7.228c-.612 0-1.13-.115-1.554-.345a2.44 2.44 0 0 1-.965-.934 2.59 2.59 0 0 1-.322-1.279c0-.409.068-.775.204-1.099.136-.33.345-.612.628-.848.282-.24.649-.436 1.098-.588.341-.11.738-.209 1.193-.298.461-.089.958-.17 1.491-.244.539-.078 1.102-.162 1.688-.251l-.675.385c.005-.586-.126-1.018-.393-1.295-.267-.277-.716-.416-1.349-.416-.382 0-.751.089-1.107.267-.356.178-.604.484-.746.918l-1.726-.542a3.207 3.207 0 0 1 1.193-1.726c.591-.434 1.386-.651 2.386-.651.753 0 1.415.123 1.985.368a2.466 2.466 0 0 1 1.279 1.209c.152.298.243.604.275.918.031.309.047.646.047 1.012v5.203h-1.656v-1.836l.275.298c-.382.612-.83 1.062-1.342 1.35-.508.283-1.143.424-1.907.424zm.376-1.507c.429 0 .796-.076 1.099-.227a2.14 2.14 0 0 0 .722-.558c.183-.219.306-.426.369-.62.099-.24.154-.515.165-.824.015-.313.023-.567.023-.761l.581.173c-.57.089-1.059.167-1.467.235-.409.068-.759.134-1.052.196a6.63 6.63 0 0 0-.777.197 2.41 2.41 0 0 0-.557.274c-.152.105-.27.225-.353.361a.937.937 0 0 0-.118.479c0 .209.052.395.157.557.105.157.256.283.455.377.204.094.455.141.753.141zm9.977 1.507c-.873 0-1.619-.194-2.236-.581a3.87 3.87 0 0 1-1.421-1.601c-.324-.675-.489-1.438-.494-2.291.005-.869.175-1.638.51-2.307a3.855 3.855 0 0 1 1.444-1.586c.623-.387 1.363-.58 2.221-.58.963 0 1.776.243 2.441.729.669.482 1.106 1.141 1.31 1.978l-1.883.51c-.147-.455-.39-.808-.73-1.059a1.875 1.875 0 0 0-1.162-.385c-.491 0-.897.118-1.216.353-.319.231-.554.55-.706.958a3.96 3.96 0 0 0-.228 1.389c0 .805.181 1.457.542 1.954.361.497.897.745 1.608.745.503 0 .898-.115 1.185-.345.293-.23.513-.562.66-.997l1.93.432c-.261.863-.719 1.528-1.373 1.993-.654.461-1.455.691-2.402.691zm10.315-.236c-.56.105-1.109.15-1.648.134a3.792 3.792 0 0 1-1.436-.29 1.993 1.993 0 0 1-.965-.887 2.52 2.52 0 0 1-.306-1.122 45.596 45.596 0 0 1-.016-1.295v-7.369h1.884v7.259c0 .34.002.638.007.894.011.257.066.466.165.628.189.314.489.489.903.526.413.037.884.016 1.412-.063v1.585zm-5.909-6.992v-1.483h5.909v1.483h-5.909zm11.004 7.228c-1.046 0-1.896-.236-2.55-.706-.654-.471-1.052-1.133-1.193-1.986l1.93-.298c.1.418.32.748.66.989.34.24.769.361 1.287.361.455 0 .805-.089 1.051-.267a.876.876 0 0 0 .377-.746c0-.193-.047-.348-.141-.463-.089-.12-.288-.235-.597-.345a19.11 19.11 0 0 0-1.42-.416c-.712-.188-1.277-.39-1.695-.604-.419-.22-.72-.479-.903-.777-.183-.298-.274-.659-.274-1.083 0-.528.138-.989.416-1.381.277-.393.664-.693 1.161-.903.497-.214 1.083-.321 1.758-.321.659 0 1.242.102 1.75.306.513.204.926.494 1.24.871.314.376.507.819.58 1.326l-1.93.345a1.215 1.215 0 0 0-.494-.855c-.278-.209-.649-.327-1.115-.353-.444-.026-.803.042-1.075.204-.272.157-.408.379-.408.667a.58.58 0 0 0 .165.416c.11.115.329.23.659.345.335.115.832.256 1.491.424.675.172 1.214.371 1.617.596.408.22.701.484.879.793.183.309.274.683.274 1.122 0 .853-.311 1.523-.934 2.009-.617.487-1.472.73-2.566.73z" fill="#4F4F5F"/><circle cx="398.5" cy="251.5" r="19.5" stroke="#237FD3" stroke-width="2"/><path d="m418.804 276.761-8.825-18.783 18.782 8.826a11.34 11.34 0 0 0-9.957 9.957z" fill="#237FD3"/><rect x="44" y="53" width="400" height="144" rx="7.562" fill="#fff"/><path d="M72.766 95.011c-.951 0-1.81-.165-2.574-.497a4.861 4.861 0 0 1-1.879-1.418c-.487-.62-.798-1.354-.93-2.203l2.258-.344c.193.771.587 1.367 1.183 1.789.602.421 1.295.632 2.077.632.464 0 .9-.072 1.31-.217.41-.144.74-.355.993-.632.26-.277.389-.617.389-1.02 0-.181-.03-.347-.09-.497a1.182 1.182 0 0 0-.271-.416 1.678 1.678 0 0 0-.452-.325 3.078 3.078 0 0 0-.632-.262l-3.36-.993a9.469 9.469 0 0 1-.94-.335 4.052 4.052 0 0 1-.948-.587 3.02 3.02 0 0 1-.731-.957c-.187-.391-.28-.873-.28-1.445 0-.837.21-1.538.632-2.105.427-.572 1-.999 1.716-1.282.723-.283 1.523-.422 2.403-.416.89.007 1.685.16 2.384.461a4.53 4.53 0 0 1 1.752 1.292c.47.566.8 1.25.994 2.05l-2.34.406a2.54 2.54 0 0 0-.56-1.165 2.613 2.613 0 0 0-1.002-.74 3.372 3.372 0 0 0-2.466-.073 2.172 2.172 0 0 0-.894.578 1.297 1.297 0 0 0-.334.885c0 .32.096.582.289.786.193.199.43.359.713.479.29.114.581.21.876.289l2.33.65c.32.085.678.199 1.075.343.398.145.78.347 1.148.606.367.258.668.599.903 1.02.24.422.36.958.36 1.608 0 .674-.14 1.267-.424 1.78A3.726 3.726 0 0 1 76.315 94c-.475.337-1.02.59-1.634.758a7.136 7.136 0 0 1-1.915.253zm11.492 0c-.987 0-1.854-.214-2.6-.641a4.567 4.567 0 0 1-1.753-1.78c-.415-.758-.623-1.631-.623-2.619 0-1.065.205-1.99.614-2.772.41-.79.979-1.4 1.707-1.834.729-.433 1.572-.65 2.53-.65 1.01 0 1.869.238 2.573.713.71.47 1.237 1.135 1.58 1.996.344.861.473 1.876.39 3.044h-2.16v-.795c-.006-1.06-.192-1.833-.56-2.32-.367-.488-.945-.732-1.734-.732-.89 0-1.553.277-1.987.83-.433.549-.65 1.352-.65 2.412 0 .987.217 1.752.65 2.294.434.542 1.066.813 1.897.813.536 0 .997-.117 1.382-.352a2.35 2.35 0 0 0 .903-1.039l2.15.65a4.357 4.357 0 0 1-1.734 2.05 4.744 4.744 0 0 1-2.575.732zm-3.36-4.543v-1.644h6.711v1.644H80.9zm9.973 4.272V81.463h2.177V94.74H90.87zm9.317.271c-.988 0-1.855-.214-2.602-.641a4.566 4.566 0 0 1-1.752-1.78c-.415-.758-.623-1.631-.623-2.619 0-1.065.205-1.99.614-2.772.41-.79.979-1.4 1.707-1.834.729-.433 1.572-.65 2.529-.65 1.012 0 1.87.238 2.574.713.711.47 1.238 1.135 1.581 1.996.343.861.473 1.876.388 3.044h-2.158v-.795c-.006-1.06-.193-1.833-.56-2.32-.368-.488-.946-.732-1.734-.732-.892 0-1.554.277-1.987.83-.434.549-.65 1.352-.65 2.412 0 .987.216 1.752.65 2.294.433.542 1.065.813 1.896.813.536 0 .997-.117 1.382-.352.392-.241.693-.587.903-1.039l2.15.65a4.353 4.353 0 0 1-1.734 2.05 4.745 4.745 0 0 1-2.574.732zm-3.36-4.543v-1.644h6.711v1.644h-6.711zm14.027 4.543c-1.005 0-1.863-.223-2.574-.668a4.449 4.449 0 0 1-1.634-1.843c-.374-.776-.563-1.656-.569-2.637.006-1 .201-1.885.587-2.655a4.424 4.424 0 0 1 1.662-1.825c.716-.445 1.568-.668 2.556-.668 1.107 0 2.044.28 2.808.84.771.554 1.274 1.313 1.509 2.276l-2.168.587c-.168-.524-.448-.93-.84-1.22a2.162 2.162 0 0 0-1.337-.442c-.566 0-1.032.136-1.4.406-.367.265-.638.633-.812 1.102-.175.47-.262 1.003-.262 1.599 0 .927.207 1.677.623 2.249.415.572 1.033.858 1.851.858.578 0 1.033-.132 1.364-.397.337-.265.59-.648.759-1.147l2.222.496c-.301.994-.828 1.758-1.581 2.294-.752.53-1.674.795-2.764.795zm11.872-.27a8.895 8.895 0 0 1-1.897.153 4.352 4.352 0 0 1-1.653-.334 2.295 2.295 0 0 1-1.111-1.021 2.918 2.918 0 0 1-.352-1.292c-.012-.44-.018-.936-.018-1.49v-8.48h2.168v8.354c0 .391.003.734.009 1.03.012.294.075.535.189.722.217.361.563.563 1.039.605a6.981 6.981 0 0 0 1.626-.072v1.824zm-6.801-8.048v-1.707h6.801v1.707h-6.801zm16.281 8.318c-1.204 0-2.183-.27-2.936-.813-.752-.542-1.21-1.303-1.372-2.285l2.221-.343c.115.482.368.861.759 1.138.392.277.885.416 1.481.416.524 0 .928-.103 1.211-.307.289-.211.433-.497.433-.859 0-.222-.054-.4-.162-.532-.103-.139-.332-.271-.687-.398-.355-.126-.9-.286-1.635-.479-.818-.216-1.469-.448-1.95-.695-.482-.253-.828-.55-1.039-.894-.211-.343-.316-.759-.316-1.246 0-.609.159-1.138.478-1.59.32-.452.765-.798 1.337-1.039.572-.247 1.247-.37 2.023-.37.759 0 1.43.117 2.014.352.59.235 1.066.57 1.427 1.003.362.433.584.942.669 1.526l-2.222.397a1.399 1.399 0 0 0-.569-.984c-.319-.24-.747-.376-1.283-.406-.511-.03-.924.048-1.237.234-.313.181-.47.437-.47.768a.67.67 0 0 0 .19.479c.127.132.379.265.759.397.385.133.957.295 1.716.488.777.199 1.397.427 1.86.686.47.253.807.557 1.012.912.211.356.316.786.316 1.292 0 .982-.358 1.752-1.075 2.312-.71.56-1.695.84-2.953.84zm6.187-11.506v-1.996h2.177v1.996h-2.177zm0 11.235v-9.754h2.177v9.754h-2.177zm8.982 4.607a4.857 4.857 0 0 1-1.562-.253 4.38 4.38 0 0 1-1.337-.732 3.864 3.864 0 0 1-.975-1.138l2.005-.993c.187.355.448.617.786.785.343.175.707.262 1.093.262.451 0 .855-.081 1.21-.244.355-.156.629-.391.822-.704.198-.307.292-.693.28-1.156V92.4h.271v-7.415h1.905V95.21c0 .247-.012.482-.036.704a4.843 4.843 0 0 1-.099.669c-.145.632-.422 1.15-.831 1.553a3.78 3.78 0 0 1-1.526.912 6.38 6.38 0 0 1-2.006.299zm-.189-4.336c-.897 0-1.68-.226-2.348-.677-.669-.452-1.187-1.066-1.554-1.843-.367-.776-.551-1.653-.551-2.628 0-.987.184-1.867.551-2.637.373-.777.9-1.388 1.581-1.834.68-.451 1.481-.677 2.402-.677.927 0 1.704.226 2.33.677.633.446 1.111 1.057 1.436 1.834.326.776.488 1.656.488 2.637 0 .97-.162 1.846-.488 2.628-.325.777-.809 1.391-1.454 1.843-.644.451-1.442.677-2.393.677zm.334-1.95c.584 0 1.054-.133 1.409-.398.361-.271.623-.647.786-1.13.168-.48.253-1.038.253-1.67 0-.638-.085-1.195-.253-1.67-.163-.483-.419-.856-.768-1.12-.349-.272-.801-.407-1.355-.407-.584 0-1.066.144-1.445.433a2.478 2.478 0 0 0-.84 1.156 4.563 4.563 0 0 0-.271 1.608c0 .596.088 1.138.262 1.626.181.481.455.864.822 1.147.367.283.834.424 1.4.424zm13.633 1.68v-4.697c0-.307-.021-.648-.063-1.02a3.568 3.568 0 0 0-.298-1.076 2.043 2.043 0 0 0-.687-.858c-.301-.222-.71-.334-1.228-.334-.277 0-.551.045-.822.136-.271.09-.518.246-.741.47-.216.216-.391.517-.524.902-.132.38-.198.868-.198 1.464l-1.292-.551c0-.831.16-1.584.479-2.258a3.843 3.843 0 0 1 1.427-1.608c.626-.403 1.397-.605 2.312-.605.723 0 1.319.12 1.788.361.47.241.843.548 1.12.921.277.374.482.771.614 1.193.133.421.217.822.253 1.2.043.374.064.678.064.913v5.446h-2.204zm-6.765 0v-9.755h1.942v3.025h.262v6.73h-2.204zm14.053.27c-.704 0-1.3-.132-1.788-.397a2.81 2.81 0 0 1-1.111-1.075 2.985 2.985 0 0 1-.37-1.472c0-.47.078-.891.234-1.265a2.5 2.5 0 0 1 .723-.975c.325-.277.747-.503 1.264-.677.392-.127.849-.241 1.373-.344a32.17 32.17 0 0 1 1.716-.28c.62-.09 1.268-.186 1.942-.289l-.777.443c.006-.675-.144-1.171-.451-1.49-.307-.32-.825-.48-1.554-.48-.439 0-.864.103-1.273.308-.41.205-.696.557-.858 1.057l-1.987-.624a3.69 3.69 0 0 1 1.373-1.986c.68-.5 1.595-.75 2.745-.75.867 0 1.629.141 2.285.424a2.84 2.84 0 0 1 1.473 1.391c.174.344.28.696.316 1.057.036.355.054.744.054 1.165v5.988h-1.906v-2.113l.316.343c-.439.704-.954 1.222-1.544 1.553-.584.326-1.316.488-2.195.488zm.434-1.734c.493 0 .915-.087 1.264-.262.349-.174.626-.388.831-.641.211-.253.352-.49.425-.714a2.72 2.72 0 0 0 .189-.948c.018-.361.027-.653.027-.876l.669.199c-.657.102-1.22.192-1.689.27-.47.079-.873.154-1.211.226a7.714 7.714 0 0 0-.894.226 2.77 2.77 0 0 0-.641.316c-.175.12-.31.26-.406.416-.091.156-.136.34-.136.55 0 .242.06.455.181.642.12.18.295.325.524.434.234.108.523.162.867.162zm12.963 1.463a8.885 8.885 0 0 1-1.896.154 4.352 4.352 0 0 1-1.653-.334 2.29 2.29 0 0 1-1.111-1.021 2.905 2.905 0 0 1-.352-1.292c-.012-.44-.018-.936-.018-1.49v-8.48h2.167v8.354c0 .391.003.734.009 1.03.012.294.076.535.19.722.217.361.563.563 1.039.605a6.975 6.975 0 0 0 1.625-.072v1.824zm-6.801-8.047v-1.707h6.801v1.707h-6.801zm12.557 8.327c-.723 0-1.319-.12-1.788-.361a3.155 3.155 0 0 1-1.12-.921 4.025 4.025 0 0 1-.615-1.192 6.49 6.49 0 0 1-.262-1.193c-.036-.379-.054-.686-.054-.921v-5.446h2.204v4.696c0 .302.021.642.063 1.021.042.373.139.735.289 1.084.157.343.386.626.687.849.307.223.719.334 1.237.334.277 0 .551-.045.822-.135a1.86 1.86 0 0 0 .732-.461c.222-.223.4-.527.532-.912.133-.386.199-.873.199-1.463l1.292.55c0 .831-.163 1.584-.488 2.258a3.841 3.841 0 0 1-1.418 1.617c-.626.397-1.397.596-2.312.596zm3.188-.28v-3.025h-.262v-6.73h2.186v9.755h-1.924zm4.461 0v-9.754h1.924v2.375l-.235-.307c.121-.325.28-.62.479-.885a2.67 2.67 0 0 1 .732-.668c.24-.163.505-.29.794-.38.295-.096.596-.153.904-.171a3.67 3.67 0 0 1 .894.036v2.032a2.794 2.794 0 0 0-1.003-.081c-.373.03-.71.135-1.011.316a2.28 2.28 0 0 0-.741.623 2.617 2.617 0 0 0-.415.867c-.091.32-.136.665-.136 1.039v4.958h-2.186zm11.473.271c-.987 0-1.854-.214-2.601-.641a4.574 4.574 0 0 1-1.752-1.78c-.415-.758-.623-1.631-.623-2.619 0-1.065.205-1.99.614-2.772.41-.79.979-1.4 1.707-1.834.729-.433 1.572-.65 2.529-.65 1.012 0 1.87.238 2.574.713.711.47 1.237 1.135 1.581 1.996.343.861.472 1.876.388 3.044h-2.159v-.795c-.006-1.06-.192-1.833-.56-2.32-.367-.488-.945-.732-1.734-.732-.891 0-1.553.277-1.987.83-.433.549-.65 1.352-.65 2.412 0 .987.217 1.752.65 2.294.434.542 1.066.813 1.897.813.536 0 .997-.117 1.382-.352.391-.241.692-.587.903-1.039l2.15.65a4.365 4.365 0 0 1-1.734 2.05 4.746 4.746 0 0 1-2.575.732zm-3.359-4.543v-1.644h6.71v1.644h-6.71zm17.174 4.543c-1.204 0-2.183-.27-2.936-.813-.752-.542-1.21-1.303-1.372-2.285l2.221-.343c.115.482.368.861.759 1.138.391.277.885.416 1.481.416.524 0 .928-.103 1.211-.307.289-.211.433-.497.433-.859 0-.222-.054-.4-.162-.532-.103-.139-.332-.271-.687-.398-.355-.126-.9-.286-1.635-.479-.819-.216-1.469-.448-1.95-.695-.482-.253-.828-.55-1.039-.894-.211-.343-.316-.759-.316-1.246 0-.609.159-1.138.478-1.59.32-.452.765-.798 1.337-1.039.572-.247 1.247-.37 2.023-.37.759 0 1.43.117 2.014.352.59.235 1.066.57 1.427 1.003.362.433.584.942.669 1.526l-2.222.397a1.399 1.399 0 0 0-.569-.984c-.319-.24-.747-.376-1.283-.406-.511-.03-.924.048-1.237.234-.313.181-.47.437-.47.768a.67.67 0 0 0 .19.479c.126.132.379.265.759.397.385.133.957.295 1.716.488.776.199 1.397.427 1.86.686.47.253.807.557 1.012.912.211.356.316.786.316 1.292 0 .982-.358 1.752-1.075 2.312-.71.56-1.695.84-2.953.84zm10.441 0c-.988 0-1.855-.214-2.601-.641a4.56 4.56 0 0 1-1.752-1.78c-.416-.758-.624-1.631-.624-2.619 0-1.065.205-1.99.614-2.772a4.49 4.49 0 0 1 1.708-1.834c.728-.433 1.571-.65 2.528-.65 1.012 0 1.87.238 2.575.713.71.47 1.237 1.135 1.58 1.996.343.861.473 1.876.388 3.044h-2.158v-.795c-.006-1.06-.193-1.833-.56-2.32-.367-.488-.945-.732-1.734-.732-.891 0-1.554.277-1.987.83-.434.549-.651 1.352-.651 2.412 0 .987.217 1.752.651 2.294.433.542 1.066.813 1.896.813.536 0 .997-.117 1.382-.352.392-.241.693-.587.903-1.039l2.15.65a4.353 4.353 0 0 1-1.734 2.05 4.745 4.745 0 0 1-2.574.732zm-3.36-4.543v-1.644h6.711v1.644h-6.711zm13.702 4.543c-.897 0-1.679-.226-2.348-.677-.668-.452-1.186-1.066-1.553-1.843-.368-.776-.551-1.653-.551-2.628 0-.987.183-1.867.551-2.637.373-.777.9-1.388 1.58-1.834.681-.451 1.481-.677 2.403-.677.927 0 1.704.226 2.33.677.632.446 1.111 1.057 1.436 1.834.325.776.488 1.656.488 2.637 0 .97-.163 1.846-.488 2.628-.325.777-.81 1.391-1.454 1.843-.644.451-1.442.677-2.394.677zm.335-1.95c.584 0 1.053-.133 1.409-.398.361-.271.623-.647.785-1.13.169-.48.253-1.038.253-1.67 0-.638-.084-1.195-.253-1.67-.162-.483-.418-.856-.767-1.12-.35-.272-.801-.407-1.355-.407-.584 0-1.066.144-1.445.433-.38.283-.66.669-.84 1.156a4.54 4.54 0 0 0-.271 1.608c0 .596.087 1.138.262 1.626.18.481.454.864.822 1.147.367.283.834.424 1.4.424zm2.176 6.014v-7.243h.271v-6.846h1.924v14.09h-2.195zm8.385-4.055c-.722 0-1.318-.12-1.788-.361a3.155 3.155 0 0 1-1.12-.921 3.998 3.998 0 0 1-.614-1.192 6.328 6.328 0 0 1-.262-1.193c-.036-.379-.054-.686-.054-.921v-5.446h2.203v4.696c0 .302.022.642.064 1.021.042.373.138.735.289 1.084.156.343.385.626.686.849.307.223.72.334 1.238.334.276 0 .55-.045.821-.135a1.86 1.86 0 0 0 .732-.461c.223-.223.4-.527.533-.912.132-.386.199-.873.199-1.463l1.291.55c0 .831-.162 1.584-.488 2.258a3.834 3.834 0 0 1-1.418 1.617c-.626.397-1.397.596-2.312.596zm3.188-.28v-3.025h-.261v-6.73h2.185v9.755h-1.924zm8.896.271c-.987 0-1.854-.214-2.601-.641a4.574 4.574 0 0 1-1.752-1.78c-.415-.758-.623-1.631-.623-2.619 0-1.065.205-1.99.614-2.772a4.48 4.48 0 0 1 1.707-1.834c.729-.433 1.572-.65 2.529-.65 1.012 0 1.87.238 2.574.713.711.47 1.237 1.135 1.581 1.996.343.861.472 1.876.388 3.044h-2.159v-.795c-.006-1.06-.192-1.833-.56-2.32-.367-.488-.945-.732-1.734-.732-.891 0-1.553.277-1.987.83-.433.549-.65 1.352-.65 2.412 0 .987.217 1.752.65 2.294.434.542 1.066.813 1.897.813.536 0 .996-.117 1.382-.352.391-.241.692-.587.903-1.039l2.15.65c-.374.88-.952 1.563-1.735 2.05a4.74 4.74 0 0 1-2.574.732zm-3.359-4.543v-1.644h6.71v1.644h-6.71zm16.273 4.272v-4.696c0-.307-.021-.648-.063-1.02a3.51 3.51 0 0 0-.298-1.076 2.034 2.034 0 0 0-.686-.858c-.301-.222-.711-.334-1.229-.334-.277 0-.551.045-.822.136-.271.09-.517.246-.74.47-.217.216-.392.517-.524.902-.132.38-.199.868-.199 1.464l-1.291-.551c0-.831.159-1.584.478-2.258a3.85 3.85 0 0 1 1.427-1.608c.627-.403 1.397-.605 2.313-.605.722 0 1.318.12 1.788.361s.843.548 1.12.921c.277.374.482.771.614 1.193a5.9 5.9 0 0 1 .253 1.2c.042.374.063.678.063.913v5.446h-2.204zm-6.764 0v-9.754h1.941v3.025h.262v6.73h-2.203zm15.402.271c-1.005 0-1.863-.223-2.574-.668a4.458 4.458 0 0 1-1.635-1.843c-.373-.776-.563-1.656-.569-2.637.006-1 .202-1.885.587-2.655a4.438 4.438 0 0 1 1.662-1.825c.717-.445 1.569-.668 2.556-.668 1.108 0 2.045.28 2.809.84.771.554 1.274 1.313 1.509 2.276l-2.168.587c-.169-.524-.449-.93-.84-1.22a2.162 2.162 0 0 0-1.337-.442c-.566 0-1.032.136-1.4.406-.367.265-.638.633-.813 1.102a4.58 4.58 0 0 0-.262 1.599c0 .927.208 1.677.624 2.249.415.572 1.032.858 1.851.858.578 0 1.033-.132 1.364-.397.337-.265.59-.648.759-1.147l2.222.496c-.302.994-.828 1.758-1.581 2.294-.753.53-1.674.795-2.764.795zm10.324 0c-.987 0-1.854-.214-2.601-.641a4.574 4.574 0 0 1-1.752-1.78c-.415-.758-.623-1.631-.623-2.619 0-1.065.205-1.99.614-2.772a4.48 4.48 0 0 1 1.707-1.834c.729-.433 1.572-.65 2.529-.65 1.012 0 1.87.238 2.574.713.711.47 1.237 1.135 1.581 1.996.343.861.472 1.876.388 3.044h-2.159v-.795c-.006-1.06-.192-1.833-.56-2.32-.367-.488-.945-.732-1.734-.732-.891 0-1.553.277-1.987.83-.433.549-.65 1.352-.65 2.412 0 .987.217 1.752.65 2.294.434.542 1.066.813 1.897.813.536 0 .996-.117 1.382-.352.391-.241.692-.587.903-1.039l2.15.65c-.374.88-.952 1.563-1.735 2.05a4.74 4.74 0 0 1-2.574.732zm-3.359-4.543v-1.644h6.71v1.644h-6.71z" fill="#1E1E2C"/><path d="m66.89 117.256 2.307-7.316h1.794l2.306 7.316h-1.26l-2.093-6.564h.274l-2.067 6.564h-1.26zm1.286-1.585v-1.143h3.84v1.143h-3.84zm8.24 1.737c-.505 0-.945-.127-1.322-.381a2.52 2.52 0 0 1-.873-1.036 3.419 3.419 0 0 1-.31-1.479c0-.555.103-1.05.31-1.483a2.49 2.49 0 0 1 .889-1.031c.383-.254.833-.381 1.351-.381.522 0 .959.127 1.31.381.356.25.626.594.809 1.031.183.437.274.931.274 1.483a3.82 3.82 0 0 1-.274 1.479 2.33 2.33 0 0 1-.818 1.036c-.363.254-.811.381-1.347.381zm.187-1.097c.329 0 .593-.075.793-.224.203-.152.35-.364.442-.635.095-.271.142-.584.142-.94 0-.359-.047-.672-.142-.939a1.277 1.277 0 0 0-.432-.63c-.196-.153-.45-.229-.762-.229-.329 0-.6.081-.813.244a1.39 1.39 0 0 0-.472.65 2.56 2.56 0 0 0-.153.904c0 .336.05.641.148.915.101.271.255.486.462.645.207.159.47.239.787.239zm1.377.945v-3.851h-.152v-3.465h1.234v7.316H77.98zm4.707.152c-.505 0-.945-.127-1.321-.381a2.52 2.52 0 0 1-.874-1.036 3.419 3.419 0 0 1-.31-1.479c0-.555.103-1.05.31-1.483a2.49 2.49 0 0 1 .889-1.031c.383-.254.833-.381 1.351-.381.522 0 .959.127 1.311.381.356.25.625.594.808 1.031.183.437.274.931.274 1.483a3.82 3.82 0 0 1-.274 1.479 2.33 2.33 0 0 1-.818 1.036c-.362.254-.811.381-1.346.381zm.188-1.097c.328 0 .592-.075.792-.224.203-.152.35-.364.442-.635.095-.271.142-.584.142-.94 0-.359-.047-.672-.142-.939a1.278 1.278 0 0 0-.432-.63c-.196-.153-.45-.229-.762-.229-.328 0-.6.081-.813.244-.213.159-.37.376-.472.65a2.558 2.558 0 0 0-.153.904c0 .336.05.641.148.915.101.271.255.486.462.645.207.159.47.239.788.239zm1.376.945v-3.851H84.1v-3.465h1.234v7.316h-1.082zm6.74.152c-.504 0-.944-.127-1.32-.381a2.52 2.52 0 0 1-.874-1.036 3.419 3.419 0 0 1-.31-1.479c0-.555.104-1.05.31-1.483a2.49 2.49 0 0 1 .89-1.031c.382-.254.832-.381 1.35-.381.522 0 .96.127 1.311.381.356.25.625.594.808 1.031.183.437.274.931.274 1.483a3.82 3.82 0 0 1-.274 1.479 2.33 2.33 0 0 1-.818 1.036c-.362.254-.811.381-1.346.381zm.189-1.097c.328 0 .592-.075.792-.224.204-.152.35-.364.442-.635.095-.271.143-.584.143-.94 0-.359-.048-.672-.143-.939a1.277 1.277 0 0 0-.431-.63c-.197-.153-.45-.229-.763-.229-.328 0-.599.081-.812.244a1.39 1.39 0 0 0-.473.65 2.56 2.56 0 0 0-.152.904c0 .336.049.641.147.915.102.271.256.486.462.645.207.159.47.239.788.239zm1.377.945v-3.851h-.153v-3.465h1.235v7.316h-1.082zm5 .152c-.555 0-1.043-.12-1.463-.36a2.578 2.578 0 0 1-.985-1.001c-.234-.427-.35-.918-.35-1.474 0-.599.115-1.119.345-1.559.23-.444.55-.788.96-1.032.41-.243.884-.365 1.423-.365.569 0 1.051.133 1.447.401.4.264.696.638.89 1.123.193.484.265 1.055.218 1.712h-1.214v-.447c-.004-.596-.109-1.032-.315-1.306-.207-.274-.532-.411-.976-.411-.5 0-.874.155-1.117.467-.244.308-.366.76-.366 1.356 0 .556.122.986.366 1.291.243.305.6.457 1.067.457.301 0 .56-.066.777-.198.22-.136.39-.33.508-.584l1.209.366c-.21.494-.535.878-.975 1.153-.437.274-.92.411-1.448.411zm-1.89-2.555v-.925h3.775v.925h-3.774zm8.724 2.403a4.99 4.99 0 0 1-1.066.086 2.439 2.439 0 0 1-.93-.188 1.284 1.284 0 0 1-.625-.574 1.642 1.642 0 0 1-.198-.726c-.007-.248-.01-.527-.01-.839v-4.77h1.219v4.699c0 .22.002.413.005.579a.833.833 0 0 0 .107.407c.122.203.316.317.584.34.268.024.572.01.914-.04v1.026zm-3.825-4.527v-.96h3.825v.96h-3.825zm6.54 4.679c-.397 0-.732-.074-1.006-.223a1.578 1.578 0 0 1-.625-.605 1.678 1.678 0 0 1-.209-.828c0-.264.044-.501.133-.711a1.4 1.4 0 0 1 .406-.549c.183-.156.42-.283.711-.381.22-.071.478-.135.772-.193.298-.058.62-.11.966-.157.349-.051.713-.105 1.092-.163l-.437.249c.003-.379-.081-.659-.254-.838-.173-.18-.464-.27-.874-.27-.247 0-.486.058-.716.173-.23.115-.391.313-.483.595l-1.117-.351a2.07 2.07 0 0 1 .772-1.118c.383-.281.897-.421 1.544-.421.488 0 .916.079 1.286.238.372.16.648.42.828.783.098.193.157.391.178.594.02.2.03.418.03.656v3.368h-1.072v-1.189l.178.193c-.247.396-.537.688-.869.874-.328.183-.74.274-1.234.274zm.243-.975c.278 0 .515-.049.712-.147.196-.099.352-.219.467-.361a1.24 1.24 0 0 0 .239-.402c.064-.155.1-.333.107-.533.01-.203.015-.367.015-.493l.376.112c-.369.058-.686.108-.95.152a16.5 16.5 0 0 0-.681.127 4.59 4.59 0 0 0-.503.127c-.142.051-.263.11-.361.178a.79.79 0 0 0-.228.234.607.607 0 0 0-.077.31.65.65 0 0 0 .102.361.71.71 0 0 0 .295.243c.132.061.294.092.487.092zm4.178-5.497v-1.123h1.225v1.123h-1.225zm0 6.32v-5.487h1.225v5.487h-1.225zm2.848 0v-7.468h1.224v7.468h-1.224zm4.865.152c-.678 0-1.228-.152-1.651-.457-.424-.305-.681-.733-.773-1.285l1.25-.193c.065.271.207.484.427.64.22.156.498.233.833.233.295 0 .522-.057.681-.172a.567.567 0 0 0 .244-.483.461.461 0 0 0-.092-.3c-.057-.078-.186-.152-.386-.223-.2-.071-.506-.161-.919-.269-.461-.122-.827-.253-1.098-.392-.271-.142-.465-.31-.584-.503a1.318 1.318 0 0 1-.178-.701c0-.342.09-.64.27-.894.179-.254.43-.449.751-.584.322-.139.702-.208 1.138-.208.427 0 .805.066 1.133.198.332.132.6.32.803.564.203.244.329.53.376.858l-1.25.224a.786.786 0 0 0-.32-.554c-.179-.135-.42-.212-.721-.229-.288-.017-.52.028-.696.133-.176.101-.264.245-.264.431 0 .105.035.195.106.27.071.074.214.149.427.223.217.075.539.166.965.274.437.112.786.241 1.047.387.264.142.454.313.569.513.118.2.178.442.178.726 0 .552-.202.986-.605 1.301-.4.315-.953.472-1.661.472zm8.049 0c-.535 0-.984-.127-1.346-.381a2.334 2.334 0 0 1-.818-1.036 3.818 3.818 0 0 1-.274-1.479c0-.552.091-1.046.274-1.483.183-.437.451-.781.803-1.031.355-.254.794-.381 1.316-.381.518 0 .967.127 1.346.381.383.25.679.594.889 1.031.21.433.315.928.315 1.483 0 .549-.103 1.042-.31 1.479a2.523 2.523 0 0 1-.874 1.036c-.376.254-.816.381-1.321.381zm-2.647-.152v-7.316h1.235v3.465h-.152v3.851h-1.083zm2.459-.945c.319 0 .581-.08.788-.239a1.39 1.39 0 0 0 .457-.645c.102-.274.152-.579.152-.915 0-.331-.05-.633-.152-.904a1.395 1.395 0 0 0-.472-.65c-.214-.163-.485-.244-.813-.244-.312 0-.566.076-.762.229a1.305 1.305 0 0 0-.437.63c-.092.267-.137.58-.137.939 0 .356.045.669.137.94.095.271.242.483.442.635.203.149.469.224.797.224zm6.307 1.097c-.555 0-1.043-.12-1.463-.36a2.585 2.585 0 0 1-.986-1.001c-.233-.427-.35-.918-.35-1.474 0-.599.115-1.119.345-1.559a2.53 2.53 0 0 1 .961-1.032c.409-.243.884-.365 1.422-.365.569 0 1.052.133 1.448.401.4.264.696.638.889 1.123.193.484.266 1.055.219 1.712h-1.215v-.447c-.003-.596-.108-1.032-.315-1.306-.206-.274-.531-.411-.975-.411-.501 0-.874.155-1.118.467-.244.308-.366.76-.366 1.356 0 .556.122.986.366 1.291.244.305.6.457 1.067.457.302 0 .561-.066.777-.198.221-.136.39-.33.508-.584l1.21.366c-.21.494-.536.878-.976 1.153a2.67 2.67 0 0 1-1.448.411zm-1.89-2.555v-.925h3.775v.925h-3.775zm5.61 2.403v-7.468h1.224v7.468h-1.224zm5.169.152c-.548 0-1.028-.123-1.437-.371a2.544 2.544 0 0 1-.956-1.021c-.223-.437-.335-.938-.335-1.504 0-.575.115-1.08.346-1.514.23-.433.55-.772.96-1.016.41-.243.884-.365 1.422-.365.552 0 1.033.123 1.443.37.41.248.728.59.955 1.027.227.433.341.933.341 1.498 0 .569-.116 1.072-.346 1.509a2.541 2.541 0 0 1-.955 1.021c-.41.244-.889.366-1.438.366zm0-1.148c.488 0 .85-.162 1.088-.488.237-.325.355-.745.355-1.26 0-.531-.12-.955-.361-1.27-.24-.318-.601-.477-1.082-.477-.328 0-.599.074-.813.223-.21.146-.365.351-.467.615a2.488 2.488 0 0 0-.152.909c0 .532.12.957.36 1.276.244.315.602.472 1.072.472zm4.828.996-1.677-5.497 1.199.01 1.072 3.521 1.088-3.521h1.031l1.082 3.521 1.077-3.521h1.199l-1.676 5.487h-.956l-1.244-3.775-1.24 3.775h-.955zm11.445.152c-.548 0-1.027-.123-1.437-.371a2.541 2.541 0 0 1-.955-1.021c-.224-.437-.336-.938-.336-1.504 0-.575.115-1.08.346-1.514.23-.433.55-.772.96-1.016.41-.243.884-.365 1.422-.365.553 0 1.033.123 1.443.37.41.248.728.59.955 1.027.227.433.341.933.341 1.498 0 .569-.115 1.072-.346 1.509a2.541 2.541 0 0 1-.955 1.021c-.41.244-.889.366-1.438.366zm0-1.148c.488 0 .851-.162 1.088-.488.237-.325.355-.745.355-1.26 0-.531-.12-.955-.36-1.27-.241-.318-.602-.477-1.083-.477-.328 0-.599.074-.812.223-.21.146-.366.351-.468.615a2.51 2.51 0 0 0-.152.909c0 .532.12.957.361 1.276.243.315.601.472 1.071.472zm3.858.996v-5.487h1.082v1.336l-.132-.173c.068-.182.158-.348.269-.497.116-.153.253-.278.412-.376.135-.092.284-.163.447-.214.166-.054.335-.086.508-.096a2.05 2.05 0 0 1 .503.02v1.143a1.578 1.578 0 0 0-.564-.046 1.3 1.3 0 0 0-.569.178 1.275 1.275 0 0 0-.416.351 1.486 1.486 0 0 0-.234.487 2.14 2.14 0 0 0-.076.585v2.789h-1.23zm6.194-6.32v-1.123h1.225v1.123h-1.225zm0 6.32v-5.487h1.225v5.487h-1.225zm9.336 0v-3.333c0-.376-.093-.669-.28-.879-.186-.213-.438-.32-.757-.32-.196 0-.372.046-.528.137a.935.935 0 0 0-.371.397 1.31 1.31 0 0 0-.137.619l-.544-.32a1.886 1.886 0 0 1 .254-1.001 1.86 1.86 0 0 1 .712-.68 2.04 2.04 0 0 1 .995-.244c.607 0 1.071.183 1.392.549.326.362.488.839.488 1.432v3.643h-1.224zm-6.6 0v-5.487h1.082v1.702h.153v3.785h-1.235zm3.308 0v-3.318c0-.382-.093-.68-.28-.894-.186-.213-.44-.32-.762-.32a.96.96 0 0 0-.752.32c-.186.214-.279.491-.279.833l-.549-.365c0-.356.088-.676.264-.961a1.88 1.88 0 0 1 .712-.67 2.058 2.058 0 0 1 1.011-.249c.409 0 .752.088 1.026.264.278.173.484.41.62.711.139.298.208.635.208 1.011v3.638h-1.219zm8.478.152c-.535 0-.984-.127-1.346-.381a2.328 2.328 0 0 1-.818-1.036 3.818 3.818 0 0 1-.275-1.479c0-.552.092-1.046.275-1.483.183-.437.45-.781.802-1.031.356-.254.795-.381 1.316-.381.518 0 .967.127 1.347.381.382.25.679.594.889 1.031.21.433.315.928.315 1.483 0 .549-.104 1.042-.31 1.479a2.523 2.523 0 0 1-.874 1.036c-.376.254-.816.381-1.321.381zm-2.647 2.286v-7.925h1.082v3.851h.153v4.074h-1.235zm2.459-3.383c.318 0 .581-.08.787-.239.207-.159.36-.374.458-.645a2.63 2.63 0 0 0 .152-.915c0-.331-.051-.633-.152-.904a1.39 1.39 0 0 0-.473-.65c-.213-.163-.484-.244-.813-.244-.311 0-.565.076-.762.229a1.311 1.311 0 0 0-.437.63c-.091.267-.137.58-.137.939 0 .356.046.669.137.94.095.271.243.483.442.635.204.149.47.224.798.224zm6.236 1.097c-.549 0-1.028-.123-1.438-.371a2.541 2.541 0 0 1-.955-1.021c-.224-.437-.335-.938-.335-1.504 0-.575.115-1.08.345-1.514.23-.433.55-.772.96-1.016.41-.243.884-.365 1.423-.365.552 0 1.033.123 1.443.37.409.248.728.59.955 1.027.227.433.34.933.34 1.498 0 .569-.115 1.072-.345 1.509a2.548 2.548 0 0 1-.955 1.021c-.41.244-.889.366-1.438.366zm0-1.148c.488 0 .85-.162 1.087-.488.237-.325.356-.745.356-1.26 0-.531-.121-.955-.361-1.27-.241-.318-.601-.477-1.082-.477-.329 0-.6.074-.813.223-.21.146-.366.351-.467.615a2.488 2.488 0 0 0-.153.909c0 .532.12.957.361 1.276.244.315.601.472 1.072.472zm3.858.996v-5.487h1.082v1.336l-.132-.173c.067-.182.157-.348.269-.497.115-.153.252-.278.411-.376.136-.092.285-.163.447-.214.166-.054.336-.086.508-.096.173-.014.341-.007.503.02v1.143a1.576 1.576 0 0 0-.564-.046 1.307 1.307 0 0 0-.569.178 1.275 1.275 0 0 0-.416.351 1.486 1.486 0 0 0-.234.487 2.14 2.14 0 0 0-.076.585v2.789h-1.229zm7.274 0a4.998 4.998 0 0 1-1.067.086 2.443 2.443 0 0 1-.93-.188 1.293 1.293 0 0 1-.625-.574 1.642 1.642 0 0 1-.198-.726c-.007-.248-.01-.527-.01-.839v-4.77h1.219v4.699c0 .22.002.413.005.579a.844.844 0 0 0 .107.407c.122.203.317.317.584.34.268.024.573.01.915-.04v1.026zm-3.826-4.527v-.96h3.826v.96h-3.826zm9.423 4.679c-.566 0-1.049-.125-1.448-.376a2.497 2.497 0 0 1-.92-1.036 3.426 3.426 0 0 1-.32-1.484c.003-.562.113-1.06.33-1.493a2.49 2.49 0 0 1 .935-1.026c.403-.251.882-.376 1.438-.376.623 0 1.15.157 1.58.472.433.312.716.738.848 1.28l-1.219.331a1.323 1.323 0 0 0-.473-.686 1.214 1.214 0 0 0-.751-.249c-.319 0-.581.076-.788.228a1.296 1.296 0 0 0-.457.62 2.572 2.572 0 0 0-.148.899c0 .522.117.944.351 1.265.234.322.581.483 1.042.483.325 0 .58-.074.767-.223.189-.149.332-.365.426-.646l1.25.28c-.169.559-.466.989-.889 1.29-.423.298-.941.447-1.554.447zm5.736 0c-.549 0-1.028-.123-1.438-.371a2.541 2.541 0 0 1-.955-1.021c-.224-.437-.335-.938-.335-1.504 0-.575.115-1.08.345-1.514.23-.433.55-.772.96-1.016.41-.243.884-.365 1.423-.365.552 0 1.033.123 1.443.37.409.248.728.59.955 1.027.227.433.34.933.34 1.498 0 .569-.115 1.072-.345 1.509a2.548 2.548 0 0 1-.955 1.021c-.41.244-.89.366-1.438.366zm0-1.148c.487 0 .85-.162 1.087-.488.237-.325.356-.745.356-1.26 0-.531-.121-.955-.361-1.27-.241-.318-.601-.477-1.082-.477-.329 0-.6.074-.813.223-.21.146-.366.351-.467.615a2.488 2.488 0 0 0-.153.909c0 .532.12.957.361 1.276.244.315.601.472 1.072.472zm7.653.996v-2.642c0-.173-.012-.364-.036-.574a1.997 1.997 0 0 0-.168-.605 1.138 1.138 0 0 0-.386-.482c-.169-.126-.399-.188-.691-.188-.156 0-.31.025-.462.076a1.076 1.076 0 0 0-.417.264c-.122.122-.22.291-.294.508-.075.214-.112.488-.112.823l-.727-.31c0-.467.09-.89.27-1.27a2.16 2.16 0 0 1 .802-.904c.353-.227.786-.34 1.301-.34.406 0 .742.067 1.006.203.264.135.474.308.63.518.156.21.271.433.345.671.075.237.122.462.143.675.023.21.035.381.035.513v3.064h-1.239zm-3.806 0v-5.487h1.093v1.702h.147v3.785h-1.24zm9.587 0a4.998 4.998 0 0 1-1.067.086 2.443 2.443 0 0 1-.93-.188 1.293 1.293 0 0 1-.625-.574 1.642 1.642 0 0 1-.198-.726c-.007-.248-.01-.527-.01-.839v-4.77h1.219v4.699c0 .22.002.413.005.579a.844.844 0 0 0 .107.407c.122.203.317.317.584.34.268.024.573.01.915-.04v1.026zm-3.826-4.527v-.96h3.826v.96h-3.826zm6.54 4.679c-.396 0-.732-.074-1.006-.223a1.584 1.584 0 0 1-.625-.605 1.677 1.677 0 0 1-.208-.828c0-.264.044-.501.132-.711a1.4 1.4 0 0 1 .406-.549 2.13 2.13 0 0 1 .712-.381 6.83 6.83 0 0 1 .772-.193c.298-.058.62-.11.965-.157.349-.051.713-.105 1.092-.163l-.437.249c.004-.379-.081-.659-.254-.838-.172-.18-.464-.27-.873-.27-.248 0-.486.058-.717.173-.23.115-.391.313-.482.595l-1.118-.351c.135-.464.393-.837.772-1.118.383-.281.898-.421 1.545-.421.487 0 .916.079 1.285.238.373.16.649.42.828.783.098.193.158.391.178.594.02.2.03.418.03.656v3.368h-1.072v-1.189l.178.193c-.247.396-.537.688-.869.874-.328.183-.74.274-1.234.274zm.244-.975c.278 0 .515-.049.711-.147.196-.099.352-.219.467-.361.119-.142.199-.276.239-.402.065-.155.1-.333.107-.533.01-.203.015-.367.015-.493l.376.112c-.369.058-.686.108-.95.152a16.5 16.5 0 0 0-.681.127c-.189.038-.357.08-.503.127-.142.051-.262.11-.36.178a.782.782 0 0 0-.229.234.606.606 0 0 0-.076.31c0 .135.034.256.101.361a.71.71 0 0 0 .295.243c.132.061.295.092.488.092zm6.459.975c-.566 0-1.049-.125-1.448-.376a2.504 2.504 0 0 1-.92-1.036 3.44 3.44 0 0 1-.32-1.484c.004-.562.114-1.06.33-1.493.221-.437.532-.779.935-1.026.403-.251.882-.376 1.438-.376.623 0 1.15.157 1.58.472.433.312.716.738.848 1.28l-1.219.331a1.328 1.328 0 0 0-.472-.686 1.219 1.219 0 0 0-.752-.249c-.319 0-.581.076-.788.228a1.303 1.303 0 0 0-.457.62 2.572 2.572 0 0 0-.147.899c0 .522.117.944.35 1.265.234.322.581.483 1.042.483.325 0 .581-.074.767-.223.19-.149.332-.365.427-.646l1.249.28c-.169.559-.465.989-.889 1.29-.423.298-.941.447-1.554.447zm6.677-.152a4.993 4.993 0 0 1-1.067.086 2.438 2.438 0 0 1-.929-.188 1.284 1.284 0 0 1-.625-.574 1.642 1.642 0 0 1-.198-.726c-.007-.248-.01-.527-.01-.839v-4.77h1.219v4.699c0 .22.002.413.005.579a.833.833 0 0 0 .107.407c.122.203.316.317.584.34.267.024.572.01.914-.04v1.026zm-3.825-4.527v-.96h3.825v.96h-3.825zm7.124 4.679c-.678 0-1.228-.152-1.651-.457-.424-.305-.681-.733-.773-1.285l1.25-.193c.065.271.207.484.427.64.22.156.498.233.833.233.295 0 .522-.057.681-.172a.57.57 0 0 0 .244-.483.461.461 0 0 0-.092-.3c-.057-.078-.186-.152-.386-.223-.2-.071-.506-.161-.919-.269-.461-.122-.827-.253-1.098-.392-.271-.142-.465-.31-.584-.503a1.309 1.309 0 0 1-.178-.701c0-.342.09-.64.269-.894.18-.254.431-.449.752-.584.322-.139.701-.208 1.138-.208.427 0 .805.066 1.133.198.332.132.6.32.803.564.203.244.329.53.376.858l-1.25.224a.786.786 0 0 0-.32-.554c-.179-.135-.42-.212-.721-.229-.288-.017-.52.028-.696.133-.176.101-.265.245-.265.431a.38.38 0 0 0 .107.27c.071.074.214.149.427.223.217.075.538.166.965.274.437.112.786.241 1.047.387.264.142.454.313.569.513.118.2.178.442.178.726 0 .552-.202.986-.605 1.301-.4.315-.953.472-1.661.472z" fill="#AAA9C4"/><rect x="67.188" y="141.715" width="163" height="41" rx="7.5" fill="#E8F6FF"/><circle cx="87.688" cy="162.215" r="8" stroke="#237FD3" stroke-width="2"/><path d="M120.726 167.395c-.632 0-1.202-.11-1.71-.33a3.23 3.23 0 0 1-1.248-.942c-.324-.412-.53-.9-.618-1.464l1.5-.228c.128.512.39.908.786 1.188.4.28.86.42 1.38.42.308 0 .598-.048.87-.144a1.59 1.59 0 0 0 .66-.42.956.956 0 0 0 .258-.678.88.88 0 0 0-.06-.33.785.785 0 0 0-.18-.276 1.114 1.114 0 0 0-.3-.216 2.04 2.04 0 0 0-.42-.174l-2.232-.66c-.192-.056-.4-.13-.624-.222a2.69 2.69 0 0 1-.63-.39 2.006 2.006 0 0 1-.486-.636c-.124-.26-.186-.58-.186-.96 0-.556.14-1.022.42-1.398.284-.38.664-.664 1.14-.852a4.26 4.26 0 0 1 1.596-.276c.592.004 1.12.106 1.584.306.464.196.852.482 1.164.858.312.376.532.83.66 1.362l-1.554.27a1.687 1.687 0 0 0-.372-.774 1.736 1.736 0 0 0-.666-.492 2.241 2.241 0 0 0-1.638-.048 1.444 1.444 0 0 0-.594.384.862.862 0 0 0-.222.588c0 .212.064.386.192.522.128.132.286.238.474.318.192.076.386.14.582.192l1.548.432c.212.056.45.132.714.228.264.096.518.23.762.402.244.172.444.398.6.678.16.28.24.636.24 1.068 0 .448-.094.842-.282 1.182a2.475 2.475 0 0 1-.75.84 3.43 3.43 0 0 1-1.086.504 4.74 4.74 0 0 1-1.272.168zm7.634 0c-.656 0-1.232-.142-1.728-.426a3.034 3.034 0 0 1-1.164-1.182c-.276-.504-.414-1.084-.414-1.74 0-.708.136-1.322.408-1.842a2.98 2.98 0 0 1 1.134-1.218c.484-.288 1.044-.432 1.68-.432.672 0 1.242.158 1.71.474.472.312.822.754 1.05 1.326.228.572.314 1.246.258 2.022h-1.434v-.528c-.004-.704-.128-1.218-.372-1.542-.244-.324-.628-.486-1.152-.486-.592 0-1.032.184-1.32.552-.288.364-.432.898-.432 1.602 0 .656.144 1.164.432 1.524.288.36.708.54 1.26.54.356 0 .662-.078.918-.234.26-.16.46-.39.6-.69l1.428.432a2.894 2.894 0 0 1-1.152 1.362 3.151 3.151 0 0 1-1.71.486zm-2.232-3.018v-1.092h4.458v1.092h-4.458zm9.443 3.018c-.632 0-1.162-.15-1.59-.45-.428-.3-.75-.708-.966-1.224a4.512 4.512 0 0 1-.324-1.746c0-.652.108-1.236.324-1.752.216-.516.532-.922.948-1.218.42-.3.938-.45 1.554-.45.612 0 1.142.15 1.59.45.452.296.802.702 1.05 1.218.248.512.372 1.096.372 1.752 0 .648-.122 1.23-.366 1.746a2.979 2.979 0 0 1-1.032 1.224c-.444.3-.964.45-1.56.45zm-3.126 2.7v-9.36h1.278v4.548h.18v4.812h-1.458zm2.904-3.996c.376 0 .686-.094.93-.282.244-.188.424-.442.54-.762.12-.324.18-.684.18-1.08 0-.392-.06-.748-.18-1.068a1.643 1.643 0 0 0-.558-.768c-.252-.192-.572-.288-.96-.288-.368 0-.668.09-.9.27a1.544 1.544 0 0 0-.516.744 3.435 3.435 0 0 0-.162 1.11c0 .42.054.79.162 1.11.112.32.286.57.522.75.24.176.554.264.942.264zm6.315 1.296c-.468 0-.864-.088-1.188-.264a1.867 1.867 0 0 1-.738-.714 1.984 1.984 0 0 1-.246-.978c0-.312.052-.592.156-.84.104-.252.264-.468.48-.648.216-.184.496-.334.84-.45.26-.084.564-.16.912-.228.352-.068.732-.13 1.14-.186.412-.06.842-.124 1.29-.192l-.516.294c.004-.448-.096-.778-.3-.99-.204-.212-.548-.318-1.032-.318a1.87 1.87 0 0 0-.846.204c-.272.136-.462.37-.57.702l-1.32-.414c.16-.548.464-.988.912-1.32.452-.332 1.06-.498 1.824-.498.576 0 1.082.094 1.518.282.44.188.766.496.978.924.116.228.186.462.21.702.024.236.036.494.036.774v3.978h-1.266v-1.404l.21.228c-.292.468-.634.812-1.026 1.032-.388.216-.874.324-1.458.324zm.288-1.152c.328 0 .608-.058.84-.174.232-.116.416-.258.552-.426.14-.168.234-.326.282-.474a1.8 1.8 0 0 0 .126-.63c.012-.24.018-.434.018-.582l.444.132c-.436.068-.81.128-1.122.18-.312.052-.58.102-.804.15a5.122 5.122 0 0 0-.594.15c-.168.06-.31.13-.426.21a.93.93 0 0 0-.27.276.72.72 0 0 0-.09.366c0 .16.04.302.12.426.08.12.196.216.348.288.156.072.348.108.576.108zm4.814.972v-6.48h1.278v1.578l-.156-.204c.08-.216.186-.412.318-.588a1.77 1.77 0 0 1 .486-.444c.16-.108.336-.192.528-.252.196-.064.396-.102.6-.114a2.44 2.44 0 0 1 .594.024v1.35a1.855 1.855 0 0 0-.666-.054c-.248.02-.472.09-.672.21a1.51 1.51 0 0 0-.492.414c-.124.168-.216.36-.276.576-.06.212-.09.442-.09.69v3.294h-1.452zm6.452.18c-.468 0-.864-.088-1.188-.264a1.867 1.867 0 0 1-.738-.714 1.984 1.984 0 0 1-.246-.978c0-.312.052-.592.156-.84.104-.252.264-.468.48-.648.216-.184.496-.334.84-.45.26-.084.564-.16.912-.228.352-.068.732-.13 1.14-.186.412-.06.842-.124 1.29-.192l-.516.294c.004-.448-.096-.778-.3-.99-.204-.212-.548-.318-1.032-.318a1.87 1.87 0 0 0-.846.204c-.272.136-.462.37-.57.702l-1.32-.414c.16-.548.464-.988.912-1.32.452-.332 1.06-.498 1.824-.498.576 0 1.082.094 1.518.282.44.188.766.496.978.924.116.228.186.462.21.702.024.236.036.494.036.774v3.978h-1.266v-1.404l.21.228c-.292.468-.634.812-1.026 1.032-.388.216-.874.324-1.458.324zm.288-1.152c.328 0 .608-.058.84-.174.232-.116.416-.258.552-.426.14-.168.234-.326.282-.474a1.8 1.8 0 0 0 .126-.63c.012-.24.018-.434.018-.582l.444.132c-.436.068-.81.128-1.122.18-.312.052-.58.102-.804.15a5.122 5.122 0 0 0-.594.15c-.168.06-.31.13-.426.21a.93.93 0 0 0-.27.276.72.72 0 0 0-.09.366c0 .16.04.302.12.426.08.12.196.216.348.288.156.072.348.108.576.108zm8.612.972c-.428.08-.848.114-1.26.102a2.888 2.888 0 0 1-1.098-.222 1.522 1.522 0 0 1-.738-.678 1.932 1.932 0 0 1-.234-.858 36.51 36.51 0 0 1-.012-.99v-5.634h1.44v5.55c0 .26.002.488.006.684.008.196.05.356.126.48.144.24.374.374.69.402.316.028.676.012 1.08-.048v1.212zm-4.518-5.346v-1.134h4.518v1.134H157.6zm8.53 5.526c-.656 0-1.232-.142-1.728-.426a3.034 3.034 0 0 1-1.164-1.182c-.276-.504-.414-1.084-.414-1.74 0-.708.136-1.322.408-1.842a2.98 2.98 0 0 1 1.134-1.218c.484-.288 1.044-.432 1.68-.432.672 0 1.242.158 1.71.474.472.312.822.754 1.05 1.326.228.572.314 1.246.258 2.022h-1.434v-.528c-.004-.704-.128-1.218-.372-1.542-.244-.324-.628-.486-1.152-.486-.592 0-1.032.184-1.32.552-.288.364-.432.898-.432 1.602 0 .656.144 1.164.432 1.524.288.36.708.54 1.26.54.356 0 .662-.078.918-.234.26-.16.46-.39.6-.69l1.428.432a2.894 2.894 0 0 1-1.152 1.362 3.151 3.151 0 0 1-1.71.486zm-2.232-3.018v-1.092h4.458v1.092h-4.458zm6.625 2.838v-8.82h1.446v8.82h-1.446zm4.095 2.88 1.248-3.426.024 1.008-2.826-6.942h1.506l2.004 5.136h-.384l1.95-5.136h1.446l-3.612 9.36h-1.356z" fill="#237FD3"/><circle cx="88" cy="162" r="4" fill="#237FD3"/><rect x="67.188" y="141.715" width="163" height="41" rx="7.5" stroke="#F2F4F7"/><rect x="250.188" y="141.715" width="163" height="41" rx="7.5" fill="#fff"/><circle cx="270.688" cy="162.215" r="8" stroke="#AAA9C4" stroke-width="2"/><path d="M303.726 167.395c-.632 0-1.202-.11-1.71-.33a3.23 3.23 0 0 1-1.248-.942c-.324-.412-.53-.9-.618-1.464l1.5-.228c.128.512.39.908.786 1.188.4.28.86.42 1.38.42.308 0 .598-.048.87-.144a1.59 1.59 0 0 0 .66-.42.956.956 0 0 0 .258-.678.88.88 0 0 0-.06-.33.785.785 0 0 0-.18-.276 1.114 1.114 0 0 0-.3-.216 2.04 2.04 0 0 0-.42-.174l-2.232-.66c-.192-.056-.4-.13-.624-.222a2.69 2.69 0 0 1-.63-.39 2.006 2.006 0 0 1-.486-.636c-.124-.26-.186-.58-.186-.96 0-.556.14-1.022.42-1.398.284-.38.664-.664 1.14-.852a4.26 4.26 0 0 1 1.596-.276c.592.004 1.12.106 1.584.306.464.196.852.482 1.164.858.312.376.532.83.66 1.362l-1.554.27a1.687 1.687 0 0 0-.372-.774 1.736 1.736 0 0 0-.666-.492 2.241 2.241 0 0 0-1.638-.048 1.444 1.444 0 0 0-.594.384.862.862 0 0 0-.222.588c0 .212.064.386.192.522.128.132.286.238.474.318.192.076.386.14.582.192l1.548.432c.212.056.45.132.714.228.264.096.518.23.762.402.244.172.444.398.6.678.16.28.24.636.24 1.068 0 .448-.094.842-.282 1.182a2.475 2.475 0 0 1-.75.84 3.43 3.43 0 0 1-1.086.504 4.74 4.74 0 0 1-1.272.168zm7.634 0c-.656 0-1.232-.142-1.728-.426a3.034 3.034 0 0 1-1.164-1.182c-.276-.504-.414-1.084-.414-1.74 0-.708.136-1.322.408-1.842a2.98 2.98 0 0 1 1.134-1.218c.484-.288 1.044-.432 1.68-.432.672 0 1.242.158 1.71.474.472.312.822.754 1.05 1.326.228.572.314 1.246.258 2.022h-1.434v-.528c-.004-.704-.128-1.218-.372-1.542-.244-.324-.628-.486-1.152-.486-.592 0-1.032.184-1.32.552-.288.364-.432.898-.432 1.602 0 .656.144 1.164.432 1.524.288.36.708.54 1.26.54.356 0 .662-.078.918-.234.26-.16.46-.39.6-.69l1.428.432a2.894 2.894 0 0 1-1.152 1.362 3.151 3.151 0 0 1-1.71.486zm-2.232-3.018v-1.092h4.458v1.092h-4.458zm9.103 3.018c-.596 0-1.116-.15-1.56-.45a2.979 2.979 0 0 1-1.032-1.224c-.244-.516-.366-1.098-.366-1.746 0-.656.122-1.24.366-1.752a2.946 2.946 0 0 1 1.05-1.218c.452-.3.984-.45 1.596-.45.616 0 1.132.15 1.548.45.42.296.738.702.954 1.218.216.516.324 1.1.324 1.752 0 .644-.108 1.226-.324 1.746a2.755 2.755 0 0 1-.966 1.224c-.428.3-.958.45-1.59.45zm.222-1.296c.388 0 .7-.088.936-.264.24-.18.414-.43.522-.75.112-.32.168-.69.168-1.11 0-.424-.056-.794-.168-1.11a1.509 1.509 0 0 0-.51-.744c-.232-.18-.532-.27-.9-.27-.388 0-.708.096-.96.288a1.643 1.643 0 0 0-.558.768c-.12.32-.18.676-.18 1.068 0 .396.058.756.174 1.08.12.32.302.574.546.762.244.188.554.282.93.282zm1.446 3.996v-4.812h.18v-4.548h1.278v9.36h-1.458zm5.57-2.694c-.48 0-.876-.08-1.188-.24a2.098 2.098 0 0 1-.744-.612 2.664 2.664 0 0 1-.408-.792 4.24 4.24 0 0 1-.174-.792 6.745 6.745 0 0 1-.036-.612v-3.618h1.464v3.12c0 .2.014.426.042.678.028.248.092.488.192.72.104.228.256.416.456.564.204.148.478.222.822.222.184 0 .366-.03.546-.09.18-.06.342-.162.486-.306.148-.148.266-.35.354-.606.088-.256.132-.58.132-.972l.858.366c0 .552-.108 1.052-.324 1.5a2.552 2.552 0 0 1-.942 1.074c-.416.264-.928.396-1.536.396zm2.118-.186v-2.01h-.174v-4.47h1.452v6.48h-1.278zm5.91.18c-.656 0-1.232-.142-1.728-.426a3.034 3.034 0 0 1-1.164-1.182c-.276-.504-.414-1.084-.414-1.74 0-.708.136-1.322.408-1.842a2.98 2.98 0 0 1 1.134-1.218c.484-.288 1.044-.432 1.68-.432.672 0 1.242.158 1.71.474.472.312.822.754 1.05 1.326.228.572.314 1.246.258 2.022h-1.434v-.528c-.004-.704-.128-1.218-.372-1.542-.244-.324-.628-.486-1.152-.486-.592 0-1.032.184-1.32.552-.288.364-.432.898-.432 1.602 0 .656.144 1.164.432 1.524.288.36.708.54 1.26.54.356 0 .662-.078.918-.234.26-.16.46-.39.6-.69l1.428.432a2.894 2.894 0 0 1-1.152 1.362 3.151 3.151 0 0 1-1.71.486zm-2.232-3.018v-1.092h4.458v1.092h-4.458zm10.811 2.838v-3.12c0-.204-.014-.43-.042-.678a2.344 2.344 0 0 0-.198-.714 1.354 1.354 0 0 0-.456-.57c-.2-.148-.472-.222-.816-.222-.184 0-.366.03-.546.09-.18.06-.344.164-.492.312-.144.144-.26.344-.348.6-.088.252-.132.576-.132.972l-.858-.366c0-.552.106-1.052.318-1.5.216-.448.532-.804.948-1.068.416-.268.928-.402 1.536-.402.48 0 .876.08 1.188.24.312.16.56.364.744.612.184.248.32.512.408.792.088.28.144.546.168.798.028.248.042.45.042.606v3.618h-1.464zm-4.494 0v-6.48h1.29v2.01h.174v4.47h-1.464zm11.322 0c-.428.08-.848.114-1.26.102a2.888 2.888 0 0 1-1.098-.222 1.522 1.522 0 0 1-.738-.678 1.932 1.932 0 0 1-.234-.858 36.51 36.51 0 0 1-.012-.99v-5.634h1.44v5.55c0 .26.002.488.006.684.008.196.05.356.126.48.144.24.374.374.69.402.316.028.676.012 1.08-.048v1.212zm-4.518-5.346v-1.134h4.518v1.134h-4.518zm6.031-2.118v-1.326h1.446v1.326h-1.446zm0 7.464v-6.48h1.446v6.48h-1.446zm5.055.18c-.468 0-.864-.088-1.188-.264a1.867 1.867 0 0 1-.738-.714 1.984 1.984 0 0 1-.246-.978c0-.312.052-.592.156-.84.104-.252.264-.468.48-.648.216-.184.496-.334.84-.45.26-.084.564-.16.912-.228.352-.068.732-.13 1.14-.186.412-.06.842-.124 1.29-.192l-.516.294c.004-.448-.096-.778-.3-.99-.204-.212-.548-.318-1.032-.318a1.87 1.87 0 0 0-.846.204c-.272.136-.462.37-.57.702l-1.32-.414c.16-.548.464-.988.912-1.32.452-.332 1.06-.498 1.824-.498.576 0 1.082.094 1.518.282.44.188.766.496.978.924.116.228.186.462.21.702.024.236.036.494.036.774v3.978h-1.266v-1.404l.21.228c-.292.468-.634.812-1.026 1.032-.388.216-.874.324-1.458.324zm.288-1.152c.328 0 .608-.058.84-.174.232-.116.416-.258.552-.426.14-.168.234-.326.282-.474a1.8 1.8 0 0 0 .126-.63c.012-.24.018-.434.018-.582l.444.132c-.436.068-.81.128-1.122.18-.312.052-.58.102-.804.15a5.122 5.122 0 0 0-.594.15c-.168.06-.31.13-.426.21a.93.93 0 0 0-.27.276.72.72 0 0 0-.09.366c0 .16.04.302.12.426.08.12.196.216.348.288.156.072.348.108.576.108zm4.934.972v-8.82h1.446v8.82h-1.446z" fill="#AAA9C4"/><rect x="250.188" y="141.715" width="163" height="41" rx="7.5" stroke="#F2F4F7"/><defs><filter id="b" x="-339" y="-185" width="727" height="727" filterUnits="userSpaceOnUse" color-interpolation-filters="sRGB"><feFlood flood-opacity="0" result="BackgroundImageFix"/><feBlend in="SourceGraphic" in2="BackgroundImageFix" result="shape"/><feGaussianBlur stdDeviation="75" result="effect1_foregroundBlur_10_204"/></filter><filter id="c" x="-82" y="-360" width="908" height="908" filterUnits="userSpaceOnUse" color-interpolation-filters="sRGB"><feFlood flood-opacity="0" result="BackgroundImageFix"/><feBlend in="SourceGraphic" in2="BackgroundImageFix" result="shape"/><feGaussianBlur stdDeviation="125" result="effect1_foregroundBlur_10_204"/></filter><filter id="d" x="-301" y="102" width="897" height="897" filterUnits="userSpaceOnUse" color-interpolation-filters="sRGB"><feFlood flood-opacity="0" result="BackgroundImageFix"/><feBlend in="SourceGraphic" in2="BackgroundImageFix" result="shape"/><feGaussianBlur stdDeviation="125" result="effect1_foregroundBlur_10_204"/></filter><filter id="f" x="89.419" y="265.733" width="400.247" height="160.247" filterUnits="userSpaceOnUse" color-interpolation-filters="sRGB"><feFlood flood-opacity="0" result="BackgroundImageFix"/><feColorMatrix in="SourceAlpha" values="0 0 0 0 0 0 0 0 0 0 0 0 0 0 0 0 0 0 127 0" result="hardAlpha"/><feOffset dx="23.543" dy="26.486"/><feGaussianBlur stdDeviation="22.562"/><feComposite in2="hardAlpha" operator="out"/><feColorMatrix values="0 0 0 0 0.145098 0 0 0 0 0.313726 0 0 0 0 0.65098 0 0 0 0.2 0"/><feBlend in2="BackgroundImageFix" result="effect1_dropShadow_10_204"/><feBlend in="SourceGraphic" in2="effect1_dropShadow_10_204" result="shape"/></filter></defs></svg>