<svg width="488" height="488" fill="none" xmlns="http://www.w3.org/2000/svg"><path fill="#E8F6FF" d="M0 0h488v488H0z"/><mask id="a" style="mask-type:alpha" maskUnits="userSpaceOnUse" x="0" y="0" width="488" height="488"><path fill="#fff" d="M0 0h488v488H0z"/></mask><g opacity=".5" mask="url(#a)"><g filter="url(#b)"><circle cx="24.5" cy="178.5" r="213.5" fill="#00CBA6"/></g><g filter="url(#c)"><circle cx="372" cy="94" r="204" fill="#237FD3"/></g><g filter="url(#d)"><circle cx="147.5" cy="550.5" r="198.5" fill="#D0D9EC"/></g></g><mask id="e" style="mask-type:alpha" maskUnits="userSpaceOnUse" x="44" y="44" width="400" height="400"><rect x="44" y="44" width="400" height="400" rx="8" fill="#D9D9D9"/></mask><g mask="url(#e)"><rect x="43.557" y="-16.697" width="399.77" height="460.698" rx="3.962" fill="#fff"/><rect x="43.43" y="-38" width="399.77" height="460.698" rx="3.962" fill="#fff"/><rect x="91.484" y="160.65" width="197.486" height="5.986" rx="2.993" fill="#EDEFF1"/><rect x="91.781" y="195.945" width="304.057" height="6.199" rx="3.1" fill="#EDEFF1"/><rect x="91.781" y="231.369" width="304.057" height="6.199" rx="3.1" fill="#EDEFF1"/><rect x="91.484" y="266.402" width="69.176" height="6.984" rx="3.492" fill="#EDEFF1"/><rect x="190.785" y="266.401" width="98.185" height="6.984" rx="3.492" fill="#EDEFF1"/><rect opacity=".5" x="294.5" y="340.5" width="106" height="45" rx="6.773" fill="#E8EDF8" stroke="#4F4F5F" stroke-dasharray="7.02 7.02"/><rect opacity=".5" x="86.5" y="340.5" width="155" height="45" rx="6.773" fill="#E8EDF8" stroke="#4F4F5F" stroke-dasharray="7.02 7.02"/><path d="M338.903 370.203c-.746 0-1.368-.194-1.865-.583-.493-.389-.839-.913-1.038-1.573l1.614-.387c.05.276.194.513.434.712.24.199.504.299.793.299.19 0 .392-.05.604-.149a.992.992 0 0 0 .475-.495c.063-.145.099-.317.108-.516.014-.203.021-.438.021-.705v-6.571h1.654v6.571c0 .303-.002.57-.006.8 0 .226-.023.441-.068.644a2.012 2.012 0 0 1-.251.617c-.267.462-.615.801-1.045 1.018a3.184 3.184 0 0 1-1.43.318zm9.618-.203-2.855-9.765h1.716l1.946 7.052 1.94-7.039 1.715-.013 1.947 7.052 1.939-7.052h1.716L355.737 370h-1.614l-2.001-6.944-1.987 6.944h-1.614z" fill="#D0D9EC"/><rect opacity=".5" x="318.5" y="86.5" width="79" height="29" rx="6.773" fill="#E8EDF8" stroke="#4F4F5F" stroke-dasharray="7.02 7.02"/><path d="M343.949 105v-9.766h3.113c.082 0 .242.003.482.007.244.005.479.02.705.048.773.1 1.426.375 1.96.827.538.448.945 1.02 1.221 1.716.275.696.413 1.458.413 2.285 0 .828-.138 1.589-.413 2.286a4.251 4.251 0 0 1-1.221 1.722c-.534.448-1.187.721-1.96.821a6.681 6.681 0 0 1-.699.047c-.244.005-.406.007-.488.007h-3.113zm1.662-1.539h1.451c.136 0 .308-.005.516-.014.212-.009.4-.029.562-.061a1.931 1.931 0 0 0 1.126-.617c.29-.326.502-.721.638-1.187.14-.466.21-.954.21-1.465 0-.529-.07-1.026-.21-1.492a2.946 2.946 0 0 0-.651-1.173 1.957 1.957 0 0 0-1.113-.603 2.89 2.89 0 0 0-.562-.062c-.208-.009-.38-.013-.516-.013h-1.451v6.687zm9.883 1.742c-.529 0-.976-.099-1.342-.298a2.102 2.102 0 0 1-.835-.807 2.247 2.247 0 0 1-.278-1.105c0-.353.059-.669.177-.95.117-.285.298-.529.542-.732.244-.208.561-.378.95-.509a9.022 9.022 0 0 1 1.03-.258c.398-.076.828-.146 1.289-.21.466-.068.952-.14 1.458-.217l-.583.333c.004-.507-.109-.88-.339-1.12-.231-.239-.62-.359-1.167-.359-.33 0-.648.077-.956.23-.307.155-.522.419-.644.794l-1.492-.468a2.77 2.77 0 0 1 1.031-1.492c.511-.375 1.198-.563 2.061-.563.651 0 1.223.107 1.716.32.497.212.866.56 1.105 1.043.132.258.211.523.238.794.027.267.04.558.04.875V105h-1.43v-1.587l.237.258c-.33.529-.717.918-1.16 1.166-.438.244-.988.366-1.648.366zm.326-1.302c.371 0 .687-.065.949-.196.262-.131.47-.292.624-.482.158-.19.265-.368.319-.536.086-.207.133-.445.142-.712.014-.271.021-.49.021-.657l.502.149c-.493.077-.916.144-1.269.203-.352.059-.655.116-.908.17-.254.05-.477.106-.672.169-.19.068-.35.147-.481.238-.131.09-.233.194-.305.312a.808.808 0 0 0-.102.413c0 .181.045.342.135.482a.949.949 0 0 0 .394.325c.176.082.393.122.651.122zm9.734 1.099c-.484.09-.959.129-1.424.115a3.245 3.245 0 0 1-1.241-.251 1.715 1.715 0 0 1-.835-.766 2.186 2.186 0 0 1-.264-.97c-.009-.33-.014-.703-.014-1.119v-6.368h1.628v6.273c0 .294.002.552.007.773.009.222.056.403.142.543.163.271.423.423.78.454.357.032.764.014 1.221-.054V105zm-5.107-6.042v-1.282h5.107v1.282h-5.107zm9.641 6.245c-.742 0-1.393-.16-1.954-.481a3.426 3.426 0 0 1-1.315-1.336c-.312-.57-.468-1.225-.468-1.967 0-.8.154-1.494.461-2.082a3.366 3.366 0 0 1 1.282-1.376c.547-.326 1.18-.489 1.899-.489.759 0 1.403.179 1.932.536.534.353.929.852 1.187 1.499.258.646.355 1.408.292 2.285h-1.621v-.596c-.005-.796-.145-1.377-.42-1.743-.276-.367-.71-.55-1.303-.55-.669 0-1.166.208-1.492.624-.325.412-.488 1.015-.488 1.811 0 .741.163 1.316.488 1.722.326.407.801.611 1.425.611.402 0 .748-.088 1.037-.265.294-.181.52-.44.678-.78l1.614.489a3.266 3.266 0 0 1-1.302 1.539 3.561 3.561 0 0 1-1.932.549zm-2.523-3.411v-1.234h5.039v1.234h-5.039z" fill="#D0D9EC"/></g><defs><filter id="b" x="-339" y="-185" width="727" height="727" filterUnits="userSpaceOnUse" color-interpolation-filters="sRGB"><feFlood flood-opacity="0" result="BackgroundImageFix"/><feBlend in="SourceGraphic" in2="BackgroundImageFix" result="shape"/><feGaussianBlur stdDeviation="75" result="effect1_foregroundBlur_15_216"/></filter><filter id="c" x="-82" y="-360" width="908" height="908" filterUnits="userSpaceOnUse" color-interpolation-filters="sRGB"><feFlood flood-opacity="0" result="BackgroundImageFix"/><feBlend in="SourceGraphic" in2="BackgroundImageFix" result="shape"/><feGaussianBlur stdDeviation="125" result="effect1_foregroundBlur_15_216"/></filter><filter id="d" x="-301" y="102" width="897" height="897" filterUnits="userSpaceOnUse" color-interpolation-filters="sRGB"><feFlood flood-opacity="0" result="BackgroundImageFix"/><feBlend in="SourceGraphic" in2="BackgroundImageFix" result="shape"/><feGaussianBlur stdDeviation="125" result="effect1_foregroundBlur_15_216"/></filter></defs></svg>