<svg width="488" height="518" fill="none" xmlns="http://www.w3.org/2000/svg"><path fill="#E8F6FF" d="M0 0h488v488H0z"/><mask id="a" style="mask-type:alpha" maskUnits="userSpaceOnUse" x="0" y="0" width="488" height="488"><path fill="#fff" d="M0 0h488v488H0z"/></mask><g opacity=".5" mask="url(#a)"><g filter="url(#b)"><circle cx="24.5" cy="178.5" r="213.5" fill="#00CBA6"/></g><g filter="url(#c)"><circle cx="372" cy="94" r="204" fill="#237FD3"/></g><g filter="url(#d)"><circle cx="147.5" cy="550.5" r="198.5" fill="#D0D9EC"/></g></g><g filter="url(#e)"><path fill-rule="evenodd" clip-rule="evenodd" d="M148 78.489C148 66.069 158.068 56 170.488 56h147.3c12.42 0 22.489 10.068 22.489 22.489v330.58c0 12.42-10.069 22.489-22.489 22.489h-147.3c-12.42 0-22.488-10.069-22.488-22.489V78.489zM176 104c-5.523 0-10 4.477-10 10v183c0 5.523 4.477 10 10 10h136c5.523 0 10-4.477 10-10V114c0-5.523-4.477-10-10-10H176z" fill="#fff"/><rect x="208.965" y="332.047" width="70.348" height="31.675" rx="15.838" fill="#237FD3"/><path d="M234.353 352.55a3.93 3.93 0 0 1-1.573-.303 2.98 2.98 0 0 1-1.148-.867 2.848 2.848 0 0 1-.569-1.347l1.38-.209c.118.471.359.835.724 1.092.368.258.791.387 1.269.387.284 0 .55-.044.801-.133.25-.088.452-.217.607-.386a.88.88 0 0 0 .237-.624.805.805 0 0 0-.055-.303.713.713 0 0 0-.166-.254 1.022 1.022 0 0 0-.276-.199 1.836 1.836 0 0 0-.386-.16l-2.054-.607a5.89 5.89 0 0 1-.574-.205 2.46 2.46 0 0 1-.579-.358 1.835 1.835 0 0 1-.447-.585c-.114-.24-.171-.534-.171-.884 0-.511.128-.94.386-1.286a2.36 2.36 0 0 1 1.049-.784 3.93 3.93 0 0 1 1.468-.254c.545.004 1.03.098 1.457.282.427.18.784.443 1.071.789.287.346.49.764.607 1.253l-1.429.249a1.545 1.545 0 0 0-.343-.712 1.587 1.587 0 0 0-.612-.453 2.036 2.036 0 0 0-1.507-.044 1.333 1.333 0 0 0-.547.353.794.794 0 0 0-.204.541c0 .195.059.355.177.48.118.122.263.219.436.293.176.07.355.129.535.177l1.424.397c.195.052.414.121.657.21.243.088.477.211.701.37.225.158.409.366.552.623.148.258.221.585.221.983 0 .412-.086.775-.259 1.087-.17.309-.4.567-.69.773a3.163 3.163 0 0 1-.999.464 4.367 4.367 0 0 1-1.171.154zm6.903 0c-.615 0-1.139-.136-1.573-.408a2.716 2.716 0 0 1-1-1.126c-.228-.475-.344-1.012-.347-1.612.003-.611.123-1.152.359-1.623a2.705 2.705 0 0 1 1.015-1.115c.438-.272.959-.408 1.562-.408.677 0 1.25.171 1.717.513.471.339.778.802.922 1.391l-1.325.359a1.443 1.443 0 0 0-.513-.745 1.319 1.319 0 0 0-.817-.271c-.346 0-.631.083-.856.249-.224.161-.39.386-.497.673-.106.287-.16.613-.16.977 0 .567.127 1.025.381 1.374.254.35.631.525 1.132.525.353 0 .631-.081.833-.243.206-.162.361-.396.464-.701l1.358.304c-.184.607-.506 1.074-.966 1.402-.46.323-1.023.485-1.689.485zm5.331 0c-.431 0-.795-.081-1.093-.243a1.717 1.717 0 0 1-.679-.656 1.828 1.828 0 0 1-.226-.9c0-.287.048-.545.143-.773.096-.232.243-.43.442-.596.199-.169.456-.307.773-.414.239-.077.519-.147.839-.21.324-.062.673-.119 1.049-.171.379-.055.774-.114 1.186-.177l-.474.271c.003-.412-.089-.716-.276-.911-.188-.195-.505-.292-.95-.292a1.72 1.72 0 0 0-.778.187c-.25.125-.425.341-.525.646l-1.214-.381c.147-.504.427-.909.839-1.214.416-.306.975-.458 1.678-.458.53 0 .996.086 1.397.259.404.173.704.456.899.85.107.21.172.425.194.646.022.217.033.454.033.712v3.66h-1.165v-1.292l.193.21c-.268.43-.583.747-.944.949-.357.199-.804.298-1.341.298zm.265-1.059c.302 0 .559-.054.773-.161.213-.106.382-.237.508-.391.128-.155.215-.3.259-.437.07-.169.109-.362.116-.579.011-.221.016-.399.016-.536l.409.122c-.401.062-.745.118-1.032.165-.287.048-.534.094-.74.138a4.914 4.914 0 0 0-.546.138c-.155.056-.286.12-.392.194a.845.845 0 0 0-.249.254.662.662 0 0 0-.083.336c0 .148.037.278.111.392.073.111.18.199.32.265.144.066.32.1.53.1zm8.552.894v-2.871c0-.187-.013-.395-.038-.623a2.151 2.151 0 0 0-.183-.657 1.245 1.245 0 0 0-.419-.525c-.184-.136-.434-.204-.751-.204-.169 0-.337.028-.502.083a1.15 1.15 0 0 0-.453.287 1.42 1.42 0 0 0-.32.552c-.081.232-.121.53-.121.894l-.79-.337c0-.507.098-.967.293-1.38.199-.412.489-.739.872-.982.383-.247.854-.37 1.413-.37.442 0 .806.074 1.093.221.287.147.515.335.685.563.169.228.294.471.375.729.081.257.132.502.154.734.026.228.039.414.039.557v3.329h-1.347zm-4.134 0v-5.962h1.187v1.849h.16v4.113h-1.347z" fill="#fff"/><rect x="208.965" y="332.047" width="70.348" height="31.675" rx="15.838" stroke="#E8F6FF" stroke-width="1.124"/><path fill-rule="evenodd" clip-rule="evenodd" d="M317.788 60.498h-34.576a2.249 2.249 0 0 0-2.249 2.248v5.06a6.746 6.746 0 0 1-6.746 6.747H214.06a6.747 6.747 0 0 1-6.747-6.746v-5.06a2.248 2.248 0 0 0-2.248-2.25h-34.577c-9.936 0-17.99 8.055-17.99 17.992v330.58c0 9.936 8.054 17.991 17.99 17.991h147.3c9.936 0 17.991-8.055 17.991-17.991V78.489c0-9.937-8.055-17.991-17.991-17.991zM170.488 56C158.068 56 148 66.068 148 78.489v330.58c0 12.42 10.068 22.489 22.488 22.489h147.3c12.42 0 22.489-10.069 22.489-22.489V78.489c0-12.42-10.069-22.489-22.489-22.489h-147.3z" fill="#237FD3"/></g><path d="M188.354 252.763a6.584 6.584 0 0 1-7.105-6.017l-6.513-78.564a6.583 6.583 0 0 1 6.016-7.105l118.428-9.818a6.583 6.583 0 0 1 7.104 6.017l6.514 78.564a6.583 6.583 0 0 1-6.017 7.104l-118.427 9.819z" fill="#fff"/><path d="m235.95 182.673 18.176-1.507 29.853-2.475M237.014 195.53l18.176-1.507 18.176-1.506M240.276 234.895l18.176-1.507 35.832-2.97M198.717 238.338l18.176-1.507" stroke="#C2E3F5" stroke-width="6.583" stroke-linecap="round"/><circle cx="205.663" cy="192.616" r="15.635" transform="rotate(-4.74 205.663 192.616)" fill="#00CBA6"/><circle cx="205.943" cy="187.586" r="3.5" transform="rotate(-4.74 205.943 187.586)" fill="#E8EDF8"/><path d="m214.534 200.419-7.474.62-7.475.62c-.302-3.643 1.051-9.118 6.731-9.589 5.681-.471 7.916 4.707 8.218 8.349z" fill="#E8EDF8"/><defs><filter id="b" x="-339" y="-185" width="727" height="727" filterUnits="userSpaceOnUse" color-interpolation-filters="sRGB"><feFlood flood-opacity="0" result="BackgroundImageFix"/><feBlend in="SourceGraphic" in2="BackgroundImageFix" result="shape"/><feGaussianBlur stdDeviation="75" result="effect1_foregroundBlur_1_5312"/></filter><filter id="c" x="-82" y="-360" width="908" height="908" filterUnits="userSpaceOnUse" color-interpolation-filters="sRGB"><feFlood flood-opacity="0" result="BackgroundImageFix"/><feBlend in="SourceGraphic" in2="BackgroundImageFix" result="shape"/><feGaussianBlur stdDeviation="125" result="effect1_foregroundBlur_1_5312"/></filter><filter id="d" x="-301" y="102" width="897" height="897" filterUnits="userSpaceOnUse" color-interpolation-filters="sRGB"><feFlood flood-opacity="0" result="BackgroundImageFix"/><feBlend in="SourceGraphic" in2="BackgroundImageFix" result="shape"/><feGaussianBlur stdDeviation="125" result="effect1_foregroundBlur_1_5312"/></filter><filter id="e" x="59" y="32" width="302.276" height="485.559" filterUnits="userSpaceOnUse" color-interpolation-filters="sRGB"><feFlood flood-opacity="0" result="BackgroundImageFix"/><feColorMatrix in="SourceAlpha" values="0 0 0 0 0 0 0 0 0 0 0 0 0 0 0 0 0 0 127 0" result="hardAlpha"/><feOffset dx="-34" dy="31"/><feGaussianBlur stdDeviation="27.5"/><feComposite in2="hardAlpha" operator="out"/><feColorMatrix values="0 0 0 0 0.145098 0 0 0 0 0.313726 0 0 0 0 0.65098 0 0 0 0.2 0"/><feBlend in2="BackgroundImageFix" result="effect1_dropShadow_1_5312"/><feBlend in="SourceGraphic" in2="effect1_dropShadow_1_5312" result="shape"/></filter></defs></svg>