<svg width="488" height="488" fill="none" xmlns="http://www.w3.org/2000/svg"><path fill="#ECF8FF" d="M0 0h488v488H0z"/><mask id="a" style="mask-type:alpha" maskUnits="userSpaceOnUse" x="0" y="0" width="488" height="488"><path fill="#fff" d="M0 0h488v488H0z"/></mask><g mask="url(#a)"><g opacity=".5"><g filter="url(#b)"><circle cx="24.5" cy="178.5" r="213.5" fill="#00CBA6"/></g><g filter="url(#c)"><circle cx="372" cy="94" r="204" fill="#237FD3"/></g><g filter="url(#d)"><circle cx="147.5" cy="550.5" r="198.5" fill="#C2E9FF"/></g></g><g filter="url(#e)"><path fill-rule="evenodd" clip-rule="evenodd" d="M180.3 83c-10.659 0-19.3 8.641-19.3 19.3v283.715c0 10.659 8.641 19.3 19.3 19.3h126.417c10.659 0 19.301-8.641 19.301-19.3V102.3c0-10.659-8.642-19.3-19.301-19.3H180.3z" fill="#fff"/><path d="M192.984 120c-2.524 0-4.569 1.931-4.569 4.313v4.287c-.802.587-.364 1.8.652 1.8h7.883c1.025 0 1.44-1.245.601-1.8v-4.287c0-2.382-2.045-4.313-4.567-4.313zM194.693 132.526c-.4.292-.961.474-1.58.474-1.217 0-2.203-.698-2.203-1.56h4.406c0 .422-.238.806-.623 1.086z" fill="#00CBA6"/><rect opacity=".5" x="176" y="269" width="41" height="135" rx="5" transform="rotate(-90 176 269)" fill="#D0D9EC"/><rect opacity=".5" x="176" y="376" width="41" height="135" rx="5" transform="rotate(-90 176 376)" fill="#D0D9EC"/><rect x="176.5" y="211.5" width="103" height="134" rx="4.5" transform="rotate(-90 176.5 211.5)" stroke="#EDEFF1"/><rect x="188" y="197.602" width="19.2" height="39" rx="9.6" transform="rotate(-90 188 197.602)" fill="#237FD3"/><path d="M188.932 163v-2.412L187 157.24h.68l1.548 2.676 1.54-2.676h.68l-1.924 3.348V163h-.592zm4.237.12c-.43 0-.796-.097-1.1-.292a1.897 1.897 0 0 1-.7-.808 2.735 2.735 0 0 1-.244-1.184c0-.453.082-.851.248-1.192.165-.341.4-.607.704-.796.306-.192.67-.288 1.092-.288.432 0 .8.097 1.104.292.306.192.54.46.7.804.162.341.244.735.244 1.18 0 .453-.082.852-.244 1.196a1.878 1.878 0 0 1-.704.8c-.307.192-.674.288-1.1.288zm0-.564c.48 0 .837-.159 1.072-.476.234-.32.352-.735.352-1.244 0-.523-.119-.939-.356-1.248-.235-.309-.591-.464-1.068-.464-.323 0-.59.073-.8.22a1.303 1.303 0 0 0-.468.604 2.388 2.388 0 0 0-.152.888c0 .52.12.937.36 1.252.24.312.593.468 1.06.468zm4.582.552a1.78 1.78 0 0 1-.68-.12 1.505 1.505 0 0 1-.492-.324 1.729 1.729 0 0 1-.324-.464 2.304 2.304 0 0 1-.18-.556 3.18 3.18 0 0 1-.056-.588v-2.376h.592v2.204c0 .237.023.457.068.66.045.203.117.38.216.532.101.149.231.265.388.348.16.083.353.124.58.124.208 0 .391-.036.548-.108.16-.072.293-.175.4-.308.109-.136.192-.3.248-.492.056-.195.084-.413.084-.656l.416.092c0 .443-.077.815-.232 1.116a1.613 1.613 0 0 1-.64.684 1.857 1.857 0 0 1-.936.232zm1.452-.108v-1.064h-.06v-3.256h.588V163h-.528zm3.248 0v-4.32h.528v1.04l-.104-.136a1.467 1.467 0 0 1 .44-.62c.112-.099.242-.173.392-.224.149-.053.3-.084.452-.092a1.3 1.3 0 0 1 .416.032v.552a1.436 1.436 0 0 0-.516-.028.978.978 0 0 0-.516.224 1.076 1.076 0 0 0-.324.404c-.072.155-.12.32-.144.496a3.751 3.751 0 0 0-.036.516V163h-.588zm4.632.12c-.421 0-.786-.093-1.096-.28a1.907 1.907 0 0 1-.716-.788c-.17-.339-.256-.736-.256-1.192 0-.472.084-.88.252-1.224.168-.344.404-.609.708-.796.307-.187.668-.28 1.084-.28.427 0 .791.099 1.092.296.302.195.53.475.684.84.155.365.226.801.212 1.308h-.6v-.208c-.01-.56-.132-.983-.364-1.268-.229-.285-.565-.428-1.008-.428-.464 0-.82.151-1.068.452-.245.301-.368.731-.368 1.288 0 .544.123.967.368 1.268.248.299.599.448 1.052.448.31 0 .579-.071.808-.212.232-.144.415-.351.548-.62l.548.212c-.17.376-.422.668-.756.876-.33.205-.705.308-1.124.308zm-1.652-2.116v-.492h3.3v.492h-3.3zm6.296 2.116c-.435 0-.803-.097-1.104-.292a1.865 1.865 0 0 1-.688-.804 2.938 2.938 0 0 1-.24-1.184c.005-.453.088-.851.248-1.192.16-.344.391-.611.692-.8.301-.192.667-.288 1.096-.288.437 0 .817.107 1.14.32.325.213.548.505.668.876l-.576.184a1.214 1.214 0 0 0-.484-.6 1.336 1.336 0 0 0-.752-.216c-.317 0-.58.073-.788.22a1.277 1.277 0 0 0-.464.604 2.504 2.504 0 0 0-.156.892c.005.517.125.933.36 1.248.235.312.584.468 1.048.468.293 0 .543-.067.748-.2.208-.136.365-.333.472-.592l.592.176c-.16.384-.395.677-.704.88-.309.2-.679.3-1.108.3zm4.349 0c-.422 0-.787-.093-1.096-.28a1.894 1.894 0 0 1-.716-.788c-.171-.339-.256-.736-.256-1.192 0-.472.084-.88.252-1.224.168-.344.404-.609.708-.796.306-.187.668-.28 1.084-.28.426 0 .79.099 1.092.296.301.195.529.475.684.84.154.365.225.801.212 1.308h-.6v-.208c-.011-.56-.132-.983-.364-1.268-.23-.285-.566-.428-1.008-.428-.464 0-.82.151-1.068.452-.246.301-.368.731-.368 1.288 0 .544.122.967.368 1.268.248.299.598.448 1.052.448.309 0 .578-.071.808-.212a1.49 1.49 0 0 0 .548-.62l.548.212a1.964 1.964 0 0 1-.756.876 2.092 2.092 0 0 1-1.124.308zm-1.652-2.116v-.492h3.3v.492h-3.3zm4.583-3.144v-.66h.588v.66h-.588zm0 5.14v-4.32h.588V163h-.588zm2.955 0-1.568-4.32h.596l1.276 3.552 1.268-3.552h.604L222.57 163h-.608zm4.567.12c-.422 0-.787-.093-1.096-.28a1.894 1.894 0 0 1-.716-.788c-.171-.339-.256-.736-.256-1.192 0-.472.084-.88.252-1.224.168-.344.404-.609.708-.796.306-.187.668-.28 1.084-.28.426 0 .79.099 1.092.296.301.195.529.475.684.84.154.365.225.801.212 1.308h-.6v-.208c-.011-.56-.132-.983-.364-1.268-.23-.285-.566-.428-1.008-.428-.464 0-.82.151-1.068.452-.246.301-.368.731-.368 1.288 0 .544.122.967.368 1.268.248.299.598.448 1.052.448.309 0 .578-.071.808-.212a1.49 1.49 0 0 0 .548-.62l.548.212a1.964 1.964 0 0 1-.756.876 2.092 2.092 0 0 1-1.124.308zm-1.652-2.116v-.492h3.3v.492h-3.3zm6.179 2.116c-.402 0-.746-.1-1.032-.3a1.95 1.95 0 0 1-.656-.82 2.851 2.851 0 0 1-.228-1.164c0-.429.075-.816.224-1.16.152-.344.37-.616.652-.816.283-.2.622-.3 1.016-.3.406 0 .747.099 1.024.296.278.197.487.468.628.812.144.341.216.731.216 1.168 0 .429-.07.817-.212 1.164a1.878 1.878 0 0 1-.624.82c-.274.2-.61.3-1.008.3zm.06-.548c.307 0 .56-.075.76-.224.2-.149.35-.355.448-.616a2.54 2.54 0 0 0 .148-.896c0-.339-.049-.637-.148-.896a1.308 1.308 0 0 0-.448-.612c-.197-.147-.446-.22-.748-.22-.309 0-.565.076-.768.228a1.358 1.358 0 0 0-.452.62 2.538 2.538 0 0 0-.144.88c0 .328.05.624.148.888.102.261.252.468.452.62.2.152.451.228.752.228zm1.356.428v-3.252h-.064v-2.508H233V163h-.528zm4.488.12c-.325 0-.599-.059-.82-.176a1.185 1.185 0 0 1-.492-.468 1.282 1.282 0 0 1-.164-.636c0-.235.047-.435.14-.6.096-.168.225-.305.388-.412.165-.107.356-.188.572-.244.219-.053.46-.1.724-.14.267-.043.527-.079.78-.108.256-.032.48-.063.672-.092l-.208.128c.008-.427-.075-.743-.248-.948-.173-.205-.475-.308-.904-.308-.296 0-.547.067-.752.2-.203.133-.345.344-.428.632l-.572-.168c.099-.387.297-.687.596-.9.299-.213.687-.32 1.164-.32.395 0 .729.075 1.004.224.277.147.473.36.588.64.053.125.088.265.104.42.016.155.024.312.024.472V163h-.524v-1.084l.152.064a1.716 1.716 0 0 1-.684.848c-.309.195-.68.292-1.112.292zm.068-.508c.275 0 .515-.049.72-.148a1.302 1.302 0 0 0 .74-.988c.032-.139.049-.291.052-.456.003-.168.004-.293.004-.376l.224.116c-.2.027-.417.053-.652.08-.232.027-.461.057-.688.092a6.007 6.007 0 0 0-.608.124 1.665 1.665 0 0 0-.356.148.818.818 0 0 0-.284.248.665.665 0 0 0-.108.388.78.78 0 0 0 .092.364.747.747 0 0 0 .304.292c.141.077.328.116.56.116zm6.535.508c-.435 0-.803-.097-1.104-.292a1.865 1.865 0 0 1-.688-.804 2.938 2.938 0 0 1-.24-1.184c.005-.453.088-.851.248-1.192.16-.344.391-.611.692-.8.301-.192.667-.288 1.096-.288.437 0 .817.107 1.14.32.325.213.548.505.668.876l-.576.184a1.214 1.214 0 0 0-.484-.6 1.336 1.336 0 0 0-.752-.216c-.317 0-.58.073-.788.22a1.277 1.277 0 0 0-.464.604 2.504 2.504 0 0 0-.156.892c.005.517.125.933.36 1.248.235.312.584.468 1.048.468.293 0 .543-.067.748-.2.208-.136.365-.333.472-.592l.592.176c-.16.384-.395.677-.704.88-.309.2-.679.3-1.108.3zm4.324 0c-.429 0-.796-.097-1.1-.292a1.904 1.904 0 0 1-.7-.808 2.75 2.75 0 0 1-.244-1.184c0-.453.083-.851.248-1.192.166-.341.4-.607.704-.796.307-.192.671-.288 1.092-.288.432 0 .8.097 1.104.292.307.192.54.46.7.804.163.341.244.735.244 1.18 0 .453-.081.852-.244 1.196a1.865 1.865 0 0 1-.704.8c-.306.192-.673.288-1.1.288zm0-.564c.48 0 .838-.159 1.072-.476.235-.32.352-.735.352-1.244 0-.523-.118-.939-.356-1.248-.234-.309-.59-.464-1.068-.464-.322 0-.589.073-.8.22a1.303 1.303 0 0 0-.468.604 2.408 2.408 0 0 0-.152.888c0 .52.12.937.36 1.252.24.312.594.468 1.06.468zm6.051.444v-2.204c0-.24-.023-.46-.068-.66a1.536 1.536 0 0 0-.22-.528 1.01 1.01 0 0 0-.388-.352 1.226 1.226 0 0 0-.576-.124c-.208 0-.392.036-.552.108a1.08 1.08 0 0 0-.4.312 1.39 1.39 0 0 0-.244.488 2.347 2.347 0 0 0-.084.656l-.416-.092c0-.443.077-.815.232-1.116.154-.301.368-.529.64-.684.272-.155.584-.232.936-.232.258 0 .484.04.676.12.194.08.358.188.492.324.136.136.245.292.328.468.082.173.142.359.18.556.037.195.056.389.056.584V163h-.592zm-3.124 0v-4.32h.532v1.064h.06V163h-.592zm7.106 0a2.85 2.85 0 0 1-.72.06 1.593 1.593 0 0 1-.632-.152.914.914 0 0 1-.42-.424 1.233 1.233 0 0 1-.128-.484 15.885 15.885 0 0 1-.008-.564v-3.956h.584v3.932c0 .181.001.333.004.456a.72.72 0 0 0 .084.32.602.602 0 0 0 .456.32c.21.035.47.027.78-.024V163zm-2.832-3.816v-.504h2.832v.504h-2.832zm3.683 3.816v-4.32h.528v1.04l-.104-.136c.048-.128.111-.245.188-.352.077-.109.161-.199.252-.268.112-.099.243-.173.392-.224.149-.053.3-.084.452-.092.152-.011.291 0 .416.032v.552a1.433 1.433 0 0 0-.516-.028.978.978 0 0 0-.516.224 1.076 1.076 0 0 0-.324.404c-.072.155-.12.32-.144.496a3.751 3.751 0 0 0-.036.516V163h-.588zm3.955.12c-.326 0-.599-.059-.82-.176a1.185 1.185 0 0 1-.492-.468 1.272 1.272 0 0 1-.164-.636c0-.235.046-.435.14-.6.096-.168.225-.305.388-.412.165-.107.356-.188.572-.244.218-.053.46-.1.724-.14.266-.043.526-.079.78-.108.256-.032.48-.063.672-.092l-.208.128c.008-.427-.075-.743-.248-.948-.174-.205-.475-.308-.904-.308-.296 0-.547.067-.752.2-.203.133-.346.344-.428.632l-.572-.168c.098-.387.297-.687.596-.9.298-.213.686-.32 1.164-.32.394 0 .729.075 1.004.224.277.147.473.36.588.64.053.125.088.265.104.42.016.155.024.312.024.472V163h-.524v-1.084l.152.064a1.716 1.716 0 0 1-.684.848c-.31.195-.68.292-1.112.292zm.068-.508c.274 0 .514-.049.72-.148a1.31 1.31 0 0 0 .496-.404c.125-.173.206-.368.244-.584.032-.139.049-.291.052-.456l.004-.376.224.116c-.2.027-.418.053-.652.08-.232.027-.462.057-.688.092a6.007 6.007 0 0 0-.608.124 1.644 1.644 0 0 0-.356.148.81.81 0 0 0-.284.248.665.665 0 0 0-.108.388c0 .125.03.247.092.364a.747.747 0 0 0 .304.292c.141.077.328.116.56.116zm4.933.508c-.435 0-.803-.097-1.104-.292a1.865 1.865 0 0 1-.688-.804 2.938 2.938 0 0 1-.24-1.184c.005-.453.088-.851.248-1.192.16-.344.391-.611.692-.8.301-.192.667-.288 1.096-.288.437 0 .817.107 1.14.32.325.213.548.505.668.876l-.576.184a1.214 1.214 0 0 0-.484-.6 1.336 1.336 0 0 0-.752-.216c-.317 0-.58.073-.788.22a1.277 1.277 0 0 0-.464.604 2.504 2.504 0 0 0-.156.892c.005.517.125.933.36 1.248.235.312.584.468 1.048.468.293 0 .543-.067.748-.2.208-.136.365-.333.472-.592l.592.176c-.16.384-.395.677-.704.88-.309.2-.679.3-1.108.3zm4.99-.12a2.85 2.85 0 0 1-.72.06 1.593 1.593 0 0 1-.632-.152.914.914 0 0 1-.42-.424 1.233 1.233 0 0 1-.128-.484 15.885 15.885 0 0 1-.008-.564v-3.956h.584v3.932c0 .181.001.333.004.456a.72.72 0 0 0 .084.32.602.602 0 0 0 .456.32c.21.035.47.027.78-.024V163zm-2.832-3.816v-.504h2.832v.504h-2.832zm7.636 3.816a2.843 2.843 0 0 1-.72.06 1.602 1.602 0 0 1-.632-.152.914.914 0 0 1-.42-.424 1.25 1.25 0 0 1-.128-.484 18.695 18.695 0 0 1-.008-.564v-3.956h.584v3.932c0 .181.002.333.004.456.006.12.034.227.084.32a.602.602 0 0 0 .456.32c.211.035.471.027.78-.024V163zm-2.832-3.816v-.504h2.832v.504h-2.832zm5.331 3.936c-.429 0-.796-.097-1.1-.292a1.904 1.904 0 0 1-.7-.808 2.75 2.75 0 0 1-.244-1.184c0-.453.083-.851.248-1.192.166-.341.4-.607.704-.796.307-.192.671-.288 1.092-.288.432 0 .8.097 1.104.292.307.192.54.46.7.804.163.341.244.735.244 1.18 0 .453-.081.852-.244 1.196a1.865 1.865 0 0 1-.704.8c-.306.192-.673.288-1.1.288zm0-.564c.48 0 .838-.159 1.072-.476.235-.32.352-.735.352-1.244 0-.523-.118-.939-.356-1.248-.234-.309-.59-.464-1.068-.464-.322 0-.589.073-.8.22a1.303 1.303 0 0 0-.468.604 2.408 2.408 0 0 0-.152.888c0 .52.12.937.36 1.252.24.312.594.468 1.06.468zm6.144.56c-.506 0-.924-.109-1.252-.328a1.37 1.37 0 0 1-.6-.912l.6-.1c.064.245.21.441.436.588.23.144.512.216.848.216.328 0 .587-.068.776-.204a.662.662 0 0 0 .284-.564.527.527 0 0 0-.092-.324c-.058-.085-.18-.164-.364-.236a8.582 8.582 0 0 0-.824-.256 5.587 5.587 0 0 1-.92-.32c-.221-.107-.378-.229-.472-.368a.917.917 0 0 1-.14-.516c0-.245.07-.46.208-.644.139-.187.331-.331.576-.432.246-.104.531-.156.856-.156.326 0 .616.053.872.16.259.104.467.251.624.44.158.189.251.409.28.66l-.6.108a.864.864 0 0 0-.38-.6c-.21-.149-.478-.227-.804-.232-.306-.008-.556.051-.748.176-.192.123-.288.287-.288.492 0 .115.035.213.104.296.07.08.195.156.376.228.184.072.446.151.784.236.398.101.71.208.936.32.227.112.388.244.484.396.096.152.144.34.144.564 0 .408-.152.729-.456.964-.301.232-.717.348-1.248.348zm2.671-5.256v-.66h.588v.66h-.588zm0 5.14v-4.32h.588V163h-.588zm3.504 2.04c-.222 0-.44-.033-.656-.1a1.807 1.807 0 0 1-.593-.308 1.697 1.697 0 0 1-.455-.544l.532-.296c.12.24.288.412.504.516.218.107.441.16.668.16.312 0 .564-.059.756-.176a.99.99 0 0 0 .424-.512c.088-.227.13-.509.128-.848v-1.152h.068v-3.1h.524v4.26a4.94 4.94 0 0 1-.048.688c-.051.323-.156.588-.316.796a1.412 1.412 0 0 1-.624.464c-.256.101-.56.152-.912.152zm-.04-1.92c-.403 0-.747-.1-1.032-.3a1.943 1.943 0 0 1-.656-.82 2.851 2.851 0 0 1-.228-1.164c0-.429.074-.816.224-1.16.152-.344.369-.616.652-.816.282-.2.621-.3 1.016-.3.405 0 .746.099 1.024.296.277.197.486.468.628.812.144.341.216.731.216 1.168 0 .429-.071.817-.212 1.164-.142.344-.35.617-.624.82-.275.2-.611.3-1.008.3zm.06-.548c.306 0 .56-.075.76-.224.2-.149.349-.355.448-.616.098-.264.148-.563.148-.896 0-.339-.05-.637-.148-.896a1.315 1.315 0 0 0-.448-.612c-.198-.147-.447-.22-.748-.22-.31 0-.566.076-.768.228a1.344 1.344 0 0 0-.452.62 2.538 2.538 0 0 0-.144.88c0 .328.049.624.148.888.101.261.252.468.452.62.2.152.45.228.752.228zm6.118.428v-2.204c0-.24-.023-.46-.068-.66a1.517 1.517 0 0 0-.22-.528 1.01 1.01 0 0 0-.388-.352 1.22 1.22 0 0 0-.576-.124c-.208 0-.392.036-.552.108a1.087 1.087 0 0 0-.4.312 1.39 1.39 0 0 0-.244.488 2.347 2.347 0 0 0-.084.656l-.416-.092c0-.443.077-.815.232-1.116.155-.301.368-.529.64-.684.272-.155.584-.232.936-.232.259 0 .484.04.676.12.195.08.359.188.492.324.136.136.245.292.328.468.083.173.143.359.18.556.037.195.056.389.056.584V163h-.592zm-3.124 0v-4.32h.532v1.064h.06V163h-.592z" fill="#4F4F5F"/><path d="M202.223 190.09c-.432 0-.8-.094-1.104-.282a1.858 1.858 0 0 1-.699-.792 2.72 2.72 0 0 1-.24-1.176c0-.446.08-.838.24-1.176.162-.338.395-.601.699-.789.304-.19.672-.285 1.104-.285.43 0 .797.095 1.101.285.306.188.539.451.699.789.16.338.24.73.24 1.176 0 .446-.08.838-.24 1.176-.16.338-.393.602-.699.792-.304.188-.671.282-1.101.282zm0-.597c.306.004.56-.063.762-.201.204-.14.357-.334.459-.582.102-.25.153-.54.153-.87 0-.33-.051-.618-.153-.864a1.255 1.255 0 0 0-.459-.579c-.202-.138-.456-.208-.762-.21-.306-.004-.561.063-.765.201a1.26 1.26 0 0 0-.456.582c-.102.25-.154.54-.156.87-.002.33.048.619.15.867.102.246.255.438.459.576.206.138.462.208.768.21zm4.159.597c-.31 0-.57-.075-.78-.225a1.414 1.414 0 0 1-.477-.615 2.242 2.242 0 0 1-.162-.873c0-.324.053-.615.159-.873.108-.258.266-.461.474-.609.21-.15.468-.225.774-.225.304 0 .566.075.786.225.222.148.393.351.513.609.12.256.18.547.18.873 0 .324-.06.616-.18.876a1.455 1.455 0 0 1-.507.612c-.218.15-.478.225-.78.225zm-1.524 1.35v-4.68h.558v2.331h.072v2.349h-.63zm1.437-1.917c.2 0 .365-.051.495-.153a.904.904 0 0 0 .294-.411 1.63 1.63 0 0 0 .099-.582c0-.212-.033-.404-.099-.576a.895.895 0 0 0-.297-.411.823.823 0 0 0-.513-.153.788.788 0 0 0-.486.144.854.854 0 0 0-.282.402 1.8 1.8 0 0 0-.09.594c0 .224.03.422.09.594s.155.307.285.405c.13.098.298.147.504.147zm3.654.567c-.322 0-.605-.07-.849-.21a1.493 1.493 0 0 1-.567-.591 1.863 1.863 0 0 1-.201-.882c0-.354.066-.661.198-.921.134-.26.32-.461.558-.603a1.59 1.59 0 0 1 .831-.213c.33 0 .611.077.843.231.232.152.405.369.519.651.116.282.162.617.138 1.005h-.627v-.228c-.004-.376-.076-.654-.216-.834-.138-.18-.349-.27-.633-.27-.314 0-.55.099-.708.297-.158.198-.237.484-.237.858 0 .356.079.632.237.828.158.194.386.291.684.291a.943.943 0 0 0 .507-.132.902.902 0 0 0 .336-.384l.615.195a1.46 1.46 0 0 1-.573.675 1.595 1.595 0 0 1-.855.237zm-1.155-1.533v-.489h2.313v.489h-2.313zm5.484 1.443v-1.593c0-.126-.011-.255-.033-.387a1.16 1.16 0 0 0-.12-.372.704.704 0 0 0-.249-.276.745.745 0 0 0-.417-.105.888.888 0 0 0-.318.057.663.663 0 0 0-.264.177.893.893 0 0 0-.177.324 1.65 1.65 0 0 0-.063.489l-.39-.147c0-.294.055-.553.165-.777a1.24 1.24 0 0 1 .474-.528c.206-.126.455-.189.747-.189.224 0 .412.036.564.108.152.072.275.167.369.285.096.116.169.243.219.381.05.138.084.273.102.405.018.132.027.248.027.348v1.8h-.636zm-2.277 0v-3.24h.561v.936h.075V190h-.636z" fill="#fff"/><path d="M189.88 147.12c-.459 0-.863-.093-1.212-.28a2.049 2.049 0 0 1-.816-.788c-.195-.339-.292-.736-.292-1.192v-3.612l.976-.008v3.596c0 .216.036.409.108.58.075.171.175.316.3.436.125.117.269.207.432.268a1.427 1.427 0 0 0 1.012 0c.163-.064.307-.155.432-.272a1.29 1.29 0 0 0 .296-.436c.072-.171.108-.363.108-.576v-3.596h.976v3.62c0 .456-.099.853-.296 1.192a2.023 2.023 0 0 1-.816.788c-.347.187-.749.28-1.208.28zm5.17 0c-.398 0-.744-.1-1.04-.3a1.98 1.98 0 0 1-.688-.816 2.685 2.685 0 0 1-.244-1.164c0-.437.081-.827.244-1.168.165-.344.398-.615.7-.812.301-.2.656-.3 1.064-.3.41 0 .754.1 1.032.3.28.197.492.468.636.812.144.344.216.733.216 1.168 0 .429-.072.817-.216 1.164a1.839 1.839 0 0 1-.644.816c-.286.2-.639.3-1.06.3zm.148-.864c.258 0 .466-.059.624-.176.16-.12.276-.287.348-.5.074-.213.112-.46.112-.74 0-.283-.038-.529-.112-.74a1.01 1.01 0 0 0-.34-.496c-.155-.12-.355-.18-.6-.18-.259 0-.472.064-.64.192a1.093 1.093 0 0 0-.372.512c-.08.213-.12.451-.12.712 0 .264.038.504.116.72.08.213.201.383.364.508.162.125.369.188.62.188zm.964 2.664v-3.208h.12v-3.032h.852v6.24h-.972zm4.001-1.8c-.432 0-.809-.097-1.132-.292a2.017 2.017 0 0 1-.752-.804 2.564 2.564 0 0 1-.264-1.184c0-.453.091-.851.272-1.192.182-.341.434-.608.756-.8a2.15 2.15 0 0 1 1.12-.288c.435 0 .814.097 1.136.292.323.195.574.464.752.808.179.341.268.735.268 1.18 0 .448-.09.844-.272 1.188a2.003 2.003 0 0 1-.752.804c-.322.192-.7.288-1.132.288zm0-.904c.384 0 .67-.128.856-.384.187-.256.28-.587.28-.992 0-.419-.094-.752-.284-1-.189-.251-.473-.376-.852-.376-.258 0-.472.059-.64.176a1.017 1.017 0 0 0-.368.484c-.08.205-.12.444-.12.716 0 .419.095.753.284 1.004.192.248.474.372.844.372zm4.658.908c-.32 0-.584-.053-.792-.16a1.4 1.4 0 0 1-.496-.408 1.745 1.745 0 0 1-.272-.528 2.76 2.76 0 0 1-.116-.528 4.496 4.496 0 0 1-.024-.408v-2.412h.976v2.08c0 .133.009.284.028.452.018.165.061.325.128.48.069.152.17.277.304.376.136.099.318.148.548.148.122 0 .244-.02.364-.06a.823.823 0 0 0 .324-.204c.098-.099.177-.233.236-.404.058-.171.088-.387.088-.648l.572.244c0 .368-.072.701-.216 1a1.708 1.708 0 0 1-.628.716c-.278.176-.619.264-1.024.264zm1.412-.124v-1.34h-.116v-2.98h.968V147h-.852zm3.707.12c-.397 0-.744-.1-1.04-.3a1.988 1.988 0 0 1-.688-.816 2.7 2.7 0 0 1-.244-1.164c0-.437.082-.827.244-1.168a1.97 1.97 0 0 1 .7-.812c.302-.2.656-.3 1.064-.3.411 0 .755.1 1.032.3.28.197.492.468.636.812.144.344.216.733.216 1.168 0 .429-.072.817-.216 1.164a1.832 1.832 0 0 1-.644.816c-.285.2-.638.3-1.06.3zm.148-.864c.259 0 .467-.059.624-.176.16-.12.276-.287.348-.5.075-.213.112-.46.112-.74 0-.283-.037-.529-.112-.74a1.004 1.004 0 0 0-.34-.496c-.154-.12-.354-.18-.6-.18-.258 0-.472.064-.64.192a1.093 1.093 0 0 0-.372.512c-.08.213-.12.451-.12.712 0 .264.039.504.116.72.08.213.202.383.364.508a.99.99 0 0 0 .62.188zm1.084.744v-3.032h-.12v-2.728h.972V147h-.852z" fill="#4F4F5F"/><rect opacity=".5" x="176" y="323" width="42" height="135" rx="5" transform="rotate(-90 176 323)" fill="#D0D9EC"/><path fill-rule="evenodd" clip-rule="evenodd" d="M306.717 86.86h-31.604v12.063h-63.208V86.86H180.3c-8.527 0-15.44 6.913-15.44 15.44v283.715c0 8.527 6.913 15.44 15.44 15.44h126.417c8.528 0 15.44-6.913 15.44-15.44V102.3c0-8.527-6.912-15.44-15.44-15.44zM180.3 83c-10.659 0-19.3 8.641-19.3 19.3v283.715c0 10.659 8.641 19.3 19.3 19.3h126.417c10.659 0 19.301-8.641 19.301-19.3V102.3c0-10.659-8.642-19.3-19.301-19.3H180.3z" fill="#237FD3"/></g></g><defs><filter id="b" x="-339" y="-185" width="727" height="727" filterUnits="userSpaceOnUse" color-interpolation-filters="sRGB"><feFlood flood-opacity="0" result="BackgroundImageFix"/><feBlend in="SourceGraphic" in2="BackgroundImageFix" result="shape"/><feGaussianBlur stdDeviation="75" result="effect1_foregroundBlur_1_6123"/></filter><filter id="c" x="-82" y="-360" width="908" height="908" filterUnits="userSpaceOnUse" color-interpolation-filters="sRGB"><feFlood flood-opacity="0" result="BackgroundImageFix"/><feBlend in="SourceGraphic" in2="BackgroundImageFix" result="shape"/><feGaussianBlur stdDeviation="125" result="effect1_foregroundBlur_1_6123"/></filter><filter id="d" x="-301" y="102" width="897" height="897" filterUnits="userSpaceOnUse" color-interpolation-filters="sRGB"><feFlood flood-opacity="0" result="BackgroundImageFix"/><feBlend in="SourceGraphic" in2="BackgroundImageFix" result="shape"/><feGaussianBlur stdDeviation="125" result="effect1_foregroundBlur_1_6123"/></filter><filter id="e" x="72" y="59" width="275.017" height="432.316" filterUnits="userSpaceOnUse" color-interpolation-filters="sRGB"><feFlood flood-opacity="0" result="BackgroundImageFix"/><feColorMatrix in="SourceAlpha" values="0 0 0 0 0 0 0 0 0 0 0 0 0 0 0 0 0 0 127 0" result="hardAlpha"/><feOffset dx="-34" dy="31"/><feGaussianBlur stdDeviation="27.5"/><feComposite in2="hardAlpha" operator="out"/><feColorMatrix values="0 0 0 0 0.145098 0 0 0 0 0.313726 0 0 0 0 0.65098 0 0 0 0.2 0"/><feBlend in2="BackgroundImageFix" result="effect1_dropShadow_1_6123"/><feBlend in="SourceGraphic" in2="effect1_dropShadow_1_6123" result="shape"/></filter></defs></svg>