<svg width="96" height="96" viewBox="0 0 96 96" fill="none" xmlns="http://www.w3.org/2000/svg"><path d="M8 33.3366C8 18.377 22.694 8.07063 36.3657 13.4408L-nan -nanL-nan -nanL36.3657 13.4408C39.0916 14.5115 41.567 16.1545 43.6321 18.2635L48 22.7242L56 16.5966C57.3282 15.5793 58.7752 14.7349 60.3077 14.0827L-nan -nanL-nan -nanL60.3077 14.0827C73.4814 8.47696 88 18.3618 88 32.9368V35.0004C88 40.8805 85.6742 46.5113 81.5503 50.6149L48 84L14.6007 50.7651C10.3803 46.5655 8 40.8029 8 34.785V33.3366Z" fill="#D0D9EC"></path><mask id="mask0_199_2" mask="alpha" maskUnits="userSpaceOnUse" x="8" y="12" width="80" height="72"><path d="M8 33.3366C8 18.377 22.694 8.07063 36.3657 13.4408C39.0916 14.5115 41.567 16.1544 43.6321 18.2635L48 22.7242L56 16.5966C57.3282 15.5793 58.7752 14.7349 60.3077 14.0827C73.4814 8.47696 88 18.3618 88 32.9368V35.0004C88 40.8805 85.6742 46.5113 81.5503 50.6149L48 84L14.6007 50.7651C10.3803 46.5655 8 40.8029 8 34.785V33.3366Z" fill="#00CBA6"></path></mask><g mask="url(#mask0_199_2)"><path fill-rule="evenodd" clip-rule="evenodd" d="M33.0086 42.4487L31.0788 45.7499C29.6803 48.1423 29.2336 50.9736 29.8278 53.6804L30.672 57.5259L25.5918 62.6061L34.7989 72.15L37.5082 69.4408C39.0242 67.9247 41.0879 67.0846 43.2318 67.1107C45.3757 67.1368 47.4394 66.2967 48.9555 64.7806L58.5019 55.2342C59.1 54.6361 59.339 53.7674 59.1312 52.9476C58.7312 51.37 56.962 50.6986 55.6438 51.4343L48.7781 58.3C48.2828 57.8047 48.2828 57.0017 48.7781 56.5064L59.021 46.2635C58.6182 44.69 56.8517 44.0211 55.535 44.7559L45.3845 54.9065C44.8877 54.3977 44.8926 53.5841 45.3954 53.0813L58.6825 39.7942C58.2716 38.2325 56.5128 37.5708 55.2008 38.3031L41.9909 51.5129C41.558 51.0687 41.5626 50.359 42.0012 49.9204L52.5694 39.3522C52.054 37.6653 49.7747 36.8129 48.2918 38.2958L39.0728 47.5148L37.9618 48.6258C37.7051 48.8824 37.3486 49.0133 36.9869 48.9837L36.6318 48.9547C36.0137 48.9041 35.6063 48.2877 35.8022 47.6992L36.9551 44.2356C37.2155 43.4533 37.0118 42.5909 36.4287 42.0078C35.4196 40.9987 33.7288 41.2167 33.0086 42.4487Z" fill="#237FD3"></path><path fill-rule="evenodd" clip-rule="evenodd" d="M59.017 46.2657C59.0173 46.2669 59.0176 46.268 59.0179 46.2691C59.2258 47.0889 58.9867 47.9576 58.3887 48.5557L55.1038 51.8405C55.2713 51.673 55.4538 51.5369 55.6458 51.4305L48.7775 58.2989C48.2822 57.8036 48.2822 57.0006 48.7774 56.5053L59.017 46.2657ZM58.6785 39.7964C58.6803 39.803 58.682 39.8096 58.6837 39.8163C58.8915 40.6361 58.6524 41.5048 58.0544 42.1028L54.9951 45.1621C55.1626 44.9946 55.3451 44.8585 55.5371 44.7522L45.3839 54.9054C44.8871 54.3966 44.892 53.583 45.3947 53.0802L58.6785 39.7964ZM52.5655 39.3544C52.6983 39.7906 52.7132 40.2824 52.566 40.8041L54.6609 38.7092C54.8283 38.5418 55.0108 38.4056 55.2029 38.2993L41.9903 51.5118C41.5574 51.0676 41.562 50.358 42.0006 49.9194L52.5655 39.3544Z" fill="#D0D9EC"></path></g><path fill-rule="evenodd" clip-rule="evenodd" d="M59 32.5C64.2467 32.5 68.5 28.2467 68.5 23C68.5 28.2467 72.7533 32.5 78 32.5C72.7533 32.5 68.5 36.7533 68.5 42C68.5 36.7533 64.2467 32.5 59 32.5Z" fill="#00CBA6"></path></svg>