<svg width="96" height="96" viewBox="0 0 96 96" fill="none" xmlns="http://www.w3.org/2000/svg"><path fill-rule="evenodd" clip-rule="evenodd" d="M48 25.8701C34.7452 25.8701 24 36.4918 24 49.5943C24 60.1968 31.036 69.1748 40.7442 72.2149V82.6143C40.7442 86.6216 43.9927 89.8701 48 89.8701C52.0073 89.8701 55.2558 86.6216 55.2558 82.6143V72.2149C64.964 69.1748 72 60.1968 72 49.5943C72 36.4918 61.2548 25.8701 48 25.8701Z" fill="#D0D9EC"></path><path d="M41 72.8701V82.8701C41 86.7361 44.134 89.8701 48 89.8701C51.866 89.8701 55 86.7361 55 82.8701V72.8701H41Z" fill="#237FD3"></path><rect x="46.8047" y="6" width="3.38961" height="12.4286" rx="1.69481" fill="#D0D9EC"></rect><rect x="92" y="47.8052" width="3.38961" height="12.4286" rx="1.69481" transform="rotate(90 92 47.8052)" fill="#D0D9EC"></rect><rect x="17.4297" y="47.8052" width="3.38961" height="12.4286" rx="1.69481" transform="rotate(90 17.4297 47.8052)" fill="#D0D9EC"></rect><rect x="77.7461" y="17.228" width="4.27869" height="12.8361" rx="2.13934" transform="rotate(45 77.7461 17.228)" fill="#D0D9EC"></rect><path fill-rule="evenodd" clip-rule="evenodd" d="M60.3829 46.0061C58.3102 47.029 55.8493 46.0297 54.0901 44.5304C50.605 41.5602 45.395 41.5602 41.9099 44.5304C40.1507 46.0297 37.6898 47.029 35.6171 46.0061C33.6069 45.0141 32.7195 42.5544 34.0752 40.7691C41.0603 31.5705 54.9397 31.5705 61.9248 40.7691C63.2805 42.5544 62.3931 45.0141 60.3829 46.0061Z" fill="#00CBA6"></path><rect x="28.332" y="26.3042" width="4.27869" height="12.8361" rx="2.13934" transform="rotate(135 28.332 26.3042)" fill="#D0D9EC"></rect></svg>