<?xml version="1.0" encoding="UTF-8" standalone="no" ?>
<!DOCTYPE svg PUBLIC "-//W3C//DTD SVG 1.1//EN" "http://www.w3.org/Graphics/SVG/1.1/DTD/svg11.dtd">
<svg xmlns="http://www.w3.org/2000/svg" xmlns:xlink="http://www.w3.org/1999/xlink" version="1.1" width="1080" height="1080" viewBox="0 0 1080 1080" xml:space="preserve">
<desc>Created with Fabric.js 5.2.4</desc>
<defs>
</defs>
<rect x="0" y="0" width="100%" height="100%" fill="transparent"></rect>
<g transform="matrix(1 0 0 1 540 540)" id="28658362-5b54-406a-ac0f-f7691865f9c8"  >
<rect style="stroke: none; stroke-width: 1; stroke-dasharray: none; stroke-linecap: butt; stroke-dashoffset: 0; stroke-linejoin: miter; stroke-miterlimit: 4; fill: rgb(255,255,255); fill-rule: nonzero; opacity: 1; visibility: hidden;" vector-effect="non-scaling-stroke"  x="-540" y="-540" rx="0" ry="0" width="1080" height="1080" />
</g>
<g transform="matrix(1 0 0 1 540 540)" id="5e0ef374-7e76-44d6-8c97-a922464528bc"  >
</g>
<g transform="matrix(11.25 0 0 11.25 540 540)"  >
<g style=""   >
		<g transform="matrix(1 0 0 1 -20 0)"  >
<path style="stroke: none; stroke-width: 1; stroke-dasharray: none; stroke-linecap: butt; stroke-dashoffset: 0; stroke-linejoin: miter; stroke-miterlimit: 4; fill: rgb(232,237,248); fill-rule: nonzero; opacity: 1;" vector-effect="non-scaling-stroke"  transform=" translate(-28, -48)" d="M 56 80 C 56 82.2091 54.2091 84 52 84 L 4 84 C 1.79086 84 1.56562e-7 82.2091 3.49691e-7 80 L 0.00000594475 16 C 0.00000613788 13.7909 1.79087 12 4.00001 12 L 40 12 L 56 25 L 56 80 Z" stroke-linecap="round" />
</g>
		<g transform="matrix(1 0 0 1 0 -29.5)"  >
<path style="stroke: none; stroke-width: 1; stroke-dasharray: none; stroke-linecap: butt; stroke-dashoffset: 0; stroke-linejoin: miter; stroke-miterlimit: 4; fill: rgb(208,217,236); fill-rule: nonzero; opacity: 1;" vector-effect="non-scaling-stroke"  transform=" translate(-48, -18.5)" d="M 40 25 L 40 12 L 56 25 L 40 25 Z" stroke-linecap="round" />
</g>
		<g transform="matrix(1 0 0 1 -19.87 2.73)"  >
<path style="stroke: rgb(0,203,166); stroke-width: 4; stroke-dasharray: none; stroke-linecap: butt; stroke-dashoffset: 0; stroke-linejoin: miter; stroke-miterlimit: 4; fill: none; fill-rule: nonzero; opacity: 1;" vector-effect="non-scaling-stroke"  transform=" translate(-28.13, -50.73)" d="M 28.1328 40.7305 C 22.61 40.7305 18.1328 45.2076 18.1328 50.7305 C 18.1328 56.2533 22.61 60.7305 28.1328 60.7305 C 33.6557 60.7305 38.1328 56.2533 38.1328 50.7305 C 38.1328 47.7437 36.8234 45.0628 34.7474 43.2305" stroke-linecap="round" />
</g>
		<g transform="matrix(1 0 0 1 -22.64 -6.31)"  >
<path style="stroke: rgb(0,203,166); stroke-width: 4; stroke-dasharray: none; stroke-linecap: butt; stroke-dashoffset: 0; stroke-linejoin: miter; stroke-miterlimit: 4; fill: none; fill-rule: nonzero; opacity: 1;" vector-effect="non-scaling-stroke"  transform=" translate(-25.36, -41.69)" d="M 21.3359 36 L 29.3884 39.3368 L 26.0516 47.3892" stroke-linecap="round" />
</g>
		<g transform="matrix(1 0 0 1 4 16)"  >
<path style="stroke: none; stroke-width: 1; stroke-dasharray: none; stroke-linecap: butt; stroke-dashoffset: 0; stroke-linejoin: miter; stroke-miterlimit: 4; fill: rgb(35,127,211); fill-rule: nonzero; opacity: 1;" vector-effect="non-scaling-stroke"  transform=" translate(-52, -64)" d="M 72 76 C 72 80.4183 68.4183 84 64 84 L 40 84 C 35.5817 84 32 80.4183 32 76 L 32 52 C 32 47.5817 35.5817 44 40 44 L 64.1429 44 C 68.4822 44 72 47.5178 72 51.8572 L 72 76 Z" stroke-linecap="round" />
</g>
		<g transform="matrix(1 0 0 1 4 16)"  >
<path style="stroke: none; stroke-width: 1; stroke-dasharray: none; stroke-linecap: butt; stroke-dashoffset: 0; stroke-linejoin: miter; stroke-miterlimit: 4; fill: rgb(255,255,255); fill-rule: evenodd; opacity: 1;" vector-effect="non-scaling-stroke"  transform=" translate(-52, -64)" d="M 54.8285 53.1715 C 55.5786 53.9217 56.596 54.3431 57.6569 54.3431 C 59.866 54.3431 61.6569 56.134 61.6569 58.3431 C 61.6569 59.4039 62.0783 60.4214 62.8284 61.1716 C 64.3905 62.7336 64.3905 65.2664 62.8284 66.8284 C 62.0783 67.5786 61.6569 68.5961 61.6569 69.6569 C 61.6569 71.866 59.866 73.6569 57.6569 73.6569 C 56.596 73.6569 55.5786 74.0783 54.8285 74.8285 C 53.2664 76.3905 50.7336 76.3905 49.1715 74.8285 C 48.4214 74.0783 47.404 73.6569 46.3431 73.6569 C 44.134 73.6569 42.3432 71.866 42.3432 69.6569 C 42.3432 68.5961 41.9217 67.5786 41.1716 66.8284 C 39.6095 65.2664 39.6095 62.7336 41.1716 61.1716 C 41.9217 60.4214 42.3432 59.4039 42.3432 58.3431 C 42.3432 56.134 44.134 54.3431 46.3431 54.3431 C 47.404 54.3431 48.4214 53.9217 49.1715 53.1715 C 50.7336 51.6095 53.2664 51.6095 54.8285 53.1715 Z M 52 69.1429 C 54.8403 69.1429 57.1429 66.8403 57.1429 64 C 57.1429 61.1597 54.8403 58.8571 52 58.8571 C 49.1597 58.8571 46.8571 61.1597 46.8571 64 C 46.8571 66.8403 49.1597 69.1429 52 69.1429 Z" stroke-linecap="round" />
</g>
</g>
</g>
</svg>