<svg width="96" height="96" viewBox="0 0 96 96" fill="none" xmlns="http://www.w3.org/2000/svg"><path d="M18.3015 79C12.4277 73.1015 8.42762 65.5863 6.80704 57.4049C5.18646 49.2234 6.0182 40.7431 9.19708 33.0363C12.376 25.3296 17.7592 18.7425 24.6661 14.108C31.5729 9.47362 39.6932 7 48 7C56.3068 7 64.4271 9.47362 71.3339 14.108C78.2408 18.7425 83.624 25.3296 86.8029 33.0363C89.9818 40.7431 90.8135 49.2234 89.193 57.4049C87.5724 65.5863 83.5723 73.1015 77.6985 79L48 49.1766L18.3015 79Z" fill="#D0D9EC"></path><mask id="mask0_1_173" maskUnits="userSpaceOnUse" x="6" y="7" width="84" height="72"><path d="M18.3015 79C12.4277 73.1015 8.42762 65.5863 6.80704 57.4049C5.18646 49.2234 6.0182 40.7431 9.19708 33.0363C12.376 25.3296 17.7592 18.7425 24.6661 14.108C31.5729 9.47362 39.6932 7 48 7C56.3068 7 64.4271 9.47362 71.3339 14.108C78.2408 18.7425 83.624 25.3296 86.8029 33.0363C89.9818 40.7431 90.8135 49.2234 89.193 57.4049C87.5724 65.5863 83.5723 73.1015 77.6985 79L48 49.1766L18.3015 79Z" fill="#2550A6"></path></mask><g mask="url(#mask0_1_173)"><circle cx="48.5" cy="47.5" r="23.5" fill="white"></circle></g><path d="M67.3014 30.5156C68.6907 28.798 68.4246 26.2794 66.707 24.89C64.9894 23.5007 62.4708 23.7668 61.0814 25.4844L67.3014 30.5156ZM44.955 45.4212C43.5657 47.1388 43.8318 49.6574 45.5494 51.0467C47.267 52.436 49.7856 52.1699 51.1749 50.4524L44.955 45.4212ZM61.0814 25.4844L44.955 45.4212L51.1749 50.4524L67.3014 30.5156L61.0814 25.4844Z" fill="#00CBA6"></path><path d="M48 36C54.6274 36 60 41.3726 60 48C60 54.6274 54.6274 60 48 60C41.3726 60 36 54.6274 36 48C36 41.3726 41.3726 36 48 36Z" fill="#237FD3"></path></svg>