<svg width="96" height="96" viewBox="0 0 96 96" fill="none" xmlns="http://www.w3.org/2000/svg"><path d="M68 80C68 82.2091 66.2091 84 64 84L16 84C13.7909 84 12 82.2091 12 80L12 16C12 13.7909 13.7909 12 16 12L52 12L68 25L68 80Z" fill="#D0D9EC"></path><path d="M84 76C84 80.4183 80.4183 84 76 84L52 84C47.5817 84 44 80.4183 44 76L44 67.1942C44 65.1434 43.2125 63.171 41.8 61.6842L34.5 54L44 54L44 52C44 47.5817 47.5817 44 52 44L76.1429 44C80.4822 44 84 47.5178 84 51.8572L84 76Z" fill="white"></path><path d="M52 25L52 12L68 25L52 25Z" fill="#00CBA6"></path><rect width="14" height="8" rx="4" transform="matrix(-1 0 0 1 36 47)" fill="white"></rect><rect width="36" height="8" rx="4" transform="matrix(-1 0 0 1 58 31)" fill="white"></rect><path d="M61.093 56.5C62.2477 54.5 65.1344 54.5 66.2891 56.5L72.7843 67.75C73.939 69.75 72.4957 72.25 70.1863 72.25H57.1959C54.8865 72.25 53.4431 69.75 54.5978 67.75L61.093 56.5Z" fill="#237FD3"></path><rect x="63" y="60" width="2" height="5" rx="1" fill="white"></rect><rect x="63" y="67" width="2" height="2" rx="1" fill="white"></rect></svg>