<svg width="97" height="96" viewBox="0 0 97 96" fill="none" xmlns="http://www.w3.org/2000/svg"><g clip-path="url(#clip0_85_1195)"><path d="M4.66602 68C2.45688 68 0.666016 66.2091 0.666015 64L0.666013 16C0.666013 13.7909 2.45687 12 4.66601 12L68.666 12C70.8752 12 72.666 13.7909 72.666 16L72.666 64C72.666 66.2091 70.8752 68 68.666 68L4.66602 68Z" fill="#E8EDF8"></path><path d="M37.0039 28L48.0855 28L59.167 28" stroke="#D0D9EC" stroke-width="4" stroke-linecap="round"></path><path d="M37.0039 35.8381L48.0855 35.8382L59.167 35.8382" stroke="#D0D9EC" stroke-width="4" stroke-linecap="round"></path><path d="M37.0039 59.8381L48.0855 59.8382L59.167 59.8382" stroke="#D0D9EC" stroke-width="4" stroke-linecap="round"></path><path d="M11.667 59.8382L22.7486 59.8382" stroke="#D0D9EC" stroke-width="4" stroke-linecap="round"></path><path d="M84.666 76C84.666 80.4183 81.0843 84 76.666 84L52.666 84C48.2477 84 44.666 80.4183 44.666 76L44.666 52C44.666 47.5817 48.2477 44 52.666 44L76.8089 44C81.1483 44 84.666 47.5178 84.666 51.8572L84.666 76Z" fill="#237FD3"></path><circle cx="18.166" cy="32.5" r="9.5" fill="#00CBA6"></circle><path d="M54.9356 62.0789C54.6621 57.3981 58.3843 53.4521 63.0731 53.4521H66.5025C71.1913 53.4521 74.9135 57.3981 74.6401 62.0789L74.3582 66.9036C74.2 69.6125 72.8401 72.1091 70.6501 73.7113L68.1199 75.5624C66.1357 77.014 63.4399 77.014 61.4557 75.5624L58.9255 73.7113C56.7355 72.1091 55.3756 69.6125 55.2174 66.9036L54.9356 62.0789Z" fill="white"></path><rect x="67.0918" y="64.9587" width="2.30137" height="1.91781" rx="0.958904" fill="#1E1E2C"></rect><path d="M54.2732 64.2223C53.1735 62.1661 53.815 57.0424 54.2732 55.7287C54.3878 55.0433 55.2355 53.604 56.3352 51.959C57.7098 49.9027 60.9746 51.959 64.4112 50.4168C67.8479 48.8746 71.4563 51.959 73.8619 54.0152C76.2676 56.0714 75.5114 62.6801 74.9959 64.565C74.4804 66.4499 73.0028 64.8104 72.3155 60.698C71.6281 56.5855 67.676 57.4423 64.4112 59.1558C61.1465 60.8693 61.3183 58.6417 58.3972 58.4704C55.476 58.299 55.6479 66.7926 54.2732 64.2223Z" fill="#1E1E2C"></path><path fill-rule="evenodd" clip-rule="evenodd" d="M66.0641 64.0062C66.263 64.2534 66.6278 64.2907 66.9132 64.1452C67.8809 63.6518 69.0591 63.6777 70.0144 64.2477L70.4236 64.4919C70.6983 64.6559 71.0571 64.5713 71.2249 64.303C71.3928 64.0348 71.3062 63.6844 71.0315 63.5205L70.6223 63.2763C69.251 62.4579 67.5441 62.4582 66.1852 63.2379C65.9076 63.3972 65.8652 63.759 66.0641 64.0062Z" fill="#1E1E2C"></path><rect x="59.0371" y="64.9587" width="1.91781" height="1.91781" rx="0.958904" fill="#1E1E2C"></rect><path fill-rule="evenodd" clip-rule="evenodd" d="M62.3576 64.0062C62.1445 64.2534 61.7536 64.2907 61.4478 64.1452C60.4109 63.6518 59.1485 63.6777 58.1251 64.2477L57.6867 64.4919C57.3923 64.6559 57.0079 64.5713 56.8281 64.303C56.6482 64.0348 56.741 63.6844 57.0353 63.5205L57.4737 63.2763C58.943 62.4579 60.7718 62.4582 62.2278 63.2379C62.5252 63.3972 62.5707 63.759 62.3576 64.0062Z" fill="#1E1E2C"></path></g><defs><clipPath id="clip0_85_1195"><rect width="96" height="96" fill="white" transform="translate(0.666016)"></rect></clipPath></defs></svg>