<svg width="96" height="96" viewBox="0 0 96 96" fill="none" xmlns="http://www.w3.org/2000/svg"><path d="M56 80C56 82.2091 54.2091 84 52 84L4 84C1.79086 84 1.56562e-07 82.2091 3.49691e-07 80L5.94475e-06 16C6.13788e-06 13.7909 1.79087 12 4.00001 12L40 12L56 25L56 80Z" fill="#E8EDF8"></path><path d="M40 25L40 12L56 25L40 25Z" fill="#D0D9EC"></path><path d="M28.1328 40.7305C22.61 40.7305 18.1328 45.2076 18.1328 50.7305C18.1328 56.2533 22.61 60.7305 28.1328 60.7305C33.6557 60.7305 38.1328 56.2533 38.1328 50.7305C38.1328 47.7437 36.8234 45.0628 34.7474 43.2305" stroke="#00CBA6" stroke-width="4"></path><path d="M21.3359 36L29.3884 39.3368L26.0516 47.3892" stroke="#00CBA6" stroke-width="4"></path><path d="M72 76C72 80.4183 68.4183 84 64 84L40 84C35.5817 84 32 80.4183 32 76L32 52C32 47.5817 35.5817 44 40 44L64.1429 44C68.4822 44 72 47.5178 72 51.8572L72 76Z" fill="#237FD3"></path><path fill-rule="evenodd" clip-rule="evenodd" d="M54.8285 53.1715C55.5786 53.9217 56.596 54.3431 57.6569 54.3431C59.866 54.3431 61.6569 56.134 61.6569 58.3431C61.6569 59.4039 62.0783 60.4214 62.8284 61.1716C64.3905 62.7336 64.3905 65.2664 62.8284 66.8284C62.0783 67.5786 61.6569 68.5961 61.6569 69.6569C61.6569 71.866 59.866 73.6569 57.6569 73.6569C56.596 73.6569 55.5786 74.0783 54.8285 74.8285C53.2664 76.3905 50.7336 76.3905 49.1715 74.8285C48.4214 74.0783 47.404 73.6569 46.3431 73.6569C44.134 73.6569 42.3432 71.866 42.3432 69.6569C42.3432 68.5961 41.9217 67.5786 41.1716 66.8284C39.6095 65.2664 39.6095 62.7336 41.1716 61.1716C41.9217 60.4214 42.3432 59.4039 42.3432 58.3431C42.3432 56.134 44.134 54.3431 46.3431 54.3431C47.404 54.3431 48.4214 53.9217 49.1715 53.1715C50.7336 51.6095 53.2664 51.6095 54.8285 53.1715ZM52 69.1429C54.8403 69.1429 57.1429 66.8403 57.1429 64C57.1429 61.1597 54.8403 58.8571 52 58.8571C49.1597 58.8571 46.8571 61.1597 46.8571 64C46.8571 66.8403 49.1597 69.1429 52 69.1429Z" fill="white"></path></svg>