<svg width="97" height="96" viewBox="0 0 97 96" fill="none" xmlns="http://www.w3.org/2000/svg"><g clipPath="url(#clip0_85_1236)"><path d="M60.334 66.8571C60.334 68.5929 58.9269 70 57.1911 70L19.4768 70C17.7411 70 16.334 68.5929 16.334 66.8571L16.334 36.1427C16.334 34.4069 17.7411 32.9998 19.4768 32.9998L47.7626 32.9998L60.334 43.2141L60.334 66.8571Z" fill="#00CBA6"></path><path d="M51.334 73.1423C51.334 74.8781 49.9269 76.2852 48.1911 76.2852L10.4768 76.2852C8.74109 76.2852 7.33398 74.878 7.33398 73.1423L7.33399 22.8566C7.33399 21.1208 8.74109 19.7137 10.4768 19.7137L38.7626 19.7137L51.334 29.928L51.334 73.1423Z" fill="#237FD3"></path><path d="M38.7626 29.9277L38.7626 19.7134L51.334 29.9277L38.7626 29.9277Z" fill="#E8EDF8"></path><path d="M68.334 80C68.334 82.2091 66.5431 84 64.334 84L4.33397 84C2.12483 84 0.333977 82.2091 0.333977 80L0.333988 42C0.333988 39.7909 2.12485 38 4.33399 38L22.6931 38C23.7936 38 24.8455 38.4534 25.6012 39.2535L31.2612 45.2465C32.0169 46.0466 33.0688 46.5 34.1693 46.5L64.334 46.5C66.5431 46.5 68.334 48.2909 68.334 50.5L68.334 80Z" fill="#D0D9EC"></path></g><defs><clipPath id="clip0_85_1236"><rect width="96" height="96" fill="white" transform="translate(0.333984)"></rect></clipPath></defs></svg>