<svg width="97" height="96" viewBox="0 0 97 96" fill="none" xmlns="http://www.w3.org/2000/svg"><g clipPath="url(#clip0_85_1251)"><path fillRule="evenodd" clip-rule="evenodd" d="M36.6727 20.8398C24.1899 20.8398 14.2805 31.345 15.0084 43.8066L15.2055 47.1809C15.688 55.4409 19.8347 63.0537 26.5124 67.9392C32.5628 72.3656 40.7827 72.3656 46.833 67.9392C53.5108 63.0537 57.6575 55.4409 58.14 47.1809L58.3371 43.8066C59.065 31.345 49.1556 20.8398 36.6727 20.8398ZM25.3686 49.495C22.1072 48.6211 19.9159 45.969 20.0697 43.2998L29.1759 45.468C30.5401 45.7928 31.9201 46.0278 33.3072 46.173C32.3782 48.9585 28.8954 50.44 25.3686 49.495ZM48.6916 49.495C45.1322 50.4488 41.6175 48.9309 40.7278 46.0952C41.8879 45.9492 43.0419 45.7401 44.1849 45.468L53.9781 43.1362C54.2334 45.8599 52.0196 48.6033 48.6916 49.495Z" fill="#237FD3"></path><path d="M14.666 33H58.666L69.5293 38.0665C70.5613 38.5478 70.4054 40.0613 69.297 40.3221L44.0869 46.2539C39.2063 47.4023 34.1258 47.4023 29.2451 46.2539L4.03508 40.3221C2.92665 40.0613 2.77074 38.5478 3.80272 38.0665L14.666 33Z" fill="#00CBA6"></path><path d="M18.3743 58.5429L10.8177 54L17.7777 74.3571C11.2883 74.3571 5.30538 77.8639 2.13462 83.5259L1.86914 84H71.4691C68.5283 78.092 62.4972 74.3571 55.8977 74.3571H55.5606L62.5206 54L54.964 58.5429L36.6691 68.9108L18.3743 58.5429Z" fill="#D0D9EC"></path><path d="M17.9451 20.0745C19.2885 15.62 23.9968 13.106 28.4457 14.4677L36.6662 16.9838L44.8867 14.4677C49.3356 13.106 54.0439 15.62 55.3873 20.0745L58.666 32.9993C44.2218 36.6104 29.1103 36.6103 14.666 32.9993L17.9451 20.0745Z" fill="#E8EDF8"></path></g><defs><clipPath id="clip0_85_1251"><rect width="96" height="96" fill="white" transform="translate(0.666016)"></rect></clipPath></defs></svg>