<svg width="96" height="96" viewBox="0 0 96 96" fill="none" xmlns="http://www.w3.org/2000/svg"><path d="M59 88C59 90.2091 57.2091 92 55 92L7 92C4.79086 92 3 90.2091 3 88L3.00001 24C3.00001 21.7909 4.79087 20 7.00001 20L43 20L59 33L59 88Z" fill="white"></path><path d="M68 80C68 82.2091 66.2091 84 64 84L16 84C13.7909 84 12 82.2091 12 80L12 16C12 13.7909 13.7909 12 16 12L52 12L68 25L68 80Z" fill="#D0D9EC"></path><path d="M52 25L52 12L68 25L52 25Z" fill="#00CBA6"></path><rect width="14" height="8" rx="4" transform="matrix(-1 0 0 1 36 47)" fill="white"></rect><rect width="36" height="8" rx="4" transform="matrix(-1 0 0 1 58 31)" fill="white"></rect><path d="M51.3526 54.9536C50.6996 53.321 52.3198 51.7009 53.9524 52.3539L74.8643 60.7187C76.6693 61.4406 76.4872 64.053 74.5995 64.5176L66.8805 66.4177C66.1582 66.5955 65.5943 67.1594 65.4165 67.8817L63.5164 75.6008C63.0517 77.4885 60.4394 77.6705 59.7174 75.8655L51.3526 54.9536Z" fill="#237FD3"></path></svg>