<svg width="510" height="488" fill="none" xmlns="http://www.w3.org/2000/svg"><path d="M170.104 74.964c0-7.453 6.041-13.494 13.494-13.494h312.907c7.453 0 13.495 6.041 13.495 13.494v384.598c0 7.452-6.042 13.494-13.495 13.494H183.598c-7.453 0-13.494-6.042-13.494-13.494V74.964z" fill="#D0D9EC"/><rect x="211.328" y="102.797" width="96.149" height="5.904" rx="2.952" fill="#fff"/><rect x="211.25" y="122.195" width="258.442" height="5.893" rx="2.946" fill="#fff"/><rect x="211.25" y="352.448" width="258.442" height="5.893" rx="2.946" fill="#fff"/><rect x="211.25" y="391.245" width="258.442" height="5.893" rx="2.946" fill="#fff"/><rect x="211.25" y="141.583" width="258.442" height="5.893" rx="2.946" fill="#fff"/><rect x="211.25" y="371.835" width="258.442" height="5.893" rx="2.946" fill="#fff"/><rect x="211.328" y="410.644" width="84.341" height="5.904" rx="2.952" fill="#fff"/><rect x="210.998" y="203.836" width="167.859" height="5.69" rx="2.845" fill="#fff"/><rect x="211.25" y="223.405" width="258.442" height="5.893" rx="2.946" fill="#fff"/><rect x="211.25" y="271.061" width="258.442" height="5.893" rx="2.946" fill="#fff"/><rect x="210.998" y="304.362" width="58.798" height="6.638" rx="3.319" fill="#fff"/><rect x="295.402" y="304.362" width="83.455" height="6.638" rx="3.319" fill="#fff"/><path d="M73.123 16c0-8.837 7.163-16 16-16h371c8.837 0 16 7.163 16 16v456c0 8.837-7.163 16-16 16h-371c-8.837 0-16-7.163-16-16V16z" fill="#fff"/><rect x="122" y="75" width="114" height="7" rx="3.5" fill="#E8EDF8"/><rect x="121.908" y="98" width="306.424" height="6.987" rx="3.493" fill="#E8EDF8"/><rect x="121.908" y="352" width="306.424" height="6.987" rx="3.493" fill="#E8EDF8"/><rect x="121.908" y="120.986" width="306.424" height="6.987" rx="3.493" fill="#E8EDF8"/><rect x="121.908" y="374.986" width="306.424" height="6.987" rx="3.493" fill="#E8EDF8"/><rect x="121.609" y="194.798" width="199.023" height="6.747" rx="3.373" fill="#E8EDF8"/><rect x="121.908" y="218" width="306.424" height="6.987" rx="3.493" fill="#E8EDF8"/><rect x="121.908" y="274.502" width="306.424" height="6.987" rx="3.493" fill="#E8EDF8"/><rect x="121.609" y="313.986" width="69.714" height="7.871" rx="3.935" fill="#E8EDF8"/><rect x="221.684" y="313.986" width="98.949" height="7.871" rx="3.935" fill="#E8EDF8"/><path d="M108.5 53.5H435a2.5 2.5 0 0 1 2.5 2.5v83.5a2.5 2.5 0 0 1-2.5 2.5H111a2.5 2.5 0 0 1-2.5-2.5v-86z" stroke="#237FD3"/><mask id="a" fill="#fff"><path d="M108 176h327a3 3 0 0 1 3 3v62a3 3 0 0 1-3 3H111a3 3 0 0 1-3-3v-65z"/></mask><path d="M108 176v-1h-1v1h1zm0 1h327v-2H108v2zm329 2v62h2v-62h-2zm-2 64H111v2h324v-2zm-326-2v-65h-2v65h2zm2 2a2 2 0 0 1-2-2h-2a4 4 0 0 0 4 4v-2zm326-2a2 2 0 0 1-2 2v2a4 4 0 0 0 4-4h-2zm-2-64a2 2 0 0 1 2 2h2a4 4 0 0 0-4-4v2z" fill="#237FD3" mask="url(#a)"/><path d="M108.5 52.5h54.712l-4.038-8.566a2.501 2.501 0 0 0-2.262-1.434H111a2.5 2.5 0 0 0-2.5 2.5v7.5z" fill="#237FD3" stroke="#237FD3"/><path d="M108 176h49l-3.771-9.144a3.002 3.002 0 0 0-2.774-1.856H111a3 3 0 0 0-3 3v8z" fill="#237FD3"/><path d="M112.48 50v-4.32h.534V50h-.534zm1.434 0v-4.32h.54l2.253 3.375V45.68h.54V50h-.54l-2.253-3.378V50h-.54zm5.285 0v-3.813h-1.473v-.507h3.48v.507h-1.473V50h-.534zm2.485 0v-4.32h1.707a2.224 2.224 0 0 1 .318.024c.234.036.43.116.588.24.16.124.28.281.36.471.08.188.12.397.12.627 0 .334-.087.624-.261.87-.174.244-.429.397-.765.459l-.204.033h-1.329V50h-.534zm2.571 0-.852-1.758.528-.162.936 1.92h-.612zm-2.037-2.103h1.155a1.57 1.57 0 0 0 .27-.027.693.693 0 0 0 .336-.174.772.772 0 0 0 .192-.3 1.079 1.079 0 0 0 0-.705.768.768 0 0 0-.192-.303.66.66 0 0 0-.336-.174 1.57 1.57 0 0 0-.27-.027h-1.155v1.71zm5.085 2.193c-.43 0-.795-.095-1.095-.285-.3-.19-.529-.454-.687-.792a2.772 2.772 0 0 1-.234-1.173c0-.444.078-.835.234-1.173.158-.338.387-.602.687-.792.3-.19.665-.285 1.095-.285.432 0 .798.095 1.098.285.3.19.528.454.684.792.156.338.234.729.234 1.173 0 .444-.078.835-.234 1.173a1.813 1.813 0 0 1-.684.792c-.3.19-.666.285-1.098.285zm0-.51c.322.002.59-.07.804-.216.216-.148.377-.353.483-.615.108-.262.162-.565.162-.909 0-.346-.054-.649-.162-.909a1.311 1.311 0 0 0-.483-.609c-.214-.146-.482-.22-.804-.222-.322-.002-.59.07-.804.216-.212.146-.372.35-.48.612a2.417 2.417 0 0 0-.165.912c-.002.344.051.646.159.906.108.26.269.464.483.612.216.146.485.22.807.222zm2.619.42v-4.32h1.332l.231.003c.11.002.215.01.315.024.334.044.613.166.837.366.226.198.396.45.51.756.114.306.171.643.171 1.011 0 .368-.057.705-.171 1.011a1.86 1.86 0 0 1-.51.759 1.532 1.532 0 0 1-.837.363 3.816 3.816 0 0 1-.546.027h-1.332zm.549-.51h.783c.076 0 .161-.002.255-.006.094-.006.176-.015.246-.027.236-.044.427-.143.573-.297.146-.154.253-.346.321-.576.068-.23.102-.478.102-.744 0-.272-.035-.523-.105-.753a1.373 1.373 0 0 0-.321-.573 1.014 1.014 0 0 0-.57-.291 1.634 1.634 0 0 0-.249-.027 6.148 6.148 0 0 0-.252-.006h-.783v3.3zm5.239.6c-.334 0-.629-.069-.885-.207a1.527 1.527 0 0 1-.603-.579 1.73 1.73 0 0 1-.216-.879v-2.742l.54-.003v2.7c0 .204.034.382.102.534.07.15.162.275.276.375a1.186 1.186 0 0 0 .786.297 1.208 1.208 0 0 0 .789-.297c.114-.1.205-.226.273-.378a1.29 1.29 0 0 0 .102-.531v-2.7h.54v2.745c0 .334-.073.626-.219.876a1.5 1.5 0 0 1-.6.582 1.836 1.836 0 0 1-.885.207zm4.32 0c-.43 0-.795-.095-1.095-.285-.3-.19-.529-.454-.687-.792a2.772 2.772 0 0 1-.234-1.173c0-.444.078-.835.234-1.173.158-.338.387-.602.687-.792.3-.19.665-.285 1.095-.285.5 0 .911.127 1.233.381.324.254.547.596.669 1.026l-.543.144a1.45 1.45 0 0 0-.471-.762c-.226-.186-.522-.279-.888-.279-.322 0-.59.073-.804.219-.214.146-.375.35-.483.612-.108.26-.163.563-.165.909-.002.344.051.647.159.909.108.26.27.464.486.612.216.146.485.219.807.219.366 0 .662-.093.888-.279.226-.188.383-.442.471-.762l.543.144c-.122.428-.345.77-.669 1.026-.322.254-.733.381-1.233.381zm3.673-.09v-3.813h-1.473v-.507h3.48v.507h-1.473V50h-.534zm2.545 0v-4.32h.534V50h-.534zm3.21.09c-.43 0-.795-.095-1.095-.285-.3-.19-.529-.454-.687-.792a2.772 2.772 0 0 1-.234-1.173c0-.444.078-.835.234-1.173.158-.338.387-.602.687-.792.3-.19.665-.285 1.095-.285.432 0 .798.095 1.098.285.3.19.528.454.684.792.156.338.234.729.234 1.173 0 .444-.078.835-.234 1.173a1.813 1.813 0 0 1-.684.792c-.3.19-.666.285-1.098.285zm0-.51c.322.002.59-.07.804-.216.216-.148.377-.353.483-.615.108-.262.162-.565.162-.909 0-.346-.054-.649-.162-.909a1.311 1.311 0 0 0-.483-.609c-.214-.146-.482-.22-.804-.222-.322-.002-.59.07-.804.216-.212.146-.372.35-.48.612a2.417 2.417 0 0 0-.165.912c-.002.344.051.646.159.906.108.26.269.464.483.612.216.146.485.22.807.222zm2.618.42v-4.32h.54l2.253 3.375V45.68h.54V50h-.54l-2.253-3.378V50h-.54zM112.42 173v-4.32h.486l1.632 3.441 1.623-3.441h.492v4.317h-.507v-3.144L114.679 173h-.285l-1.467-3.147V173h-.507zm4.774 0 1.446-4.32h.744l1.446 4.32h-.555l-1.353-4.008h.168L117.749 173h-.555zm.696-1.011v-.501h2.244v.501h-2.244zm3.537 1.011v-4.32h.534V173h-.534zm1.434 0v-4.32h.54l2.253 3.375v-3.375h.54V173h-.54l-2.253-3.378V173h-.54zm5.373 0v-4.32h1.707a2.224 2.224 0 0 1 .318.024c.234.036.43.116.588.24.16.124.28.281.36.471.08.188.12.397.12.627 0 .228-.041.437-.123.627-.08.188-.2.345-.36.471a1.236 1.236 0 0 1-.585.24 2.161 2.161 0 0 1-.318.024h-1.173V173h-.534zm.534-2.103h1.155a1.57 1.57 0 0 0 .27-.027.693.693 0 0 0 .336-.174.772.772 0 0 0 .192-.3 1.079 1.079 0 0 0 0-.705.768.768 0 0 0-.192-.303.66.66 0 0 0-.336-.174 1.57 1.57 0 0 0-.27-.027h-1.155v1.71zm4.934 2.193c-.43 0-.795-.095-1.095-.285-.3-.19-.529-.454-.687-.792a2.772 2.772 0 0 1-.234-1.173c0-.444.078-.835.234-1.173.158-.338.387-.602.687-.792.3-.19.665-.285 1.095-.285.432 0 .798.095 1.098.285.3.19.528.454.684.792.156.338.234.729.234 1.173 0 .444-.078.835-.234 1.173a1.813 1.813 0 0 1-.684.792c-.3.19-.666.285-1.098.285zm0-.51c.322.002.59-.07.804-.216.216-.148.377-.353.483-.615.108-.262.162-.565.162-.909 0-.346-.054-.649-.162-.909a1.311 1.311 0 0 0-.483-.609c-.214-.146-.482-.22-.804-.222-.322-.002-.59.07-.804.216-.212.146-.372.35-.48.612a2.417 2.417 0 0 0-.165.912c-.002.344.051.646.159.906.108.26.269.464.483.612.216.146.485.22.807.222zm2.678.42v-4.32h.534V173h-.534zm1.435 0v-4.32h.54l2.253 3.375v-3.375h.54V173h-.54l-2.253-3.378V173h-.54zm5.284 0v-3.813h-1.473v-.507h3.48v.507h-1.473V173h-.534zm4.018.09c-.306 0-.582-.052-.828-.156a1.582 1.582 0 0 1-.606-.444 1.49 1.49 0 0 1-.309-.687l.552-.087c.07.272.215.485.435.639.222.152.483.228.783.228.194 0 .369-.03.525-.09a.885.885 0 0 0 .375-.264.625.625 0 0 0 .138-.405.545.545 0 0 0-.186-.423.797.797 0 0 0-.192-.126 1.444 1.444 0 0 0-.225-.084l-1.101-.327a2.364 2.364 0 0 1-.348-.135 1.27 1.27 0 0 1-.3-.207.943.943 0 0 1-.21-.3 1.028 1.028 0 0 1-.078-.417c0-.256.066-.474.198-.654.134-.182.315-.321.543-.417.228-.096.485-.143.771-.141.29.002.549.054.777.156.23.1.42.244.57.432.152.188.254.413.306.675l-.567.099a.999.999 0 0 0-.585-.747 1.244 1.244 0 0 0-.507-.108 1.214 1.214 0 0 0-.477.084.827.827 0 0 0-.339.243.54.54 0 0 0-.126.354c0 .132.038.239.114.321.076.08.169.144.279.192.112.046.221.084.327.114l.822.237c.094.026.202.062.324.108.124.046.244.111.36.195a.967.967 0 0 1 .288.33c.076.136.114.308.114.516 0 .208-.042.393-.126.555a1.149 1.149 0 0 1-.345.408c-.148.108-.32.19-.516.246a2.21 2.21 0 0 1-.63.087z" fill="#fff"/><g filter="url(#b)"><rect x="22" y="334" width="150.365" height="36.051" rx="4" fill="#00CBA6" shape-rendering="crispEdges"/><mask id="c" fill="#fff"><path d="M36.164 356.532v-7.726c0-1.066.865-1.931 1.931-1.931h2.193c.756 0 1.442.441 1.757 1.129l.027.061a.644.644 0 0 0 .586.376h4.45c1.067 0 1.932.865 1.932 1.931v6.16a1.931 1.931 0 0 1-1.932 1.931h-9.013a1.931 1.931 0 0 1-1.931-1.931z"/></mask><path d="m42.072 348.065 1.171-.535-1.17.535zm-.028-.061-1.17.535 1.17-.535zm-4.592.802v7.726h-2.575v-7.726h2.575zm.643 8.369h9.013v2.576h-9.013v-2.576zm2.193-9.012h-2.193v-2.576h2.193v2.576zm7.464 8.369v-6.16h2.575v6.16h-2.575zm-.644-6.804h-1.645v-2.575h1.645v2.575zm-1.645 0h-2.805v-2.575h2.805v2.575zm-4.562-1.128-.028-.061 2.343-1.07.027.061-2.342 1.07zm1.757 1.128A1.932 1.932 0 0 1 40.9 348.6l2.342-1.07a.643.643 0 0 0-.585-.377v2.575zm5.094.644a.644.644 0 0 0-.644-.644v-2.575a3.22 3.22 0 0 1 3.22 3.219h-2.576zm-7.464-4.785a3.22 3.22 0 0 1 2.928 1.882l-2.343 1.07a.644.644 0 0 0-.585-.376v-2.576zm6.82 11.588a.643.643 0 0 0 .644-.643h2.575a3.22 3.22 0 0 1-3.219 3.219v-2.576zm-9.656-.643c0 .355.288.643.643.643v2.576a3.22 3.22 0 0 1-3.218-3.219h2.575zm-2.575-7.726a3.22 3.22 0 0 1 3.218-3.219v2.576a.643.643 0 0 0-.643.643h-2.575z" fill="#fff" mask="url(#c)"/><path d="M60.23 356.18a3.673 3.673 0 0 1-1.468-.283 2.777 2.777 0 0 1-1.07-.809 2.656 2.656 0 0 1-.531-1.257l1.287-.195c.11.439.335.779.675 1.019a2.01 2.01 0 0 0 1.184.361c.265 0 .514-.041.747-.124a1.36 1.36 0 0 0 .567-.36.82.82 0 0 0 .221-.582.752.752 0 0 0-.051-.283.664.664 0 0 0-.155-.237.953.953 0 0 0-.257-.186 1.763 1.763 0 0 0-.36-.149l-1.917-.567a5.37 5.37 0 0 1-.535-.19 2.32 2.32 0 0 1-.541-.335 1.717 1.717 0 0 1-.417-.546c-.107-.223-.16-.498-.16-.824 0-.477.12-.877.36-1.2.244-.326.57-.57.98-.731a3.634 3.634 0 0 1 1.37-.237c.507.003.96.091 1.359.263.398.168.731.413.999.736s.457.712.566 1.169l-1.333.232a1.493 1.493 0 0 0-.891-1.087 1.929 1.929 0 0 0-1.406-.041c-.21.076-.38.185-.51.33a.738.738 0 0 0-.19.504c0 .182.054.332.164.448.11.114.245.205.407.273a4.2 4.2 0 0 0 .5.165l1.328.371c.182.048.386.113.613.196.227.082.445.197.654.345.21.147.381.341.515.582.138.24.206.546.206.916 0 .385-.08.723-.242 1.015a2.127 2.127 0 0 1-.644.721 2.948 2.948 0 0 1-.932.433c-.347.096-.71.144-1.092.144zm5.58 0c-.401 0-.741-.076-1.02-.227a1.6 1.6 0 0 1-.633-.613 1.7 1.7 0 0 1-.211-.839c0-.268.044-.508.134-.721a1.42 1.42 0 0 1 .412-.556c.185-.158.426-.287.72-.387.224-.072.485-.137.784-.195.302-.059.628-.112.978-.16.354-.051.723-.106 1.108-.165l-.443.253c.003-.385-.083-.668-.258-.85-.175-.182-.47-.273-.886-.273a1.6 1.6 0 0 0-.726.175c-.233.117-.397.318-.49.603l-1.132-.356c.137-.47.398-.848.783-1.133.388-.285.91-.427 1.565-.427.495 0 .929.08 1.303.242.378.161.658.425.84.793.1.196.16.396.18.602.02.203.03.424.03.665v3.414h-1.086v-1.205l.18.196c-.25.402-.544.697-.88.886-.333.185-.75.278-1.252.278zm.248-.989c.281 0 .521-.05.72-.149.2-.1.358-.222.474-.366.12-.144.201-.28.242-.407.066-.158.102-.338.109-.541.01-.206.015-.372.015-.499l.381.113c-.374.058-.695.11-.963.155-.268.044-.498.087-.69.128a4.458 4.458 0 0 0-.51.129 1.624 1.624 0 0 0-.366.18.805.805 0 0 0-.231.237.62.62 0 0 0-.078.314c0 .138.035.26.103.366a.71.71 0 0 0 .3.247c.133.062.298.093.494.093zm5.434.834-2.019-5.562h1.242l1.4 4.033 1.396-4.033h1.247l-2.02 5.562h-1.246zm6.517.155c-.563 0-1.057-.122-1.483-.366a2.608 2.608 0 0 1-.999-1.014c-.237-.433-.355-.931-.355-1.494 0-.608.117-1.135.35-1.581.233-.45.558-.798.973-1.046.416-.247.896-.37 1.442-.37.577 0 1.067.135 1.468.407.405.267.706.647.901 1.138.196.491.27 1.069.222 1.735h-1.23v-.453c-.004-.604-.11-1.045-.32-1.323-.21-.279-.54-.418-.99-.418-.507 0-.885.158-1.132.474-.247.313-.37.771-.37 1.375 0 .563.123.999.37 1.308.247.309.608.464 1.081.464.306 0 .569-.067.788-.201a1.34 1.34 0 0 0 .515-.592l1.226.371a2.485 2.485 0 0 1-.989 1.169 2.706 2.706 0 0 1-1.468.417zm-1.915-2.591v-.937h3.826v.937h-3.826zm7.748-3.97v-1.139h1.241v1.139h-1.24zm0 6.406v-5.562h1.241v5.562h-1.24zm6.044 0a5.07 5.07 0 0 1-1.081.088 2.466 2.466 0 0 1-.943-.191 1.3 1.3 0 0 1-.633-.582 1.654 1.654 0 0 1-.201-.736c-.007-.251-.01-.534-.01-.85v-4.836h1.236v4.764c0 .223.001.419.005.587a.846.846 0 0 0 .108.412c.123.206.321.321.592.345.271.024.58.011.927-.041v1.04zm-3.878-4.588v-.974h3.878v.974h-3.878zm8.692 4.743c-.402 0-.742-.076-1.02-.227a1.6 1.6 0 0 1-.634-.613 1.7 1.7 0 0 1-.21-.839c0-.268.044-.508.133-.721a1.42 1.42 0 0 1 .412-.556c.186-.158.426-.287.721-.387.224-.072.484-.137.783-.195.302-.059.628-.112.979-.16.353-.051.722-.106 1.107-.165l-.443.253c.003-.385-.082-.668-.257-.85-.175-.182-.47-.273-.886-.273a1.6 1.6 0 0 0-.726.175c-.234.117-.397.318-.49.603l-1.133-.356c.138-.47.398-.848.783-1.133.388-.285.91-.427 1.566-.427.494 0 .928.08 1.303.242.377.161.657.425.84.793.099.196.159.396.18.602.02.203.03.424.03.665v3.414h-1.086v-1.205l.18.196c-.25.402-.544.697-.88.886-.334.185-.751.278-1.252.278zm.247-.989c.281 0 .522-.05.721-.149.2-.1.357-.222.474-.366.12-.144.2-.28.242-.407.065-.158.101-.338.108-.541.01-.206.015-.372.015-.499l.382.113c-.375.058-.696.11-.963.155-.268.044-.498.087-.69.128a4.453 4.453 0 0 0-.51.129 1.627 1.627 0 0 0-.366.18.806.806 0 0 0-.232.237.62.62 0 0 0-.077.314c0 .138.034.26.103.366a.71.71 0 0 0 .299.247c.133.062.298.093.494.093zm6.28.989c-.687 0-1.245-.155-1.674-.464-.43-.309-.69-.743-.783-1.303l1.267-.195c.065.274.21.491.433.649.223.158.504.237.844.237.299 0 .529-.059.691-.176a.575.575 0 0 0 .247-.489.466.466 0 0 0-.093-.304c-.058-.079-.189-.154-.391-.226a12.66 12.66 0 0 0-.933-.273c-.467-.124-.837-.256-1.112-.397-.275-.144-.472-.314-.592-.51a1.329 1.329 0 0 1-.18-.71c0-.347.09-.649.272-.907.182-.257.436-.455.763-.592.326-.141.71-.211 1.153-.211.433 0 .816.067 1.149.201.336.133.608.324.814.571.206.247.333.538.381.871l-1.267.226a.795.795 0 0 0-.325-.561c-.182-.138-.426-.215-.731-.232-.292-.017-.527.028-.706.134-.178.103-.267.249-.267.438 0 .106.036.197.108.273.072.075.216.151.432.226.22.076.546.169.979.278.443.114.796.244 1.061.392.268.144.46.317.577.52.12.203.18.448.18.736 0 .56-.204 1-.613 1.319-.405.319-.967.479-1.684.479zm8.747-.155a5.066 5.066 0 0 1-1.081.088 2.465 2.465 0 0 1-.943-.191 1.3 1.3 0 0 1-.633-.582 1.657 1.657 0 0 1-.201-.736 30.622 30.622 0 0 1-.011-.85v-4.836h1.236v4.764c0 .223.002.419.006.587a.84.84 0 0 0 .108.412c.123.206.321.321.592.345.271.024.58.011.927-.041v1.04zm-3.878-4.588v-.974h3.878v.974h-3.878zm7.321 4.743c-.563 0-1.057-.122-1.483-.366a2.604 2.604 0 0 1-.999-1.014c-.237-.433-.356-.931-.356-1.494 0-.608.117-1.135.351-1.581.233-.45.558-.798.973-1.046.416-.247.896-.37 1.442-.37.577 0 1.066.135 1.468.407.405.267.706.647.901 1.138.196.491.27 1.069.222 1.735h-1.231v-.453c-.004-.604-.11-1.045-.32-1.323-.209-.279-.539-.418-.988-.418-.509 0-.886.158-1.133.474-.248.313-.371.771-.371 1.375 0 .563.123.999.371 1.308.247.309.607.464 1.081.464.306 0 .568-.067.788-.201a1.34 1.34 0 0 0 .515-.592l1.226.371a2.488 2.488 0 0 1-.989 1.169 2.706 2.706 0 0 1-1.468.417zm-1.916-2.591v-.937h3.827v.937h-3.827zm12.113 2.436v-3.378c0-.381-.095-.678-.283-.891-.189-.216-.445-.325-.768-.325a1.04 1.04 0 0 0-.535.139.952.952 0 0 0-.376.402c-.093.175-.14.385-.14.628l-.551-.324a1.905 1.905 0 0 1 .258-1.015c.178-.295.419-.525.721-.69a2.082 2.082 0 0 1 1.009-.247c.615 0 1.085.186 1.412.556.329.368.494.852.494 1.453v3.692h-1.241zm-6.69 0v-5.562h1.097v1.725h.154v3.837h-1.251zm3.352 0v-3.363c0-.388-.094-.69-.283-.906-.189-.216-.446-.325-.772-.325a.974.974 0 0 0-.763.325c-.188.216-.283.498-.283.844l-.556-.37c0-.361.089-.685.268-.974.178-.288.419-.515.721-.68a2.09 2.09 0 0 1 1.025-.252c.415 0 .762.089 1.04.268.282.175.491.415.628.721.141.302.211.644.211 1.025v3.687h-1.236zm8.595.155c-.542 0-.997-.129-1.365-.386a2.374 2.374 0 0 1-.829-1.051 3.88 3.88 0 0 1-.278-1.499c0-.559.093-1.061.278-1.504.186-.443.457-.791.814-1.045.361-.258.805-.386 1.334-.386.525 0 .98.128 1.365.386.388.254.688.602.901 1.045.213.44.319.941.319 1.504 0 .556-.104 1.056-.314 1.499a2.558 2.558 0 0 1-.886 1.051c-.381.257-.827.386-1.339.386zm-2.683 2.317v-8.034h1.097v3.904h.155v4.13h-1.252zm2.493-3.43c.322 0 .589-.08.798-.242.209-.161.364-.379.464-.654.103-.278.154-.587.154-.927 0-.336-.051-.642-.154-.916a1.413 1.413 0 0 0-.479-.66c-.217-.164-.491-.247-.824-.247-.316 0-.574.077-.773.232a1.326 1.326 0 0 0-.443.638 2.945 2.945 0 0 0-.139.953c0 .361.046.678.139.953.096.275.246.489.448.644.206.151.476.226.809.226zm3.968.958v-7.57h1.241v7.57h-1.241zm4.339.155c-.402 0-.742-.076-1.02-.227a1.598 1.598 0 0 1-.633-.613 1.698 1.698 0 0 1-.212-.839c0-.268.045-.508.134-.721a1.43 1.43 0 0 1 .412-.556c.186-.158.426-.287.721-.387.224-.072.485-.137.783-.195.302-.059.629-.112.979-.16.353-.051.723-.106 1.107-.165l-.443.253c.004-.385-.082-.668-.257-.85-.175-.182-.471-.273-.886-.273-.251 0-.493.058-.726.175-.234.117-.397.318-.49.603l-1.133-.356c.138-.47.399-.848.783-1.133.388-.285.91-.427 1.566-.427.494 0 .929.08 1.303.242.378.161.657.425.839.793.1.196.16.396.181.602.02.203.03.424.03.665v3.414h-1.086v-1.205l.18.196c-.251.402-.544.697-.881.886-.333.185-.75.278-1.251.278zm.247-.989c.282 0 .522-.05.721-.149.199-.1.357-.222.474-.366.12-.144.201-.28.242-.407.065-.158.101-.338.108-.541.01-.206.016-.372.016-.499l.381.113c-.375.058-.696.11-.963.155-.268.044-.498.087-.691.128a4.418 4.418 0 0 0-.509.129 1.621 1.621 0 0 0-.366.18.802.802 0 0 0-.232.237.624.624 0 0 0-.077.314c0 .138.034.26.103.366a.71.71 0 0 0 .299.247c.134.062.298.093.494.093zm7.392.834a5.066 5.066 0 0 1-1.081.088 2.469 2.469 0 0 1-.943-.191 1.3 1.3 0 0 1-.633-.582 1.657 1.657 0 0 1-.201-.736c-.007-.251-.01-.534-.01-.85v-4.836h1.236v4.764c0 .223.001.419.005.587a.85.85 0 0 0 .108.412c.124.206.321.321.592.345.272.024.581.011.927-.041v1.04zm-3.878-4.588v-.974h3.878v.974h-3.878zm7.322 4.743c-.564 0-1.058-.122-1.484-.366a2.61 2.61 0 0 1-.999-1.014c-.237-.433-.355-.931-.355-1.494 0-.608.117-1.135.35-1.581.233-.45.558-.798.973-1.046.416-.247.897-.37 1.442-.37.577 0 1.067.135 1.468.407.405.267.706.647.902 1.138.195.491.269 1.069.221 1.735h-1.231v-.453c-.003-.604-.11-1.045-.319-1.323-.21-.279-.539-.418-.989-.418-.508 0-.886.158-1.133.474-.247.313-.371.771-.371 1.375 0 .563.124.999.371 1.308.247.309.608.464 1.081.464.306 0 .569-.067.788-.201.224-.137.395-.335.515-.592l1.226.371a2.482 2.482 0 0 1-.989 1.169 2.705 2.705 0 0 1-1.467.417zm-1.916-2.591v-.937h3.826v.937h-3.826z" fill="#fff"/></g><rect opacity=".5" x="333.5" y="412.5" width="106" height="45" rx="6.773" fill="#E8EDF8" stroke="#D0D9EC" stroke-dasharray="7.02 7.02"/><rect opacity=".5" x="111.5" y="412.5" width="155" height="45" rx="6.773" fill="#E8EDF8" stroke="#D0D9EC" stroke-dasharray="7.02 7.02"/><path d="M377.903 442.203c-.746 0-1.368-.194-1.865-.583-.493-.389-.839-.913-1.038-1.573l1.614-.387c.05.276.194.513.434.712.24.199.504.299.793.299.19 0 .392-.05.604-.149a.992.992 0 0 0 .475-.495c.063-.145.099-.317.108-.516.014-.203.021-.438.021-.705v-6.571h1.654v6.571c0 .303-.002.57-.006.8 0 .226-.023.441-.068.644a2.012 2.012 0 0 1-.251.617c-.267.462-.615.801-1.045 1.018a3.184 3.184 0 0 1-1.43.318zm9.618-.203-2.855-9.765h1.716l1.946 7.052 1.94-7.039 1.715-.013 1.947 7.052 1.939-7.052h1.716L394.737 442h-1.614l-2.001-6.944-1.987 6.944h-1.614z" fill="#AAA9C4"/><path d="M150 438.44c10.251-8.369 27.87-21.462 16.338-6.879-14.416 18.229-10.572 17.885 0 11.35 10.571-6.535 6.666-10.208 3.844-5.159-3.844 6.879 10.764 2.083 17.779.688 8.649-1.72 7.688-.344 17.299 1.376 9.61 1.72 7.688-8.943 4.324-1.032-2.69 6.329 14.256-2.064 14.416-8.255" stroke="#1E1E2C" stroke-width="2.078"/><path d="m180.804 387.761-8.825-18.783 18.782 8.826a11.34 11.34 0 0 0-9.957 9.957z" fill="#AAA9C4"/><defs><filter id="b" x="0" y="315" width="242.365" height="128.052" filterUnits="userSpaceOnUse" color-interpolation-filters="sRGB"><feFlood flood-opacity="0" result="BackgroundImageFix"/><feColorMatrix in="SourceAlpha" values="0 0 0 0 0 0 0 0 0 0 0 0 0 0 0 0 0 0 127 0" result="hardAlpha"/><feOffset dx="24" dy="27"/><feGaussianBlur stdDeviation="23"/><feComposite in2="hardAlpha" operator="out"/><feColorMatrix values="0 0 0 0 0.145098 0 0 0 0 0.313726 0 0 0 0 0.65098 0 0 0 0.2 0"/><feBlend in2="BackgroundImageFix" result="effect1_dropShadow_15_407"/><feBlend in="SourceGraphic" in2="effect1_dropShadow_15_407" result="shape"/></filter></defs></svg>