<svg width="97" height="96" viewBox="0 0 97 96" fill="none" xmlns="http://www.w3.org/2000/svg"><g clipPath="url(#clip0_85_1171)"><path d="M4.64777 41.4912C3.93492 29.2877 13.6392 19 25.8635 19H34.8045C47.0288 19 56.733 29.2877 56.0202 41.4912L55.2854 54.0698C54.8729 61.1322 51.3274 67.6413 45.6178 71.8184L39.0212 76.6445C33.848 80.4291 26.8199 80.4291 21.6468 76.6445L15.0502 71.8184C9.34054 67.6413 5.79507 61.1322 5.38253 54.0698L4.64777 41.4912Z" fill="#E8EDF8"></path><path fillRule="evenodd" clip-rule="evenodd" d="M27.334 19H26.0606C12.9949 19 2.61994 30.179 3.37249 43.4464L3.92465 53.1814C4.35769 60.8164 8.10089 67.8616 14.1428 72.4138L18.8431 75.9552C21.1315 77.6792 24.6392 78.6944 27.334 79V19Z" fill="#E8EDF8"></path><rect x="36.334" y="49" width="6" height="5" rx="2.5" fill="#D0D9EC"></rect><path d="M2.91708 47.0795C0.0499649 41.7186 1.72241 28.3606 2.91704 24.9356C3.21571 23.1487 5.42579 19.396 8.29291 15.1073C11.8768 9.7464 20.3886 15.1073 29.3483 11.0867C38.3081 7.06599 47.7158 15.1073 53.9876 20.4682C60.2595 25.8291 58.288 43.0589 56.944 47.973C55.6 52.8872 51.7477 48.6129 49.9557 37.8912C48.1638 27.1694 37.8601 29.4031 29.3483 33.8705C20.8366 38.3379 21.2845 32.5303 13.6688 32.0835C6.05297 31.6368 6.50098 53.7807 2.91708 47.0795Z" fill="#D0D9EC"></path><path d="M25.1673 58.2222L27.2952 52.2899C27.8131 50.8461 29.8549 50.8461 30.3727 52.2899L32.5007 58.2222L32.6705 58.7576C33.494 61.3529 31.5568 64 28.834 64V64C26.1111 64 24.1739 61.3529 24.9974 58.7576L25.1673 58.2222Z" fill="url(#paint0_linear_85_1171)"></path><path fillRule="evenodd" clip-rule="evenodd" d="M33.6556 46.5157C34.1742 47.1602 35.1253 47.2575 35.8694 46.8782C38.3925 45.5917 41.4643 45.6592 43.9547 47.1454L45.0215 47.782C45.7377 48.2095 46.6731 47.989 47.1108 47.2896C47.5485 46.5902 47.3227 45.6767 46.6065 45.2493L45.5397 44.6127C41.9643 42.479 37.5144 42.4798 33.9715 44.5127C33.2478 44.9279 33.1371 45.8712 33.6556 46.5157Z" fill="#D0D9EC"></path><path fillRule="evenodd" clip-rule="evenodd" d="M27.334 36.022L27.834 11.5C24.2694 12.4926 20.3717 12.6424 17.334 12.5C13.1426 12.3036 9.66845 12.3317 7.67494 15.2843C4.65042 19.7639 2.31901 23.6835 2.00395 25.55C0.743734 29.1275 -1.02053 43.0801 2.00399 48.6796C3.72528 51.8663 5.17178 49.2336 6.33398 45C7.72445 39.9349 8.96977 32.7619 13.3459 33.0161C16.5049 33.1995 18.3487 34.2488 19.9691 35.1709C22.0338 36.3459 23.7358 37.3145 27.334 36.022Z" fill="#237FD3"></path><rect x="15.334" y="49" width="5" height="5" rx="2.5" fill="#237FD3"></rect><path fillRule="evenodd" clip-rule="evenodd" d="M23.9894 46.5157C23.4337 47.1602 22.4147 47.2575 21.6175 46.8782C18.9142 45.5917 15.623 45.6592 12.9547 47.1454L11.8117 47.782C11.0443 48.2095 10.0421 47.989 9.57313 47.2896C9.10418 46.5902 9.3461 45.6767 10.1135 45.2493L11.2565 44.6127C15.0872 42.479 19.8549 42.4798 23.651 44.5127C24.4263 44.9279 24.545 45.8712 23.9894 46.5157Z" fill="#237FD3"></path><rect x="26.334" y="88" width="87" height="4" rx="2" transform="rotate(-90 26.334 88)" fill="#237FD3"></rect><path fillRule="evenodd" clip-rule="evenodd" d="M65.7011 81.7302C73.0011 77.5156 75.5022 68.1811 71.2876 60.8811C67.0729 53.5812 57.7385 51.08 50.4385 55.2947C43.1385 59.5093 40.6374 68.8437 44.852 76.1437C49.0667 83.4437 58.4011 85.9448 65.7011 81.7302ZM64.9225 66.648C65.774 65.7965 65.774 64.416 64.9225 63.5645C64.071 62.713 62.6905 62.713 61.839 63.5645L56.7132 68.6903L54.9736 67.2254C54.0525 66.4498 52.677 66.5677 51.9013 67.4887C51.1257 68.4098 51.2436 69.7853 52.1647 70.561L55.4352 73.3151C56.3011 74.0443 57.581 73.9895 58.3814 73.1891L64.9225 66.648Z" fill="#00E3BA"></path></g><defs><linearGradient id="paint0_linear_85_1171" x1="28.834" y1="48" x2="28.834" y2="64" gradientUnits="userSpaceOnUse"><stop stop-color="#C7DAFF"></stop><stop offset="1" stop-color="#C9DBFF" stop-opacity="0"></stop></linearGradient><clipPath id="clip0_85_1171"><rect width="96" height="96" fill="white" transform="translate(0.333984)"></rect></clipPath></defs></svg>