<svg width="96" height="96" viewBox="0 0 96 96" fill="none" xmlns="http://www.w3.org/2000/svg"><path d="M12 36C12 31.5817 15.5817 28 20 28H80C82.2091 28 84 29.7909 84 32V80C84 82.2091 82.2091 84 80 84H16C13.7909 84 12 82.2091 12 80V36Z" fill="#E8EDF8"></path><path d="M12 20C12 15.5817 15.5817 12 20 12H54C58.4183 12 62 15.5817 62 20V80C62 82.2091 60.2091 84 58 84H16C13.7909 84 12 82.2091 12 80V20Z" fill="#D0D9EC"></path><path d="M12 16C12 13.7909 13.7909 12 16 12H58C60.2091 12 62 13.7909 62 16V28H12V16Z" fill="#237FD3"></path><path d="M44 44C44 41.7909 45.7909 40 48 40H74C76.2091 40 78 41.7909 78 44V52C78 54.2091 76.2091 56 74 56H48C45.7909 56 44 54.2091 44 52V44Z" fill="#00CBA6"></path><g filter="url(#filter0_b_1_1994)"><path d="M44 64C44 61.7909 45.7909 60 48 60H68C70.2091 60 72 61.7909 72 64V72C72 74.2091 70.2091 76 68 76H48C45.7909 76 44 74.2091 44 72V64Z" fill="#237FD3"></path></g><path d="M20 68C20 63.5817 23.5817 60 28 60C32.4183 60 36 63.5817 36 68C36 72.4183 32.4183 76 28 76C23.5817 76 20 72.4183 20 68Z" fill="#E8EDF8"></path><rect x="27" y="63" width="2" height="10" fill="#237FD3"></rect><rect x="33" y="67" width="2" height="10" transform="rotate(90 33 67)" fill="#237FD3"></rect><defs><filter id="filter0_b_1_1994" x="40" y="56" width="36" height="24" filterUnits="userSpaceOnUse" color-interpolation-filters="sRGB"><feFlood flood-opacity="0" result="BackgroundImageFix"></feFlood><feGaussianBlur in="BackgroundImage" stdDeviation="2"></feGaussianBlur><feComposite in2="SourceAlpha" operator="in" result="effect1_backgroundBlur_1_1994"></feComposite><feBlend mode="normal" in="SourceGraphic" in2="effect1_backgroundBlur_1_1994" result="shape"></feBlend></filter></defs></svg>