<svg width="96" height="96" viewBox="0 0 96 96" fill="none" xmlns="http://www.w3.org/2000/svg"><path d="M12 25C12 22.7909 13.7909 21 16 21H68.4806H80C82.2091 21 84 22.7909 84 25V77C84 79.2091 82.2091 81 80 81H16C13.7909 81 12 79.2091 12 77V25Z" fill="#D0D9EC"></path><path d="M34 18C34 15.7909 35.7909 14 38 14H58C60.2091 14 62 15.7909 62 18V28H34V18Z" fill="#237FD3"></path><path d="M81 32.1952C81 33.3056 80.3866 34.3253 79.4055 34.8456L50.3425 50.2578C48.8775 51.0347 47.1225 51.0347 45.6575 50.2578L16.5945 34.8455C15.6134 34.3253 15 33.3056 15 32.1952L15 27C15 25.3431 16.3431 24 18 24L78 24C79.6569 24 81 25.3431 81 27L81 32.1952Z" fill="#00CBA6"></path><rect x="40" y="44" width="16" height="13" rx="4" fill="white"></rect></svg>